<svg xmlns="http://www.w3.org/2000/svg" viewBox="0 0 911 810"><defs><style>.cls-1,.cls-3{fill:#fff;}.cls-2{fill:none;stroke-width:1.37461px;}.cls-2,.cls-3{stroke:#000;stroke-miterlimit:10;}</style></defs><title>7.Whatnottodeposit</title><g id="Boxes"><rect class="cls-1" width="911" height="810" rx="8.11772" ry="8.11772"/></g><g id="Text"><path d="M149.33691,107.57227h-6.90332l-2.61328-15.28857-2.57373,15.28857h-6.90332l-5.46045-24.96094h6.74756l2.33984,15.60059,2.57422-15.60059h6.78613l2.57422,15.60059,2.34033-15.60059h6.47412Z" transform="translate(-68 -57)"/><path d="M165.59912,107.57227V96.61279c0-3.042-.624-3.39307-1.48193-3.39307-.897,0-1.56006.50684-1.56006,3.39307l-.07812,10.95947h-6.24023V79.998H162.479v9.39941a4.24721,4.24721,0,0,1,3.62744-2.106c5.65527,0,5.73291,4.29,5.73291,9.00928v11.27148Z" transform="translate(-68 -57)"/><path d="M186.5415,107.57227l-.81885-2.26221a6.26487,6.26487,0,0,1-5.3042,2.65234c-3.82227,0-6.35742-2.145-6.35742-5.88916,0-4.09521,2.88623-5.69434,9.9458-6.43555V94.46777c0-1.9502-.3125-2.73-1.59912-2.73-1.17041,0-1.71631.5459-1.71631,2.61279h-6.20117c0-3.939,2.18408-7.05908,7.80029-7.05908,7.21533,0,7.99512,4.2124,7.99512,8.77539v11.50537Zm-2.53467-8.46338c-1.8335.27295-3.51025.19482-3.51025,2.418,0,1.56006.624,1.9502,1.521,1.9502,1.209,0,1.98926-1.01416,1.98926-3.19824Z" transform="translate(-68 -57)"/><path d="M201.8291,107.76709c-6.31787,0-7.83887-2.30078-7.83887-6.31787V93.49268h-2.53516V89.28076l2.53516-1.56006V82.61133h6.24023v5.07031h3.50977v5.811h-3.354v6.51318c0,1.59912.35107,1.98926,1.833,1.98926.4292,0,.936-.03906,1.521-.07812v5.77246C203.07715,107.72852,202.41455,107.76709,201.8291,107.76709Z" transform="translate(-68 -57)"/><path d="M223.27832,107.57227V96.26172c0-2.57422-.38965-3.08105-1.48193-3.08105-1.0918,0-1.56006.5459-1.56006,3.08105v11.31055H213.918V87.68164h3.7832l.78027,2.18408a5.78268,5.78268,0,0,1,4.68018-2.57422c5.92822,0,6.35693,4.251,6.35693,8.89209v11.38867Z" transform="translate(-68 -57)"/><path d="M239.77539,107.9624c-6.8252,0-7.99561-5.81152-7.99561-10.33545,0-4.48535,1.248-10.33545,8.07324-10.33545,6.7085,0,7.91748,5.8501,7.91748,10.33545C247.77051,102.229,246.56152,107.9624,239.77539,107.9624Zm.07764-14.8208c-1.28662,0-2.26172.9751-2.26172,4.48535,0,3.54883,1.01367,4.52393,2.18408,4.52393,1.28711,0,2.26172-.897,2.26172-4.52393C242.03711,94.15576,241.10107,93.1416,239.853,93.1416Z" transform="translate(-68 -57)"/><path d="M259.23535,107.76709c-6.31787,0-7.83887-2.30078-7.83887-6.31787V93.49268h-2.53516V89.28076l2.53516-1.56006V82.61133h6.24023v5.07031h3.50977v5.811h-3.354v6.51318c0,1.59912.35107,1.98926,1.833,1.98926.4292,0,.936-.03906,1.521-.07812v5.77246C260.4834,107.72852,259.8208,107.76709,259.23535,107.76709Z" transform="translate(-68 -57)"/><path d="M280.334,107.76709c-6.31787,0-7.83887-2.30078-7.83887-6.31787V93.49268H269.96V89.28076l2.53516-1.56006V82.61133h6.24023v5.07031h3.50977v5.811h-3.354v6.51318c0,1.59912.35107,1.98926,1.833,1.98926.4292,0,.936-.03906,1.521-.07812v5.77246C281.582,107.72852,280.91943,107.76709,280.334,107.76709Z" transform="translate(-68 -57)"/><path d="M291.41016,107.9624c-6.8252,0-7.99561-5.81152-7.99561-10.33545,0-4.48535,1.248-10.33545,8.07324-10.33545,6.7085,0,7.91748,5.8501,7.91748,10.33545C299.40527,102.229,298.19629,107.9624,291.41016,107.9624Zm.07764-14.8208c-1.28662,0-2.26172.9751-2.26172,4.48535,0,3.54883,1.01367,4.52393,2.18408,4.52393,1.28711,0,2.26172-.897,2.26172-4.52393C293.67188,94.15576,292.73584,93.1416,291.48779,93.1416Z" transform="translate(-68 -57)"/><path d="M325.53467,107.57227h-3.74414l-.81885-2.02832a6.093,6.093,0,0,1-4.60254,2.41846c-5.88916,0-7.17627-6.00635-7.17627-10.33545,0-5.3042,1.67725-10.33545,6.04541-10.33545a6.65684,6.65684,0,0,1,4.05615,1.48193V79.998h6.24023Zm-8.07324-14.50879c-1.91113,0-2.145,2.18457-2.145,4.56348,0,2.53516.23389,4.64111,2.18408,4.64111,1.79395,0,2.02783-2.106,2.02783-4.64111C319.52832,95.209,319.29443,93.06348,317.46143,93.06348Z" transform="translate(-68 -57)"/><path d="M333.91895,99.14795c.03906,2.69092.585,4.251,2.26221,4.251.897,0,1.79395-.70166,1.98877-2.457h6.00635c-.46777,4.40723-2.73,7.02051-7.76123,7.02051-7.37109,0-8.42432-5.8501-8.42432-10.37451S329.083,87.2915,336.29785,87.2915c7.72266,0,7.87842,6.8252,7.87842,11.85645Zm2.106-7.33252c-.81885,0-1.94971.46826-2.106,3.62744h4.13428C337.9751,92.98584,337.585,91.81543,336.0249,91.81543Z" transform="translate(-68 -57)"/><path d="M346.59375,87.68164h3.7832l.81934,1.9502a5.904,5.904,0,0,1,4.64111-2.34033c5.88916,0,7.05908,5.96729,7.05908,10.29639,0,5.3042-1.67676,10.37451-6.00635,10.37451a6.44946,6.44946,0,0,1-4.05615-1.36523v8.77539h-6.24023Zm8.1123,5.46c-1.91113,0-2.145,2.06738-2.145,4.44629,0,2.53516.23389,4.64111,2.18408,4.64111,1.79395,0,2.06738-2.106,2.06738-4.64111C356.8125,95.13086,356.53906,93.1416,354.70605,93.1416Z" transform="translate(-68 -57)"/><path d="M372.72363,107.9624c-6.8252,0-7.99561-5.81152-7.99561-10.33545,0-4.48535,1.248-10.33545,8.07324-10.33545,6.7085,0,7.91748,5.8501,7.91748,10.33545C380.71875,102.229,379.50977,107.9624,372.72363,107.9624Zm.07764-14.8208c-1.28662,0-2.26172.9751-2.26172,4.48535,0,3.54883,1.01367,4.52393,2.18408,4.52393,1.28711,0,2.26172-.897,2.26172-4.52393C374.98535,94.15576,374.04932,93.1416,372.80127,93.1416Z" transform="translate(-68 -57)"/><path d="M390.46826,107.9624c-5.14795,0-8.19043-1.91113-8.19043-6.86426h6.12354c0,2.418.936,2.65186,1.91113,2.65186a1.58749,1.58749,0,0,0,1.59863-1.6377,2.36318,2.36318,0,0,0-1.6377-2.10645c-3.35449-1.209-7.72266-1.91113-7.72266-6.51318,0-2.92529,1.63818-6.20117,7.52734-6.20117,5.3042,0,7.52734,1.87207,7.52734,6.55225h-5.92822c0-2.06689-.936-2.37891-1.56006-2.37891a1.52357,1.52357,0,0,0-1.521,1.6377,2.13209,2.13209,0,0,0,1.56006,1.9502c3.354,1.28711,7.80029,1.59912,7.80029,6.8252C397.95654,104.2959,396.12354,107.9624,390.46826,107.9624Z" transform="translate(-68 -57)"/><path d="M403.14307,85.69238c-2.49609,0-3.82227-.74121-3.82227-3.70508,0-3.042,1.32617-3.666,3.82227-3.666s3.78271.624,3.78271,3.666C406.92578,84.9126,405.63916,85.69238,403.14307,85.69238Zm-3.12012,21.87988V87.68164h6.24023v19.89062Z" transform="translate(-68 -57)"/><path d="M418.08008,107.76709c-6.31836,0-7.83936-2.30078-7.83936-6.31787V93.49268h-2.53516V89.28076l2.53516-1.56006V82.61133H416.481v5.07031h3.50977v5.811h-3.354v6.51318c0,1.59912.35107,1.98926,1.833,1.98926.4292,0,.936-.03906,1.521-.07812v5.77246C419.32813,107.72852,418.665,107.76709,418.08008,107.76709Z" transform="translate(-68 -57)"/><rect class="cls-2" x="47.5" y="97" width="819" height="670" rx="40.22155" ry="40.22155"/><rect class="cls-3" x="98.5" y="354" width="207" height="175" rx="12" ry="12"/><rect class="cls-3" x="354.5" y="354" width="207" height="175" rx="12" ry="12"/><path d="M468.50928,478.54492H463.439v-3.251h13.83252v3.251h-5.04395v14.0918h-3.71826Z" transform="translate(-68 -57)"/><path d="M482.70508,479.7666c3.74414,0,6.29248,2.80762,6.29248,6.916v.72852h-9.33447a3.38438,3.38438,0,0,0,3.61426,2.91211,5.13971,5.13971,0,0,0,3.354-1.248l1.45605,2.13184a7.83062,7.83062,0,0,1-5.17432,1.74219,6.59214,6.59214,0,1,1-.208-13.18262Zm-3.09375,5.4082h6.188a2.90849,2.90849,0,0,0-3.09424-2.78223A3.01783,3.01783,0,0,0,479.61133,485.1748Z" transform="translate(-68 -57)"/><path d="M506.96387,484.707c0-1.16992-.52051-2.002-1.87207-2.002a3.33264,3.33264,0,0,0-2.60059,1.45605v8.47559h-3.32812V484.707c0-1.16992-.51953-2.002-1.87207-2.002a3.36878,3.36878,0,0,0-2.59961,1.48145v8.4502h-3.30225V480.07813h3.30225v1.63867a5.49165,5.49165,0,0,1,4.10791-1.9502,3.323,3.323,0,0,1,3.48389,2.28809,5.32965,5.32965,0,0,1,4.31641-2.28809c2.314,0,3.69238,1.22168,3.69238,3.7959v9.07422h-3.32812Z" transform="translate(-68 -57)"/><path d="M513.541,497.4209V480.07813h3.30176V481.665a4.8511,4.8511,0,0,1,3.87451-1.89844c3.22412,0,5.564,2.3916,5.564,6.57813s-2.33984,6.60449-5.564,6.60449a4.79986,4.79986,0,0,1-3.87451-1.92383v6.39551Zm6.13623-14.71582a3.70088,3.70088,0,0,0-2.83447,1.42969v4.44629a3.782,3.782,0,0,0,2.83447,1.42969c1.89795,0,3.17188-1.48145,3.17188-3.666C522.84912,484.18652,521.5752,482.70508,519.67725,482.70508Z" transform="translate(-68 -57)"/><path d="M527.94482,486.34473a6.64342,6.64342,0,1,1,6.63037,6.60449A6.36031,6.36031,0,0,1,527.94482,486.34473Zm9.85449,0c0-1.9502-1.17041-3.63965-3.22412-3.63965-2.0542,0-3.19824,1.68945-3.19824,3.63965,0,1.97656,1.144,3.666,3.19824,3.666C536.62891,490.01074,537.79932,488.32129,537.79932,486.34473Z" transform="translate(-68 -57)"/><path d="M543.6748,480.07813h3.30176v1.7168a5.37279,5.37279,0,0,1,4.00439-2.002v3.22363a4.06122,4.06122,0,0,0-4.00439,1.32617v8.29395H543.6748Z" transform="translate(-68 -57)"/><path d="M560.57471,491.33691a5.19761,5.19761,0,0,1-3.978,1.6123,4.1841,4.1841,0,0,1-4.36816-4.16016c0-2.93848,2.36621-4.00391,4.36816-4.00391a5.07621,5.07621,0,0,1,3.978,1.5332v-1.74121c0-1.27441-1.0918-2.10645-2.75586-2.10645a5.28489,5.28489,0,0,0-3.6665,1.48242l-1.248-2.21094a8.2406,8.2406,0,0,1,5.48633-1.97559c2.86035,0,5.48633,1.14355,5.48633,4.75781v8.1123h-3.30225Zm0-3.27637a3.30366,3.30366,0,0,0-2.65186-1.0918c-1.30029,0-2.36621.67578-2.36621,1.89844,0,1.16992,1.06592,1.8457,2.36621,1.8457a3.30366,3.30366,0,0,0,2.65186-1.0918Z" transform="translate(-68 -57)"/><path d="M567.15283,480.07813h3.30225v1.7168a5.371,5.371,0,0,1,4.00391-2.002v3.22363a4.06037,4.06037,0,0,0-4.00391,1.32617v8.29395h-3.30225Z" transform="translate(-68 -57)"/><path d="M577.604,494.79492a1.6652,1.6652,0,0,0,1.74219-.91016l.46826-1.06543-5.09668-12.74121h3.53613l3.27637,8.73633,3.27637-8.73633h3.562l-5.90234,14.61328c-.936,2.36621-2.6001,2.99023-4.7583,3.042a8.98451,8.98451,0,0,1-1.6377-.18262l.49365-2.96387A2.85626,2.85626,0,0,0,577.604,494.79492Z" transform="translate(-68 -57)"/><path d="M444.79834,514.02539a4.87553,4.87553,0,0,1-3.87451,1.92383c-3.17187,0-5.564-2.39258-5.564-6.57813,0-4.1084,2.36621-6.60449,5.564-6.60449a4.83856,4.83856,0,0,1,3.87451,1.92383v-6.39648h3.32813v17.34277h-3.32812Zm0-6.89063a3.59316,3.59316,0,0,0-2.86035-1.42969c-1.87207,0-3.17187,1.48145-3.17187,3.666,0,2.1582,1.2998,3.63965,3.17188,3.63965a3.59316,3.59316,0,0,0,2.86035-1.42969Z" transform="translate(-68 -57)"/><path d="M451.06348,499.49023A1.97607,1.97607,0,1,1,453.04,501.4668,1.99195,1.99195,0,0,1,451.06348,499.49023Zm.33838,3.58789h3.30225v12.55859h-3.30225Z" transform="translate(-68 -57)"/><path d="M457.97949,503.07813h3.30176v1.7168a5.37279,5.37279,0,0,1,4.00439-2.002v3.22363a4.06122,4.06122,0,0,0-4.00439,1.32617v8.29395h-3.30176Z" transform="translate(-68 -57)"/><path d="M473.0332,502.7666c3.74414,0,6.29248,2.80762,6.29248,6.916v.72852h-9.33447a3.38438,3.38438,0,0,0,3.61426,2.91211,5.13971,5.13971,0,0,0,3.354-1.248l1.45605,2.13184a7.83062,7.83062,0,0,1-5.17432,1.74219,6.59214,6.59214,0,1,1-.208-13.18262Zm-3.09375,5.4082h6.188a2.90849,2.90849,0,0,0-3.09424-2.78223A3.01783,3.01783,0,0,0,469.93945,508.1748Z" transform="translate(-68 -57)"/><path d="M487.56738,502.7666a5.84518,5.84518,0,0,1,4.96631,2.26172l-2.1582,2.02832a3.04588,3.04588,0,0,0-2.65186-1.35156,3.66176,3.66176,0,0,0,0,7.30566,3.16943,3.16943,0,0,0,2.65186-1.35156l2.1582,2.002a5.78844,5.78844,0,0,1-4.96631,2.28809,6.59163,6.59163,0,1,1,0-13.18262Z" transform="translate(-68 -57)"/><path d="M495.34082,512.5166v-6.55176h-2.08008v-2.88672h2.08008v-3.43164h3.32813v3.43164h2.54785v2.88672h-2.54785v5.668c0,.78027.416,1.37793,1.144,1.37793a1.80028,1.80028,0,0,0,1.144-.36426l.70215,2.49609a4.07463,4.07463,0,0,1-2.75635.80664C496.58887,515.94922,495.34082,514.75293,495.34082,512.5166Z" transform="translate(-68 -57)"/><path d="M502.67285,509.34473a6.64342,6.64342,0,1,1,6.63037,6.60449A6.36031,6.36031,0,0,1,502.67285,509.34473Zm9.85449,0c0-1.9502-1.16992-3.63965-3.22412-3.63965s-3.19824,1.68945-3.19824,3.63965c0,1.97656,1.144,3.666,3.19824,3.666S512.52734,511.32129,512.52734,509.34473Z" transform="translate(-68 -57)"/><path d="M518.40283,503.07813h3.30225v1.7168a5.371,5.371,0,0,1,4.00391-2.002v3.22363a4.06037,4.06037,0,0,0-4.00391,1.32617v8.29395h-3.30225Z" transform="translate(-68 -57)"/><path d="M527.42383,499.49023a1.97607,1.97607,0,1,1,1.97656,1.97656A1.99195,1.99195,0,0,1,527.42383,499.49023Zm.33838,3.58789h3.30225v12.55859h-3.30225Z" transform="translate(-68 -57)"/><path d="M540.03418,502.7666c3.74414,0,6.292,2.80762,6.292,6.916v.72852H536.9917a3.38405,3.38405,0,0,0,3.61426,2.91211,5.13874,5.13874,0,0,0,3.354-1.248L545.416,514.207a7.8302,7.8302,0,0,1-5.17383,1.74219,6.59214,6.59214,0,1,1-.208-13.18262Zm-3.09424,5.4082h6.188a2.909,2.909,0,0,0-3.09375-2.78223A3.018,3.018,0,0,0,536.93994,508.1748Z" transform="translate(-68 -57)"/><path d="M549.05566,511.68457a7.187,7.187,0,0,0,4.34229,1.7168c1.43018,0,2.106-.49414,2.106-1.27441,0-.88379-1.0918-1.19629-2.522-1.48242-2.1582-.416-4.94043-.93555-4.94043-3.92578,0-2.10645,1.84619-3.95215,5.14844-3.95215a8.02005,8.02005,0,0,1,5.06982,1.71582l-1.32568,2.2627a5.2961,5.2961,0,0,0-3.71826-1.45605c-1.19629,0-1.97607.44141-1.97607,1.16992,0,.7793.98779,1.06543,2.39209,1.35156,2.1582.416,5.04395.98828,5.04395,4.1084,0,2.28809-1.94971,4.03027-5.43408,4.03027a8.456,8.456,0,0,1-5.61621-1.9502Z" transform="translate(-68 -57)"/><path d="M565.64355,497.77441h2.39209l-6.16211,18.38281h-2.39209Z" transform="translate(-68 -57)"/><path d="M570.40137,505.96484h-2.08008v-2.88672h2.08008v-.67578a4.04818,4.04818,0,0,1,4.23828-4.36816,5.331,5.331,0,0,1,2.3916.52051l-.67578,2.3916a1.85354,1.85354,0,0,0-1.06592-.31152c-.936,0-1.56006.624-1.56006,1.76758v.67578h2.54785v2.88672h-2.54785v9.67188h-3.32812Zm7.436-6.47461a1.97607,1.97607,0,1,1,1.97607,1.97656A1.99185,1.99185,0,0,1,577.8374,499.49023Zm.33838,3.58789h3.30176v12.55859h-3.30176Z" transform="translate(-68 -57)"/><path d="M584.75293,498.29395h3.30176v17.34277h-3.30176Z" transform="translate(-68 -57)"/><path d="M597.02441,502.7666c3.74414,0,6.29248,2.80762,6.29248,6.916v.72852h-9.33447a3.38438,3.38438,0,0,0,3.61426,2.91211,5.13971,5.13971,0,0,0,3.354-1.248l1.45605,2.13184a7.83062,7.83062,0,0,1-5.17432,1.74219,6.59214,6.59214,0,1,1-.208-13.18262Zm-3.09375,5.4082h6.188a2.90849,2.90849,0,0,0-3.09424-2.78223A3.01783,3.01783,0,0,0,593.93066,508.1748Z" transform="translate(-68 -57)"/><path d="M606.04639,511.68457a7.187,7.187,0,0,0,4.34229,1.7168c1.42969,0,2.106-.49414,2.106-1.27441,0-.88379-1.09229-1.19629-2.522-1.48242-2.1582-.416-4.94043-.93555-4.94043-3.92578,0-2.10645,1.84619-3.95215,5.14844-3.95215a8.02149,8.02149,0,0,1,5.07031,1.71582l-1.32617,2.2627a5.29519,5.29519,0,0,0-3.71826-1.45605c-1.1958,0-1.97607.44141-1.97607,1.16992,0,.7793.98828,1.06543,2.39209,1.35156,2.1582.416,5.04443.98828,5.04443,4.1084,0,2.28809-1.9502,4.03027-5.43457,4.03027a8.456,8.456,0,0,1-5.61621-1.9502Z" transform="translate(-68 -57)"/><rect class="cls-3" x="96.5" y="137" width="207" height="175" rx="12" ry="12"/><rect class="cls-3" x="352.5" y="138" width="207" height="175" rx="12" ry="12"/><rect class="cls-3" x="608.5" y="136" width="207" height="175" rx="12" ry="12"/><path d="M218.002,257.50879a7.603,7.603,0,0,0,5.5127,2.34033c2.02783,0,3.01563-.96191,3.01563-1.9502,0-1.2998-1.50781-1.7417-3.50977-2.21-2.834-.6499-6.47461-1.43018-6.47461-5.3042,0-2.88623,2.49609-5.22607,6.57861-5.22607a9.64811,9.64811,0,0,1,6.76025,2.418l-2.0542,2.7041a7.39639,7.39639,0,0,0-4.96631-1.89795c-1.66406,0-2.54785.728-2.54785,1.76807,0,1.16992,1.45605,1.53369,3.458,2.002,2.86035.6499,6.5,1.5083,6.5,5.356,0,3.17236-2.26172,5.56445-6.94189,5.56445A9.8878,9.8878,0,0,1,216,260.31738Z" transform="translate(-68 -57)"/><path d="M238.38574,249.89063c3.74414,0,6.29248,2.80811,6.29248,6.9165v.728h-9.33447a3.38438,3.38438,0,0,0,3.61426,2.91211,5.13714,5.13714,0,0,0,3.354-1.248l1.45605,2.13184a7.828,7.828,0,0,1-5.17432,1.74219,6.59214,6.59214,0,1,1-.208-13.18262Zm-3.09375,5.4082h6.188a2.90878,2.90878,0,0,0-3.09424-2.78223A3.01783,3.01783,0,0,0,235.292,255.29883Z" transform="translate(-68 -57)"/><path d="M255.5459,255.16895a2.03738,2.03738,0,0,0-2.314-2.33984,3.57438,3.57438,0,0,0-2.85986,1.48193v8.4502h-3.30225V250.20264h3.30225v1.63818a5.74979,5.74979,0,0,1,4.394-1.9502c2.75586,0,4.082,1.56006,4.082,4.00439v8.86621H255.5459Z" transform="translate(-68 -57)"/><path d="M262.46143,258.80908a7.18961,7.18961,0,0,0,4.34229,1.71631c1.42969,0,2.106-.49414,2.106-1.27441,0-.88379-1.09229-1.1958-2.522-1.48193-2.1582-.416-4.94043-.936-4.94043-3.92627,0-2.106,1.84619-3.95215,5.14844-3.95215a8.02169,8.02169,0,0,1,5.07031,1.71631l-1.32617,2.26221a5.29732,5.29732,0,0,0-3.71826-1.45605c-1.1958,0-1.97607.44189-1.97607,1.16992,0,.77979.98828,1.06592,2.39209,1.35205,2.1582.416,5.04443.98779,5.04443,4.10791,0,2.28809-1.9502,4.03027-5.43457,4.03027a8.45348,8.45348,0,0,1-5.61621-1.9502Z" transform="translate(-68 -57)"/><path d="M274.1875,246.61475a1.97607,1.97607,0,1,1,1.97559,1.97607A1.99153,1.99153,0,0,1,274.1875,246.61475Zm.33789,3.58789h3.30176v12.55859h-3.30176Z" transform="translate(-68 -57)"/><path d="M281.75293,259.64111v-6.55225h-2.08008v-2.88623h2.08008v-3.43213h3.32813v3.43213h2.54785v2.88623h-2.54785v5.668c0,.78027.416,1.37842,1.144,1.37842a1.80318,1.80318,0,0,0,1.144-.36426l.70215,2.49609a4.07747,4.07747,0,0,1-2.75635.80615C283.001,263.07324,281.75293,261.877,281.75293,259.64111Z" transform="translate(-68 -57)"/><path d="M289.55273,246.61475a1.97607,1.97607,0,1,1,1.97656,1.97607A1.992,1.992,0,0,1,289.55273,246.61475Zm.33838,3.58789h3.30225v12.55859h-3.30225Z" transform="translate(-68 -57)"/><path d="M294.6748,250.20264h3.53613l3.27588,8.73633,3.27588-8.73633h3.5625l-5.04443,12.55859h-3.562Z" transform="translate(-68 -57)"/><path d="M315.5,249.89063c3.74414,0,6.29248,2.80811,6.29248,6.9165v.728H312.458a3.38438,3.38438,0,0,0,3.61426,2.91211,5.13714,5.13714,0,0,0,3.354-1.248l1.45605,2.13184a7.828,7.828,0,0,1-5.17432,1.74219,6.59214,6.59214,0,1,1-.208-13.18262Zm-3.09375,5.4082h6.188A2.90878,2.90878,0,0,0,315.5,252.5166,3.01783,3.01783,0,0,0,312.40625,255.29883Z" transform="translate(-68 -57)"/><path d="M219.627,290.54541V273.20264h3.30176v1.58643a4.85251,4.85251,0,0,1,3.87451-1.89844c3.22412,0,5.564,2.39209,5.564,6.57813,0,4.18652-2.33984,6.60449-5.564,6.60449a4.79986,4.79986,0,0,1-3.87451-1.92383v6.396Zm6.13623-14.71631a3.70088,3.70088,0,0,0-2.83447,1.42969v4.44629a3.78242,3.78242,0,0,0,2.83447,1.43018c1.89795,0,3.17188-1.48193,3.17188-3.6665C228.93506,277.311,227.66113,275.8291,225.76318,275.8291Z" transform="translate(-68 -57)"/><path d="M240.53125,272.89063c3.74414,0,6.292,2.80811,6.292,6.9165v.728h-9.33447a3.38405,3.38405,0,0,0,3.61426,2.91211,5.13617,5.13617,0,0,0,3.354-1.248l1.45605,2.13184a7.82761,7.82761,0,0,1-5.17383,1.74219,6.59214,6.59214,0,1,1-.208-13.18262Zm-3.09424,5.4082h6.188a2.90927,2.90927,0,0,0-3.09375-2.78223A3.018,3.018,0,0,0,237.437,278.29883Z" transform="translate(-68 -57)"/><path d="M249.21484,273.20264h3.30176v1.71631a5.37279,5.37279,0,0,1,4.00439-2.002v3.22363a4.06122,4.06122,0,0,0-4.00439,1.32617v8.29443h-3.30176Z" transform="translate(-68 -57)"/><path d="M258.9126,281.80908a7.18961,7.18961,0,0,0,4.34229,1.71631c1.42969,0,2.106-.49414,2.106-1.27441,0-.88379-1.09229-1.1958-2.522-1.48193-2.1582-.416-4.94043-.936-4.94043-3.92627,0-2.106,1.84619-3.95215,5.14844-3.95215a8.02169,8.02169,0,0,1,5.07031,1.71631l-1.32617,2.26221a5.29731,5.29731,0,0,0-3.71826-1.45605c-1.1958,0-1.97607.44189-1.97607,1.16992,0,.77979.98828,1.06592,2.39209,1.35205,2.1582.416,5.04443.98779,5.04443,4.10791,0,2.28809-1.9502,4.03027-5.43457,4.03027a8.45348,8.45348,0,0,1-5.61621-1.9502Z" transform="translate(-68 -57)"/><path d="M270.17041,279.46875a6.64342,6.64342,0,1,1,6.63037,6.60449A6.36058,6.36058,0,0,1,270.17041,279.46875Zm9.85449,0c0-1.94971-1.17041-3.63965-3.22412-3.63965-2.0542,0-3.19824,1.68994-3.19824,3.63965,0,1.97656,1.144,3.6665,3.19824,3.6665C278.85449,283.13525,280.0249,281.44531,280.0249,279.46875Z" transform="translate(-68 -57)"/><path d="M294.37646,278.16895a2.0372,2.0372,0,0,0-2.314-2.33984,3.57686,3.57686,0,0,0-2.86035,1.48193v8.4502h-3.30176V273.20264h3.30176v1.63818a5.75175,5.75175,0,0,1,4.39453-1.9502c2.75586,0,4.082,1.56006,4.082,4.00439v8.86621h-3.30225Z" transform="translate(-68 -57)"/><path d="M308.49414,284.46094a5.19589,5.19589,0,0,1-3.978,1.6123,4.18379,4.18379,0,0,1-4.36816-4.16016c0-2.938,2.36621-4.00391,4.36816-4.00391a5.07479,5.07479,0,0,1,3.978,1.53369v-1.7417c0-1.27441-1.0918-2.10645-2.75586-2.10645a5.28288,5.28288,0,0,0-3.666,1.48242l-1.248-2.21045a8.23644,8.23644,0,0,1,5.48584-1.97607c2.86035,0,5.48633,1.144,5.48633,4.7583v8.1123h-3.30225Zm0-3.27588a3.30244,3.30244,0,0,0-2.65186-1.09229c-1.30029,0-2.36621.67627-2.36621,1.89844,0,1.16992,1.06592,1.8457,2.36621,1.8457a3.30213,3.30213,0,0,0,2.65186-1.0918Z" transform="translate(-68 -57)"/><path d="M315.07227,268.41846H318.374v17.34277h-3.30176Z" transform="translate(-68 -57)"/><path d="M202.28516,292.61475a1.97607,1.97607,0,1,1,1.97559,1.97607A1.99153,1.99153,0,0,1,202.28516,292.61475Zm.33789,3.58789h3.30176v12.55859H202.623Z" transform="translate(-68 -57)"/><path d="M217.67676,301.16895a2.03738,2.03738,0,0,0-2.314-2.33984,3.57438,3.57438,0,0,0-2.85986,1.48193v8.4502h-3.30225V296.20264h3.30225v1.63818a5.74979,5.74979,0,0,1,4.394-1.9502c2.75586,0,4.082,1.56006,4.082,4.00439v8.86621h-3.30225Z" transform="translate(-68 -57)"/><path d="M224.98242,299.08887h-2.08008v-2.88623h2.08008v-.67578a4.04792,4.04792,0,0,1,4.23828-4.36816,5.33774,5.33774,0,0,1,2.3916.52l-.67578,2.33984a2.0298,2.0298,0,0,0-1.06592-.25977c-.936,0-1.56006.624-1.56006,1.81982v.624h2.54785v2.88623h-2.54785v9.67236h-3.32812Z" transform="translate(-68 -57)"/><path d="M231.9502,302.46875a6.64342,6.64342,0,1,1,6.63037,6.60449A6.36058,6.36058,0,0,1,231.9502,302.46875Zm9.85449,0c0-1.94971-1.16992-3.63965-3.22412-3.63965s-3.19824,1.68994-3.19824,3.63965c0,1.97656,1.144,3.6665,3.19824,3.6665S241.80469,304.44531,241.80469,302.46875Z" transform="translate(-68 -57)"/><path d="M247.68018,296.20264h3.30225v1.71631a5.37094,5.37094,0,0,1,4.00391-2.002v3.22363a4.06037,4.06037,0,0,0-4.00391,1.32617v8.29443h-3.30225Z" transform="translate(-68 -57)"/><path d="M272.61426,300.83105c0-1.16992-.52051-2.002-1.87207-2.002a3.334,3.334,0,0,0-2.60059,1.45605v8.47607h-3.32812v-7.93018c0-1.16992-.51953-2.002-1.87207-2.002a3.36921,3.36921,0,0,0-2.59961,1.48193v8.4502h-3.30225V296.20264h3.30225v1.63818a5.49165,5.49165,0,0,1,4.10791-1.9502,3.323,3.323,0,0,1,3.48389,2.28809,5.33093,5.33093,0,0,1,4.31641-2.28809c2.314,0,3.69238,1.22217,3.69238,3.79639v9.07422h-3.32812Z" transform="translate(-68 -57)"/><path d="M286.73145,307.46094a5.19589,5.19589,0,0,1-3.978,1.6123,4.18379,4.18379,0,0,1-4.36816-4.16016c0-2.938,2.36621-4.00391,4.36816-4.00391a5.07479,5.07479,0,0,1,3.978,1.53369v-1.7417c0-1.27441-1.0918-2.10645-2.75586-2.10645a5.28288,5.28288,0,0,0-3.666,1.48242l-1.248-2.21045a8.23644,8.23644,0,0,1,5.48584-1.97607c2.86035,0,5.48633,1.144,5.48633,4.7583v8.1123h-3.30225Zm0-3.27588a3.30244,3.30244,0,0,0-2.65186-1.09229c-1.30029,0-2.36621.67627-2.36621,1.89844,0,1.16992,1.06592,1.8457,2.36621,1.8457a3.30213,3.30213,0,0,0,2.65186-1.0918Z" transform="translate(-68 -57)"/><path d="M293.95947,305.64111v-6.55225h-2.08008v-2.88623h2.08008v-3.43213h3.32813v3.43213h2.54834v2.88623H297.2876v5.668c0,.78027.416,1.37842,1.144,1.37842a1.80318,1.80318,0,0,0,1.144-.36426l.70215,2.49609a4.07842,4.07842,0,0,1-2.75635.80615C295.20752,309.07324,293.95947,307.877,293.95947,305.64111Z" transform="translate(-68 -57)"/><path d="M301.75977,292.61475a1.97607,1.97607,0,1,1,1.97559,1.97607A1.99153,1.99153,0,0,1,301.75977,292.61475Zm.33789,3.58789h3.30176v12.55859h-3.30176Z" transform="translate(-68 -57)"/><path d="M307.86914,302.46875a6.64342,6.64342,0,1,1,6.63037,6.60449A6.36058,6.36058,0,0,1,307.86914,302.46875Zm9.85449,0c0-1.94971-1.16992-3.63965-3.22412-3.63965s-3.19824,1.68994-3.19824,3.63965c0,1.97656,1.144,3.6665,3.19824,3.6665S317.72363,304.44531,317.72363,302.46875Z" transform="translate(-68 -57)"/><path d="M332.0752,301.16895a2.03738,2.03738,0,0,0-2.314-2.33984,3.57438,3.57438,0,0,0-2.85986,1.48193v8.4502h-3.30225V296.20264h3.30225v1.63818a5.74979,5.74979,0,0,1,4.394-1.9502c2.75586,0,4.082,1.56006,4.082,4.00439v8.86621H332.0752Z" transform="translate(-68 -57)"/><path d="M444.001,257.999h3.69238V275.3418H444.001Z" transform="translate(-68 -57)"/><path d="M459.52295,267.74951a2.03755,2.03755,0,0,0-2.314-2.34033,3.57855,3.57855,0,0,0-2.86035,1.48242v8.4502h-3.30176V262.7832h3.30176v1.63818a5.75175,5.75175,0,0,1,4.39453-1.9502c2.75586,0,4.082,1.56006,4.082,4.00439v8.86621h-3.30225Z" transform="translate(-68 -57)"/><path d="M473.64063,274.042a5.19731,5.19731,0,0,1-3.978,1.61182,4.18379,4.18379,0,0,1-4.36816-4.16016c0-2.938,2.36621-4.00439,4.36816-4.00439a5.07671,5.07671,0,0,1,3.978,1.53418v-1.74219c0-1.27393-1.0918-2.106-2.75586-2.106a5.28453,5.28453,0,0,0-3.666,1.48193l-1.248-2.21a8.23644,8.23644,0,0,1,5.48584-1.97607c2.86035,0,5.48633,1.144,5.48633,4.7583v8.1123h-3.30225Zm0-3.27637a3.30213,3.30213,0,0,0-2.65186-1.0918c-1.30029,0-2.36621.67578-2.36621,1.89795,0,1.16992,1.06592,1.84619,2.36621,1.84619a3.30244,3.30244,0,0,0,2.65186-1.09229Z" transform="translate(-68 -57)"/><path d="M480.21875,280.126V262.7832h3.30176v1.58594a4.85346,4.85346,0,0,1,3.87451-1.89795c3.22412,0,5.564,2.39209,5.564,6.57861,0,4.186-2.33984,6.604-5.564,6.604a4.799,4.799,0,0,1-3.87451-1.92432V280.126Zm6.13623-14.7168a3.6998,3.6998,0,0,0-2.83447,1.43018v4.44629a3.784,3.784,0,0,0,2.83447,1.43018c1.89795,0,3.17188-1.48242,3.17188-3.666C489.52686,266.8916,488.25293,265.40918,486.355,265.40918Z" transform="translate(-68 -57)"/><path d="M495.42871,280.126V262.7832h3.30176v1.58594a4.85346,4.85346,0,0,1,3.87451-1.89795c3.22412,0,5.564,2.39209,5.564,6.57861,0,4.186-2.33984,6.604-5.564,6.604a4.799,4.799,0,0,1-3.87451-1.92432V280.126Zm6.13623-14.7168a3.6998,3.6998,0,0,0-2.83447,1.43018v4.44629a3.784,3.784,0,0,0,2.83447,1.43018c1.89795,0,3.17188-1.48242,3.17188-3.666C504.73682,266.8916,503.46289,265.40918,501.56494,265.40918Z" transform="translate(-68 -57)"/><path d="M510.63867,262.7832h3.30176v1.71631a5.37326,5.37326,0,0,1,4.00439-2.00244v3.22461a4.15962,4.15962,0,0,0-.91016-.10449,4.20783,4.20783,0,0,0-3.09424,1.43018v8.29443h-3.30176Z" transform="translate(-68 -57)"/><path d="M519.19238,269.0498a6.64343,6.64343,0,1,1,6.63037,6.604A6.3607,6.3607,0,0,1,519.19238,269.0498Zm9.85449,0c0-1.9502-1.16992-3.64062-3.22412-3.64062s-3.19824,1.69043-3.19824,3.64063c0,1.97559,1.144,3.666,3.19824,3.666S529.04688,271.02539,529.04688,269.0498Z" transform="translate(-68 -57)"/><path d="M534.92236,280.126V262.7832h3.30225v1.58594a4.85184,4.85184,0,0,1,3.874-1.89795c3.22412,0,5.564,2.39209,5.564,6.57861,0,4.186-2.33984,6.604-5.564,6.604a4.79677,4.79677,0,0,1-3.874-1.92432V280.126Zm6.13623-14.7168a3.69724,3.69724,0,0,0-2.834,1.43018v4.44629a3.78134,3.78134,0,0,0,2.834,1.43018c1.89795,0,3.17188-1.48242,3.17188-3.666C544.23047,266.8916,542.95654,265.40918,541.05859,265.40918Z" transform="translate(-68 -57)"/><path d="M550.13232,262.7832h3.30225v1.71631a5.37141,5.37141,0,0,1,4.00391-2.00244v3.22461a4.15962,4.15962,0,0,0-.91016-.10449,4.2059,4.2059,0,0,0-3.09375,1.43018v8.29443h-3.30225Z" transform="translate(-68 -57)"/><path d="M559.15332,259.19531a1.97607,1.97607,0,1,1,1.97656,1.97607A1.992,1.992,0,0,1,559.15332,259.19531Zm.33838,3.58789h3.30225V275.3418H559.4917Z" transform="translate(-68 -57)"/><path d="M573.60938,274.042a5.19731,5.19731,0,0,1-3.978,1.61182,4.18379,4.18379,0,0,1-4.36816-4.16016c0-2.938,2.36621-4.00439,4.36816-4.00439a5.07671,5.07671,0,0,1,3.978,1.53418v-1.74219c0-1.27393-1.0918-2.106-2.75586-2.106a5.28453,5.28453,0,0,0-3.666,1.48193l-1.248-2.21a8.23644,8.23644,0,0,1,5.48584-1.97607c2.86035,0,5.48633,1.144,5.48633,4.7583v8.1123h-3.30225Zm0-3.27637a3.30213,3.30213,0,0,0-2.65186-1.0918c-1.30029,0-2.36621.67578-2.36621,1.89795,0,1.16992,1.06592,1.84619,2.36621,1.84619a3.30244,3.30244,0,0,0,2.65186-1.09229Z" transform="translate(-68 -57)"/><path d="M580.8374,272.22168v-6.55225h-2.08008V262.7832h2.08008v-3.43213h3.32813v3.43213h2.54834v2.88623h-2.54834v5.66846c0,.77979.416,1.37793,1.144,1.37793a1.80318,1.80318,0,0,0,1.144-.36426l.70215,2.49609a4.07582,4.07582,0,0,1-2.75635.80615C582.08545,275.65381,580.8374,274.458,580.8374,272.22168Z" transform="translate(-68 -57)"/><path d="M594.66992,262.47119c3.74414,0,6.292,2.80811,6.292,6.9165v.728h-9.33447a3.38405,3.38405,0,0,0,3.61426,2.91211,5.13617,5.13617,0,0,0,3.354-1.248l1.45605,2.13184a7.82761,7.82761,0,0,1-5.17383,1.74219,6.59214,6.59214,0,1,1-.208-13.18262Zm-3.09424,5.4082h6.188a2.90892,2.90892,0,0,0-3.09375-2.78174A3.0176,3.0176,0,0,0,591.57568,267.87939Z" transform="translate(-68 -57)"/><path d="M484.50879,285.47119a5.8441,5.8441,0,0,1,4.96631,2.26221l-2.1582,2.02832a3.04556,3.04556,0,0,0-2.65186-1.35254,3.66228,3.66228,0,0,0,0,7.30664,3.16984,3.16984,0,0,0,2.65186-1.35205l2.1582,2.002a5.78844,5.78844,0,0,1-4.96631,2.28809,6.59163,6.59163,0,1,1,0-13.18262Z" transform="translate(-68 -57)"/><path d="M490.82617,292.0498a6.64343,6.64343,0,1,1,6.63037,6.604A6.3607,6.3607,0,0,1,490.82617,292.0498Zm9.85449,0c0-1.9502-1.16992-3.64062-3.22412-3.64062s-3.19824,1.69043-3.19824,3.64063c0,1.97559,1.144,3.666,3.19824,3.666S500.68066,294.02539,500.68066,292.0498Z" transform="translate(-68 -57)"/><path d="M515.03223,290.74951a2.03773,2.03773,0,0,0-2.314-2.34033,3.57607,3.57607,0,0,0-2.85986,1.48242v8.4502h-3.30225V285.7832h3.30225v1.63818a5.74979,5.74979,0,0,1,4.394-1.9502c2.75586,0,4.082,1.56006,4.082,4.00439v8.86621h-3.30225Z" transform="translate(-68 -57)"/><path d="M522.25977,295.22168v-6.55225h-2.08008V285.7832h2.08008v-3.43213h3.32813v3.43213h2.54785v2.88623h-2.54785v5.66846c0,.77979.416,1.37793,1.144,1.37793a1.80318,1.80318,0,0,0,1.144-.36426l.70215,2.49609a4.07487,4.07487,0,0,1-2.75635.80615C523.50781,298.65381,522.25977,297.458,522.25977,295.22168Z" transform="translate(-68 -57)"/><path d="M536.0918,285.47119c3.74414,0,6.29248,2.80811,6.29248,6.9165v.728H533.0498a3.38438,3.38438,0,0,0,3.61426,2.91211,5.13714,5.13714,0,0,0,3.354-1.248l1.45605,2.13184a7.828,7.828,0,0,1-5.17432,1.74219,6.59214,6.59214,0,1,1-.208-13.18262Zm-3.09375,5.4082h6.188a2.90843,2.90843,0,0,0-3.09424-2.78174A3.01746,3.01746,0,0,0,532.998,290.87939Z" transform="translate(-68 -57)"/><path d="M553.252,290.74951a2.03773,2.03773,0,0,0-2.314-2.34033,3.57607,3.57607,0,0,0-2.85986,1.48242v8.4502h-3.30225V285.7832h3.30225v1.63818a5.74979,5.74979,0,0,1,4.394-1.9502c2.75586,0,4.082,1.56006,4.082,4.00439v8.86621H553.252Z" transform="translate(-68 -57)"/><path d="M560.47949,295.22168v-6.55225h-2.08008V285.7832h2.08008v-3.43213h3.32813v3.43213h2.54785v2.88623h-2.54785v5.66846c0,.77979.416,1.37793,1.144,1.37793a1.80318,1.80318,0,0,0,1.144-.36426l.70215,2.49609a4.07487,4.07487,0,0,1-2.75635.80615C561.72754,298.65381,560.47949,297.458,560.47949,295.22168Z" transform="translate(-68 -57)"/><path d="M734.19043,255.999h3.74414v10.29639c0,2.41846,1.32617,4.08252,4.03027,4.08252,2.65234,0,3.97852-1.66406,3.97852-4.08252V255.999h3.74414v10.40039c0,4.31641-2.47021,7.25439-7.72266,7.25439-5.3042,0-7.77441-2.96436-7.77441-7.228Z" transform="translate(-68 -57)"/><path d="M761.5166,265.74951a2.03773,2.03773,0,0,0-2.314-2.34033,3.57607,3.57607,0,0,0-2.85986,1.48242v8.4502h-3.30225V260.7832h3.30225v1.63818a5.74979,5.74979,0,0,1,4.394-1.9502c2.75586,0,4.082,1.56006,4.082,4.00439v8.86621H761.5166Z" transform="translate(-68 -57)"/><path d="M776.57031,271.75586a5.8779,5.8779,0,0,1-4.41992,1.89795c-2.75635,0-4.05615-1.5083-4.05615-3.95215V260.7832h3.30225v7.61816a2.01909,2.01909,0,0,0,2.314,2.31445,3.69591,3.69591,0,0,0,2.85986-1.43018V260.7832h3.30225V273.3418h-3.30225Z" transform="translate(-68 -57)"/><path d="M783.48584,269.38965a7.18924,7.18924,0,0,0,4.34229,1.71582c1.42969,0,2.106-.49365,2.106-1.27393,0-.88379-1.09229-1.1958-2.522-1.48193-2.1582-.416-4.94043-.936-4.94043-3.92627,0-2.106,1.84619-3.95215,5.14844-3.95215a8.02169,8.02169,0,0,1,5.07031,1.71631l-1.32617,2.26172a5.29944,5.29944,0,0,0-3.71826-1.45605c-1.1958,0-1.97607.44238-1.97607,1.17041,0,.77979.98828,1.06592,2.39209,1.35205,2.1582.416,5.04443.98779,5.04443,4.10791,0,2.28809-1.9502,4.03027-5.43457,4.03027a8.45348,8.45348,0,0,1-5.61621-1.9502Z" transform="translate(-68 -57)"/><path d="M801.24414,260.47119c3.74414,0,6.292,2.80811,6.292,6.9165v.728h-9.33447a3.38405,3.38405,0,0,0,3.61426,2.91211,5.13617,5.13617,0,0,0,3.354-1.248l1.45605,2.13184a7.82761,7.82761,0,0,1-5.17383,1.74219,6.59214,6.59214,0,1,1-.208-13.18262Zm-3.09424,5.4082h6.188a2.90892,2.90892,0,0,0-3.09375-2.78174A3.0176,3.0176,0,0,0,798.1499,265.87939Z" transform="translate(-68 -57)"/><path d="M818.56006,271.72949a4.876,4.876,0,0,1-3.87451,1.92432c-3.17187,0-5.564-2.39209-5.564-6.57812,0-4.1084,2.36621-6.60449,5.564-6.60449a4.83626,4.83626,0,0,1,3.87451,1.92432V255.999h3.32813V273.3418h-3.32812Zm0-6.89014a3.59357,3.59357,0,0,0-2.86035-1.43018c-1.87207,0-3.17187,1.48242-3.17187,3.6665,0,2.15771,1.2998,3.64014,3.17188,3.64014a3.59357,3.59357,0,0,0,2.86035-1.43018Z" transform="translate(-68 -57)"/><path d="M708.34717,292.38965a7.18924,7.18924,0,0,0,4.34229,1.71582c1.42969,0,2.106-.49365,2.106-1.27393,0-.88379-1.09229-1.1958-2.522-1.48193-2.1582-.416-4.94043-.936-4.94043-3.92627,0-2.106,1.84619-3.95215,5.14844-3.95215a8.02169,8.02169,0,0,1,5.07031,1.71631l-1.32617,2.26172a5.29944,5.29944,0,0,0-3.71826-1.45605c-1.1958,0-1.97607.44238-1.97607,1.17041,0,.77979.98828,1.06592,2.39209,1.35205,2.1582.416,5.04443.98779,5.04443,4.10791,0,2.28809-1.9502,4.03027-5.43457,4.03027a8.45348,8.45348,0,0,1-5.61621-1.9502Z" transform="translate(-68 -57)"/><path d="M719.605,290.0498a6.64343,6.64343,0,1,1,6.63037,6.604A6.3607,6.3607,0,0,1,719.605,290.0498Zm9.85449,0c0-1.9502-1.17041-3.64062-3.22412-3.64062-2.0542,0-3.19824,1.69043-3.19824,3.64063,0,1.97559,1.144,3.666,3.19824,3.666C728.28906,293.71582,729.45947,292.02539,729.45947,290.0498Z" transform="translate(-68 -57)"/><path d="M743.811,294.75586a5.87706,5.87706,0,0,1-4.41992,1.89795c-2.75635,0-4.05615-1.5083-4.05615-3.95215V283.7832h3.30176v7.61816a2.01942,2.01942,0,0,0,2.31445,2.31445,3.69591,3.69591,0,0,0,2.85986-1.43018V283.7832h3.30225V296.3418H743.811Z" transform="translate(-68 -57)"/><path d="M750.38867,283.7832h3.30176v1.71631a5.37326,5.37326,0,0,1,4.00439-2.00244v3.22461a4.15962,4.15962,0,0,0-.91016-.10449,4.20783,4.20783,0,0,0-3.09424,1.43018v8.29443h-3.30176Z" transform="translate(-68 -57)"/><path d="M765.59863,283.47119a5.8441,5.8441,0,0,1,4.96631,2.26221l-2.1582,2.02832a3.04556,3.04556,0,0,0-2.65186-1.35254,3.66228,3.66228,0,0,0,0,7.30664,3.16984,3.16984,0,0,0,2.65186-1.35205l2.1582,2.002a5.78844,5.78844,0,0,1-4.96631,2.28809,6.59163,6.59163,0,1,1,0-13.18262Z" transform="translate(-68 -57)"/><path d="M778.416,283.47119c3.74414,0,6.29248,2.80811,6.29248,6.9165v.728H775.374a3.38438,3.38438,0,0,0,3.61426,2.91211,5.13714,5.13714,0,0,0,3.354-1.248l1.45605,2.13184a7.828,7.828,0,0,1-5.17432,1.74219,6.59214,6.59214,0,1,1-.208-13.18262Zm-3.09375,5.4082h6.188a2.90843,2.90843,0,0,0-3.09424-2.78174A3.01746,3.01746,0,0,0,775.32227,288.87939Z" transform="translate(-68 -57)"/><path d="M799.606,283.47119a5.8441,5.8441,0,0,1,4.96631,2.26221l-2.1582,2.02832a3.04525,3.04525,0,0,0-2.65234-1.35254,3.66232,3.66232,0,0,0,0,7.30664,3.16945,3.16945,0,0,0,2.65234-1.35205l2.1582,2.002a5.78844,5.78844,0,0,1-4.96631,2.28809,6.59163,6.59163,0,1,1,0-13.18262Z" transform="translate(-68 -57)"/><path d="M805.92334,290.0498a6.64343,6.64343,0,1,1,6.63037,6.604A6.3607,6.3607,0,0,1,805.92334,290.0498Zm9.85449,0c0-1.9502-1.17041-3.64062-3.22412-3.64062-2.0542,0-3.19824,1.69043-3.19824,3.64063,0,1.97559,1.144,3.666,3.19824,3.666C814.60742,293.71582,815.77783,292.02539,815.77783,290.0498Z" transform="translate(-68 -57)"/><path d="M830.28564,294.72949a4.876,4.876,0,0,1-3.87451,1.92432c-3.17187,0-5.564-2.39209-5.564-6.57812,0-4.1084,2.36621-6.60449,5.564-6.60449a4.83626,4.83626,0,0,1,3.87451,1.92432V278.999h3.32813V296.3418h-3.32812Zm0-6.89014a3.59357,3.59357,0,0,0-2.86035-1.43018c-1.87207,0-3.17187,1.48242-3.17187,3.6665,0,2.15771,1.2998,3.64014,3.17188,3.64014a3.59357,3.59357,0,0,0,2.86035-1.43018Z" transform="translate(-68 -57)"/><path d="M842.583,283.47119c3.74414,0,6.29248,2.80811,6.29248,6.9165v.728H839.541a3.38438,3.38438,0,0,0,3.61426,2.91211,5.13714,5.13714,0,0,0,3.354-1.248l1.45605,2.13184a7.828,7.828,0,0,1-5.17432,1.74219,6.59214,6.59214,0,1,1-.208-13.18262Zm-3.09375,5.4082h6.188a2.90843,2.90843,0,0,0-3.09424-2.78174A3.01746,3.01746,0,0,0,839.48926,288.87939Z" transform="translate(-68 -57)"/><path d="M225.49023,475.29443h3.69189v17.34277h-3.69189Z" transform="translate(-68 -57)"/><path d="M241.01172,485.04492a2.03738,2.03738,0,0,0-2.314-2.33984,3.57438,3.57438,0,0,0-2.85986,1.48193v8.4502h-3.30225V480.07861h3.30225v1.63818a5.74979,5.74979,0,0,1,4.394-1.9502c2.75586,0,4.082,1.56006,4.082,4.00439v8.86621h-3.30225Z" transform="translate(-68 -57)"/><path d="M248.23926,489.51709v-6.55225h-2.08008v-2.88623h2.08008v-3.43213h3.32813v3.43213h2.54785v2.88623h-2.54785v5.668c0,.78027.416,1.37842,1.144,1.37842a1.80318,1.80318,0,0,0,1.144-.36426l.70215,2.49609a4.07747,4.07747,0,0,1-2.75635.80615C249.4873,492.94922,248.23926,491.75293,248.23926,489.51709Z" transform="translate(-68 -57)"/><path d="M262.07129,479.7666c3.74414,0,6.29248,2.80811,6.29248,6.9165v.728H259.0293a3.38438,3.38438,0,0,0,3.61426,2.91211,5.13714,5.13714,0,0,0,3.354-1.248l1.45605,2.13184a7.828,7.828,0,0,1-5.17432,1.74219,6.59214,6.59214,0,1,1-.208-13.18262Zm-3.09375,5.4082h6.188a2.90878,2.90878,0,0,0-3.09424-2.78223A3.01783,3.01783,0,0,0,258.97754,485.1748Z" transform="translate(-68 -57)"/><path d="M270.75537,480.07861h3.30225v1.71631a5.37094,5.37094,0,0,1,4.00391-2.002v3.22363a4.06037,4.06037,0,0,0-4.00391,1.32617v8.29443h-3.30225Z" transform="translate(-68 -57)"/><path d="M288.59082,485.04492a2.03738,2.03738,0,0,0-2.314-2.33984A3.57438,3.57438,0,0,0,283.417,484.187v8.4502h-3.30225V480.07861H283.417v1.63818a5.74979,5.74979,0,0,1,4.394-1.9502c2.75586,0,4.082,1.56006,4.082,4.00439v8.86621h-3.30225Z" transform="translate(-68 -57)"/><path d="M302.7085,491.33691a5.19589,5.19589,0,0,1-3.978,1.6123,4.18379,4.18379,0,0,1-4.36816-4.16016c0-2.938,2.36621-4.00391,4.36816-4.00391a5.07479,5.07479,0,0,1,3.978,1.53369v-1.7417c0-1.27441-1.0918-2.10645-2.75586-2.10645a5.28489,5.28489,0,0,0-3.6665,1.48242l-1.248-2.21045a8.23858,8.23858,0,0,1,5.48633-1.97607c2.86035,0,5.48633,1.144,5.48633,4.7583v8.1123H302.7085Zm0-3.27588a3.30244,3.30244,0,0,0-2.65186-1.09229c-1.30029,0-2.36621.67627-2.36621,1.89844,0,1.16992,1.06592,1.8457,2.36621,1.8457a3.30213,3.30213,0,0,0,2.65186-1.0918Z" transform="translate(-68 -57)"/><path d="M309.28662,475.29443h3.30225v17.34277h-3.30225Z" transform="translate(-68 -57)"/><path d="M202.28516,499.49072a1.97607,1.97607,0,1,1,1.97559,1.97607A1.99153,1.99153,0,0,1,202.28516,499.49072Zm.33789,3.58789h3.30176v12.55859H202.623Z" transform="translate(-68 -57)"/><path d="M217.67676,508.04492a2.03738,2.03738,0,0,0-2.314-2.33984,3.57438,3.57438,0,0,0-2.85986,1.48193v8.4502h-3.30225V503.07861h3.30225v1.63818a5.74979,5.74979,0,0,1,4.394-1.9502c2.75586,0,4.082,1.56006,4.082,4.00439v8.86621h-3.30225Z" transform="translate(-68 -57)"/><path d="M224.98242,505.96484h-2.08008v-2.88623h2.08008v-.67578a4.04792,4.04792,0,0,1,4.23828-4.36816,5.33774,5.33774,0,0,1,2.3916.52l-.67578,2.33984a2.0298,2.0298,0,0,0-1.06592-.25977c-.936,0-1.56006.624-1.56006,1.81982v.624h2.54785v2.88623h-2.54785v9.67236h-3.32812Z" transform="translate(-68 -57)"/><path d="M231.9502,509.34473a6.64342,6.64342,0,1,1,6.63037,6.60449A6.36058,6.36058,0,0,1,231.9502,509.34473Zm9.85449,0c0-1.94971-1.16992-3.63965-3.22412-3.63965s-3.19824,1.68994-3.19824,3.63965c0,1.97656,1.144,3.6665,3.19824,3.6665S241.80469,511.32129,241.80469,509.34473Z" transform="translate(-68 -57)"/><path d="M247.68018,503.07861h3.30225v1.71631a5.37094,5.37094,0,0,1,4.00391-2.002v3.22363a4.06037,4.06037,0,0,0-4.00391,1.32617v8.29443h-3.30225Z" transform="translate(-68 -57)"/><path d="M272.61426,507.707c0-1.16992-.52051-2.002-1.87207-2.002a3.334,3.334,0,0,0-2.60059,1.45605v8.47607h-3.32812V507.707c0-1.16992-.51953-2.002-1.87207-2.002a3.36921,3.36921,0,0,0-2.59961,1.48193v8.4502h-3.30225V503.07861h3.30225v1.63818a5.49165,5.49165,0,0,1,4.10791-1.9502,3.323,3.323,0,0,1,3.48389,2.28809A5.33093,5.33093,0,0,1,272.25,502.7666c2.314,0,3.69238,1.22217,3.69238,3.79639v9.07422h-3.32812Z" transform="translate(-68 -57)"/><path d="M286.73145,514.33691a5.19589,5.19589,0,0,1-3.978,1.6123,4.18379,4.18379,0,0,1-4.36816-4.16016c0-2.938,2.36621-4.00391,4.36816-4.00391a5.07479,5.07479,0,0,1,3.978,1.53369v-1.7417c0-1.27441-1.0918-2.10645-2.75586-2.10645a5.28288,5.28288,0,0,0-3.666,1.48242l-1.248-2.21045a8.23644,8.23644,0,0,1,5.48584-1.97607c2.86035,0,5.48633,1.144,5.48633,4.7583v8.1123h-3.30225Zm0-3.27588a3.30244,3.30244,0,0,0-2.65186-1.09229c-1.30029,0-2.36621.67627-2.36621,1.89844,0,1.16992,1.06592,1.8457,2.36621,1.8457a3.30213,3.30213,0,0,0,2.65186-1.0918Z" transform="translate(-68 -57)"/><path d="M293.95947,512.51709v-6.55225h-2.08008v-2.88623h2.08008v-3.43213h3.32813v3.43213h2.54834v2.88623H297.2876v5.668c0,.78027.416,1.37842,1.144,1.37842a1.80318,1.80318,0,0,0,1.144-.36426l.70215,2.49609a4.07842,4.07842,0,0,1-2.75635.80615C295.20752,515.94922,293.95947,514.75293,293.95947,512.51709Z" transform="translate(-68 -57)"/><path d="M301.75977,499.49072a1.97607,1.97607,0,1,1,1.97559,1.97607A1.99153,1.99153,0,0,1,301.75977,499.49072Zm.33789,3.58789h3.30176v12.55859h-3.30176Z" transform="translate(-68 -57)"/><path d="M307.86914,509.34473a6.64342,6.64342,0,1,1,6.63037,6.60449A6.36058,6.36058,0,0,1,307.86914,509.34473Zm9.85449,0c0-1.94971-1.16992-3.63965-3.22412-3.63965s-3.19824,1.68994-3.19824,3.63965c0,1.97656,1.144,3.6665,3.19824,3.6665S317.72363,511.32129,317.72363,509.34473Z" transform="translate(-68 -57)"/><path d="M332.0752,508.04492a2.03738,2.03738,0,0,0-2.314-2.33984,3.57438,3.57438,0,0,0-2.85986,1.48193v8.4502h-3.30225V503.07861h3.30225v1.63818a5.74979,5.74979,0,0,1,4.394-1.9502c2.75586,0,4.082,1.56006,4.082,4.00439v8.86621H332.0752Z" transform="translate(-68 -57)"/><rect class="cls-3" x="610.5" y="354" width="207" height="175" rx="12" ry="12"/><path d="M704.02441,475.29395h3.74414v10.2959c0,2.41895,1.32568,4.083,4.02979,4.083,2.65234,0,3.978-1.66406,3.978-4.083v-10.2959h3.74414v10.40039c0,4.31641-2.46973,7.25391-7.72217,7.25391-5.3042,0-7.77393-2.96387-7.77393-7.22754Z" transform="translate(-68 -57)"/><path d="M731.3501,485.04395a2.0372,2.0372,0,0,0-2.314-2.33984,3.57855,3.57855,0,0,0-2.86035,1.48242v8.4502H722.874V480.07813h3.30176v1.6377a5.75175,5.75175,0,0,1,4.39453-1.9502c2.75586,0,4.082,1.56055,4.082,4.00488v8.86621H731.3501Z" transform="translate(-68 -57)"/><path d="M746.40381,485.04395a2.0372,2.0372,0,0,0-2.314-2.33984,3.57855,3.57855,0,0,0-2.86035,1.48242v8.4502h-3.30176V480.07813h3.30176v1.6377a5.75175,5.75175,0,0,1,4.39453-1.9502c2.75586,0,4.082,1.56055,4.082,4.00488v8.86621h-3.30225Z" transform="translate(-68 -57)"/><path d="M758.67578,479.76563c3.74414,0,6.292,2.80859,6.292,6.917v.72754H755.6333a3.38405,3.38405,0,0,0,3.61426,2.91211,5.13361,5.13361,0,0,0,3.354-1.248l1.45605,2.13184a7.825,7.825,0,0,1-5.17383,1.74219,6.59214,6.59214,0,1,1-.208-13.18262Zm-3.09424,5.4082h6.188a2.90886,2.90886,0,0,0-3.09375-2.78125A3.01722,3.01722,0,0,0,755.58154,485.17383Z" transform="translate(-68 -57)"/><path d="M773.20947,479.76563a5.843,5.843,0,0,1,4.96631,2.2627l-2.1582,2.02832a3.04414,3.04414,0,0,0-2.65234-1.35254,3.66232,3.66232,0,0,0,0,7.30664,3.16985,3.16985,0,0,0,2.65234-1.35254l2.1582,2.002a5.78844,5.78844,0,0,1-4.96631,2.28809,6.59163,6.59163,0,1,1,0-13.18262Z" transform="translate(-68 -57)"/><path d="M786.02734,479.76563c3.74414,0,6.292,2.80859,6.292,6.917v.72754h-9.33447a3.38405,3.38405,0,0,0,3.61426,2.91211,5.13361,5.13361,0,0,0,3.354-1.248l1.45605,2.13184a7.825,7.825,0,0,1-5.17383,1.74219,6.59214,6.59214,0,1,1-.208-13.18262Zm-3.09424,5.4082h6.188a2.90886,2.90886,0,0,0-3.09375-2.78125A3.01722,3.01722,0,0,0,782.93311,485.17383Z" transform="translate(-68 -57)"/><path d="M795.04883,488.68457a7.1922,7.1922,0,0,0,4.34229,1.71582c1.43018,0,2.106-.49414,2.106-1.27441,0-.88379-1.0918-1.19531-2.522-1.48145-2.1582-.416-4.94043-.93652-4.94043-3.92676,0-2.10547,1.84619-3.95215,5.14844-3.95215a8.02044,8.02044,0,0,1,5.06982,1.7168l-1.32568,2.26172a5.30035,5.30035,0,0,0-3.71826-1.45605c-1.19629,0-1.97607.44238-1.97607,1.16992,0,.78027.98779,1.06641,2.39209,1.35254,2.1582.416,5.04395.9873,5.04395,4.10742,0,2.28809-1.94971,4.03027-5.43408,4.03027a8.451,8.451,0,0,1-5.61621-1.9502Z" transform="translate(-68 -57)"/><path d="M807.45068,488.68457a7.1922,7.1922,0,0,0,4.34229,1.71582c1.42969,0,2.106-.49414,2.106-1.27441,0-.88379-1.09229-1.19531-2.522-1.48145-2.1582-.416-4.94043-.93652-4.94043-3.92676,0-2.10547,1.84619-3.95215,5.14844-3.95215a8.02188,8.02188,0,0,1,5.07031,1.7168l-1.32617,2.26172a5.29944,5.29944,0,0,0-3.71826-1.45605c-1.1958,0-1.97607.44238-1.97607,1.16992,0,.78027.98828,1.06641,2.39209,1.35254,2.1582.416,5.04443.9873,5.04443,4.10742,0,2.28809-1.9502,4.03027-5.43457,4.03027a8.451,8.451,0,0,1-5.61621-1.9502Z" transform="translate(-68 -57)"/><path d="M827.05469,491.33691a5.197,5.197,0,0,1-3.978,1.61133,4.18348,4.18348,0,0,1-4.36816-4.16016c0-2.9375,2.36621-4.00391,4.36816-4.00391a5.07671,5.07671,0,0,1,3.978,1.53418v-1.74219c0-1.27441-1.0918-2.10645-2.75586-2.10645a5.28288,5.28288,0,0,0-3.666,1.48242l-1.248-2.21a8.23442,8.23442,0,0,1,5.48584-1.97656c2.86035,0,5.48633,1.14453,5.48633,4.75879v8.1123h-3.30225Zm0-3.27637a3.3006,3.3006,0,0,0-2.65186-1.0918c-1.30029,0-2.36621.67578-2.36621,1.89746,0,1.16992,1.06592,1.84668,2.36621,1.84668a3.30122,3.30122,0,0,0,2.65186-1.09277Z" transform="translate(-68 -57)"/><path d="M833.63281,480.07813h3.30176v1.71582a5.37279,5.37279,0,0,1,4.00439-2.002v3.22461a4.12984,4.12984,0,0,0-.91016-.10449,4.20918,4.20918,0,0,0-3.09424,1.42969v8.29492h-3.30176Z" transform="translate(-68 -57)"/><path d="M844.08447,494.79492a1.66654,1.66654,0,0,0,1.74219-.91016l.46826-1.06641-5.09668-12.74023h3.53613l3.27637,8.73633,3.27637-8.73633h3.562l-5.90234,14.6123c-.936,2.36621-2.6001,2.99023-4.7583,3.042a9.06821,9.06821,0,0,1-1.6377-.18164l.49365-2.96387A2.85626,2.85626,0,0,0,844.08447,494.79492Z" transform="translate(-68 -57)"/><path d="M735.09424,514.02441a4.87553,4.87553,0,0,1-3.87451,1.92383c-3.17187,0-5.564-2.3916-5.564-6.57812,0-4.1084,2.36621-6.60449,5.564-6.60449a4.83676,4.83676,0,0,1,3.87451,1.9248v-6.39648h3.32813v17.34277h-3.32812Zm0-6.89062a3.59316,3.59316,0,0,0-2.86035-1.42969c-1.87207,0-3.17187,1.48242-3.17187,3.666,0,2.1582,1.2998,3.64063,3.17188,3.64063a3.594,3.594,0,0,0,2.86035-1.43066Z" transform="translate(-68 -57)"/><path d="M749.23779,514.33691a5.197,5.197,0,0,1-3.978,1.61133,4.18348,4.18348,0,0,1-4.36816-4.16016c0-2.9375,2.36621-4.00391,4.36816-4.00391a5.07671,5.07671,0,0,1,3.978,1.53418v-1.74219c0-1.27441-1.0918-2.10645-2.75586-2.10645a5.28489,5.28489,0,0,0-3.6665,1.48242l-1.248-2.21a8.23656,8.23656,0,0,1,5.48633-1.97656c2.86035,0,5.48633,1.14453,5.48633,4.75879v8.1123h-3.30225Zm0-3.27637a3.3006,3.3006,0,0,0-2.65186-1.0918c-1.30029,0-2.36621.67578-2.36621,1.89746,0,1.16992,1.06592,1.84668,2.36621,1.84668a3.30122,3.30122,0,0,0,2.65186-1.09277Z" transform="translate(-68 -57)"/><path d="M756.46582,512.5166v-6.55273h-2.08008v-2.88574h2.08008v-3.43262h3.32813v3.43262h2.54785v2.88574h-2.54785v5.66895c0,.7793.416,1.37793,1.144,1.37793a1.80608,1.80608,0,0,0,1.144-.36426l.70215,2.49609a4.07511,4.07511,0,0,1-2.75635.80566C757.71387,515.94824,756.46582,514.75293,756.46582,512.5166Z" transform="translate(-68 -57)"/><path d="M772.144,514.33691a5.197,5.197,0,0,1-3.978,1.61133,4.18348,4.18348,0,0,1-4.36816-4.16016c0-2.9375,2.36621-4.00391,4.36816-4.00391a5.07671,5.07671,0,0,1,3.978,1.53418v-1.74219c0-1.27441-1.0918-2.10645-2.75586-2.10645a5.28489,5.28489,0,0,0-3.6665,1.48242l-1.248-2.21a8.23656,8.23656,0,0,1,5.48633-1.97656c2.86035,0,5.48633,1.14453,5.48633,4.75879v8.1123H772.144Zm0-3.27637a3.3006,3.3006,0,0,0-2.65186-1.0918c-1.30029,0-2.36621.67578-2.36621,1.89746,0,1.16992,1.06592,1.84668,2.36621,1.84668a3.30122,3.30122,0,0,0,2.65186-1.09277Z" transform="translate(-68 -57)"/><path d="M786.106,505.96387h-2.08008v-2.88574H786.106v-.67578a4.04755,4.04755,0,0,1,4.23779-4.36816,5.34743,5.34743,0,0,1,2.39258.51953l-.67627,2.39258a1.84756,1.84756,0,0,0-1.06592-.3125c-.936,0-1.56006.624-1.56006,1.76855v.67578h2.54785v2.88574h-2.54785v9.67285H786.106Zm7.436-6.47363a1.97607,1.97607,0,1,1,1.97607,1.97559A1.992,1.992,0,0,1,793.542,499.49023Zm.33789,3.58789h3.30225v12.55859h-3.30225Z" transform="translate(-68 -57)"/><path d="M800.45752,498.29395h3.30225v17.34277h-3.30225Z" transform="translate(-68 -57)"/><path d="M812.72949,502.76563c3.74414,0,6.292,2.80859,6.292,6.917v.72754H809.687a3.38405,3.38405,0,0,0,3.61426,2.91211,5.13361,5.13361,0,0,0,3.354-1.248l1.45605,2.13184a7.825,7.825,0,0,1-5.17383,1.74219,6.59214,6.59214,0,1,1-.208-13.18262Zm-3.09424,5.4082h6.188a2.90886,2.90886,0,0,0-3.09375-2.78125A3.01722,3.01722,0,0,0,809.63525,508.17383Z" transform="translate(-68 -57)"/><path d="M821.751,511.68457a7.1922,7.1922,0,0,0,4.34229,1.71582c1.43018,0,2.106-.49414,2.106-1.27441,0-.88379-1.0918-1.19531-2.522-1.48145-2.1582-.416-4.94043-.93652-4.94043-3.92676,0-2.10547,1.84619-3.95215,5.14844-3.95215a8.02044,8.02044,0,0,1,5.06982,1.7168l-1.32568,2.26172a5.30035,5.30035,0,0,0-3.71826-1.45605c-1.19629,0-1.97607.44238-1.97607,1.16992,0,.78027.98779,1.06641,2.39209,1.35254,2.1582.416,5.04395.9873,5.04395,4.10742,0,2.28809-1.94971,4.03027-5.43408,4.03027a8.451,8.451,0,0,1-5.61621-1.9502Z" transform="translate(-68 -57)"/><rect class="cls-3" x="102" y="568.14" width="207" height="175" rx="12" ry="12"/><rect class="cls-3" x="358" y="568.14" width="207" height="175" rx="12" ry="12"/><path d="M458.82031,695.05469a7.605,7.605,0,0,0,5.51172,2.33984c2.02832,0,3.0166-.96191,3.0166-1.9502,0-1.2998-1.5083-1.74219-3.51025-2.21-2.83447-.65039-6.47412-1.43066-6.47412-5.30469,0-2.88574,2.49609-5.22559,6.57813-5.22559a9.64811,9.64811,0,0,1,6.76025,2.418l-2.0542,2.7041a7.40112,7.40112,0,0,0-4.96631-1.89844c-1.66406,0-2.54785.72852-2.54785,1.76855,0,1.16992,1.45605,1.53418,3.458,2.002,2.85986.64941,6.50049,1.50781,6.50049,5.35645,0,3.17188-2.26221,5.56348-6.94238,5.56348a9.8878,9.8878,0,0,1-7.33252-2.75586Z" transform="translate(-68 -57)"/><path d="M472.70361,694.01465a6.64343,6.64343,0,1,1,6.63037,6.60352A6.36108,6.36108,0,0,1,472.70361,694.01465Zm9.85449,0c0-1.9502-1.17041-3.64062-3.22412-3.64062-2.0542,0-3.19824,1.69043-3.19824,3.64063,0,1.97559,1.144,3.666,3.19824,3.666C481.3877,697.68066,482.55811,695.99023,482.55811,694.01465Z" transform="translate(-68 -57)"/><path d="M496.90967,698.7207a5.87685,5.87685,0,0,1-4.41992,1.89746c-2.75635,0-4.05615-1.50781-4.05615-3.95215v-8.918h3.30176v7.61816a2.01942,2.01942,0,0,0,2.31445,2.31445,3.69478,3.69478,0,0,0,2.85986-1.43066v-8.502h3.30225v12.55859h-3.30225Z" transform="translate(-68 -57)"/><path d="M503.4873,687.748h3.30176v1.71582a5.37279,5.37279,0,0,1,4.00439-2.002v3.22461a4.12984,4.12984,0,0,0-.91016-.10449,4.20918,4.20918,0,0,0-3.09424,1.42969v8.29492H503.4873Z" transform="translate(-68 -57)"/><path d="M518.69727,687.43555a5.843,5.843,0,0,1,4.96631,2.2627l-2.1582,2.02832a3.04445,3.04445,0,0,0-2.65186-1.35254,3.66228,3.66228,0,0,0,0,7.30664,3.17025,3.17025,0,0,0,2.65186-1.35254l2.1582,2.002a5.78844,5.78844,0,0,1-4.96631,2.28809,6.59163,6.59163,0,1,1,0-13.18262Z" transform="translate(-68 -57)"/><path d="M531.51465,687.43555c3.74414,0,6.29248,2.80859,6.29248,6.917v.72754h-9.33447a3.38438,3.38438,0,0,0,3.61426,2.91211,5.13458,5.13458,0,0,0,3.354-1.248L536.897,698.876a7.82545,7.82545,0,0,1-5.17432,1.74219,6.59214,6.59214,0,1,1-.208-13.18262Zm-3.09375,5.4082h6.188a2.90837,2.90837,0,0,0-3.09424-2.78125A3.01708,3.01708,0,0,0,528.4209,692.84375Z" transform="translate(-68 -57)"/><path d="M552.70459,687.43555a5.843,5.843,0,0,1,4.96631,2.2627l-2.1582,2.02832a3.04414,3.04414,0,0,0-2.65234-1.35254,3.66232,3.66232,0,0,0,0,7.30664,3.16985,3.16985,0,0,0,2.65234-1.35254l2.1582,2.002a5.78844,5.78844,0,0,1-4.96631,2.28809,6.59163,6.59163,0,1,1,0-13.18262Z" transform="translate(-68 -57)"/><path d="M559.022,694.01465a6.64343,6.64343,0,1,1,6.63037,6.60352A6.36108,6.36108,0,0,1,559.022,694.01465Zm9.85449,0c0-1.9502-1.17041-3.64062-3.22412-3.64062-2.0542,0-3.19824,1.69043-3.19824,3.64063,0,1.97559,1.144,3.666,3.19824,3.666C567.70605,697.68066,568.87646,695.99023,568.87646,694.01465Z" transform="translate(-68 -57)"/><path d="M583.38428,698.69434a4.87553,4.87553,0,0,1-3.87451,1.92383c-3.17187,0-5.564-2.3916-5.564-6.57812,0-4.1084,2.36621-6.60449,5.564-6.60449a4.83676,4.83676,0,0,1,3.87451,1.9248v-6.39648h3.32813v17.34277h-3.32812Zm0-6.89062a3.59316,3.59316,0,0,0-2.86035-1.42969c-1.87207,0-3.17187,1.48242-3.17187,3.666,0,2.1582,1.2998,3.64063,3.17188,3.64063a3.594,3.594,0,0,0,2.86035-1.43066Z" transform="translate(-68 -57)"/><path d="M595.68164,687.43555c3.74414,0,6.29248,2.80859,6.29248,6.917v.72754h-9.33447a3.38438,3.38438,0,0,0,3.61426,2.91211,5.13458,5.13458,0,0,0,3.354-1.248L601.064,698.876a7.82545,7.82545,0,0,1-5.17432,1.74219,6.59214,6.59214,0,1,1-.208-13.18262Zm-3.09375,5.4082h6.188a2.90837,2.90837,0,0,0-3.09424-2.78125A3.01708,3.01708,0,0,0,592.58789,692.84375Z" transform="translate(-68 -57)"/><path d="M471.5083,710.748h3.30225v1.71582a5.37094,5.37094,0,0,1,4.00391-2.002v3.22461a4.12984,4.12984,0,0,0-.91016-.10449,4.20725,4.20725,0,0,0-3.09375,1.42969v8.29492H471.5083Z" transform="translate(-68 -57)"/><path d="M486.56152,710.43555c3.74414,0,6.29248,2.80859,6.29248,6.917v.72754h-9.33447a3.38438,3.38438,0,0,0,3.61426,2.91211,5.13458,5.13458,0,0,0,3.354-1.248l1.45605,2.13184a7.82545,7.82545,0,0,1-5.17432,1.74219,6.59214,6.59214,0,1,1-.208-13.18262Zm-3.09375,5.4082h6.188a2.90837,2.90837,0,0,0-3.09424-2.78125A3.01708,3.01708,0,0,0,483.46777,715.84375Z" transform="translate(-68 -57)"/><path d="M495.24561,728.09082V710.748h3.30225V712.334a4.85231,4.85231,0,0,1,3.874-1.89844c3.22412,0,5.564,2.39258,5.564,6.5791,0,4.18555-2.33984,6.60352-5.564,6.60352a4.79764,4.79764,0,0,1-3.874-1.92383v6.39648Zm6.13623-14.7168a3.69832,3.69832,0,0,0-2.834,1.42969V719.25a3.78019,3.78019,0,0,0,2.834,1.43066c1.89795,0,3.17188-1.48242,3.17188-3.666C504.55371,714.85645,503.27979,713.374,501.38184,713.374Z" transform="translate(-68 -57)"/><path d="M509.64941,717.01465a6.64343,6.64343,0,1,1,6.63037,6.60352A6.36108,6.36108,0,0,1,509.64941,717.01465Zm9.85449,0c0-1.9502-1.16992-3.64062-3.22412-3.64062s-3.19824,1.69043-3.19824,3.64063c0,1.97559,1.144,3.666,3.19824,3.666S519.50391,718.99023,519.50391,717.01465Z" transform="translate(-68 -57)"/><path d="M525.71729,719.35449a7.1922,7.1922,0,0,0,4.34229,1.71582c1.42969,0,2.106-.49414,2.106-1.27441,0-.88379-1.09229-1.19531-2.522-1.48145-2.1582-.416-4.94043-.93652-4.94043-3.92676,0-2.10547,1.84619-3.95215,5.14844-3.95215a8.02188,8.02188,0,0,1,5.07031,1.7168l-1.32617,2.26172a5.29944,5.29944,0,0,0-3.71826-1.45605c-1.1958,0-1.97607.44238-1.97607,1.16992,0,.78027.98828,1.06641,2.39209,1.35254,2.1582.416,5.04443.9873,5.04443,4.10742,0,2.28809-1.9502,4.03027-5.43457,4.03027a8.451,8.451,0,0,1-5.61621-1.9502Z" transform="translate(-68 -57)"/><path d="M537.44336,707.16016a1.97607,1.97607,0,1,1,1.97559,1.97559A1.99163,1.99163,0,0,1,537.44336,707.16016Zm.33789,3.58789H541.083v12.55859h-3.30176Z" transform="translate(-68 -57)"/><path d="M545.00879,720.18652v-6.55273h-2.08008V710.748h2.08008v-3.43262h3.32813V710.748h2.54785v2.88574h-2.54785v5.66895c0,.7793.416,1.37793,1.144,1.37793a1.80608,1.80608,0,0,0,1.144-.36426l.70215,2.49609a4.07511,4.07511,0,0,1-2.75635.80566C546.25684,723.61816,545.00879,722.42285,545.00879,720.18652Z" transform="translate(-68 -57)"/><path d="M552.34082,717.01465a6.64343,6.64343,0,1,1,6.63037,6.60352A6.36108,6.36108,0,0,1,552.34082,717.01465Zm9.85449,0c0-1.9502-1.16992-3.64062-3.22412-3.64062s-3.19824,1.69043-3.19824,3.64063c0,1.97559,1.144,3.666,3.19824,3.666S562.19531,718.99023,562.19531,717.01465Z" transform="translate(-68 -57)"/><path d="M568.0708,710.748H571.373v1.71582a5.37094,5.37094,0,0,1,4.00391-2.002v3.22461a4.12984,4.12984,0,0,0-.91016-.10449,4.20725,4.20725,0,0,0-3.09375,1.42969v8.29492H568.0708Z" transform="translate(-68 -57)"/><path d="M578.522,725.46484a1.66654,1.66654,0,0,0,1.74219-.91016l.46826-1.06641L575.63574,710.748h3.53613l3.27637,8.73633,3.27637-8.73633h3.562l-5.90234,14.6123c-.936,2.36621-2.6001,2.99023-4.7583,3.042a9.06821,9.06821,0,0,1-1.6377-.18164l.49365-2.96387A2.85626,2.85626,0,0,0,578.522,725.46484Z" transform="translate(-68 -57)"/><path d="M458.43066,733.43555a5.843,5.843,0,0,1,4.96631,2.2627l-2.1582,2.02832a3.04445,3.04445,0,0,0-2.65186-1.35254,3.66228,3.66228,0,0,0,0,7.30664,3.17025,3.17025,0,0,0,2.65186-1.35254l2.1582,2.002a5.78844,5.78844,0,0,1-4.96631,2.28809,6.59163,6.59163,0,1,1,0-13.18262Z" transform="translate(-68 -57)"/><path d="M464.748,740.01465a6.64343,6.64343,0,1,1,6.63037,6.60352A6.36108,6.36108,0,0,1,464.748,740.01465Zm9.85449,0c0-1.9502-1.16992-3.64062-3.22412-3.64062s-3.19824,1.69043-3.19824,3.64063c0,1.97559,1.144,3.666,3.19824,3.666S474.60254,741.99023,474.60254,740.01465Z" transform="translate(-68 -57)"/><path d="M488.9541,738.71387a2.03738,2.03738,0,0,0-2.314-2.33984,3.57607,3.57607,0,0,0-2.85986,1.48242v8.4502H480.478V733.748h3.30225v1.6377a5.74979,5.74979,0,0,1,4.394-1.9502c2.75586,0,4.082,1.56055,4.082,4.00488v8.86621H488.9541Z" transform="translate(-68 -57)"/><path d="M496.25977,736.63379h-2.08008V733.748h2.08008v-.67578a4.04767,4.04767,0,0,1,4.23828-4.36816,5.34455,5.34455,0,0,1,2.3916.51953l-.67578,2.39258a1.8464,1.8464,0,0,0-1.06592-.3125c-.936,0-1.56006.624-1.56006,1.76855v.67578h2.54785v2.88574h-2.54785v9.67285h-3.32812Zm7.436-6.47363a1.97607,1.97607,0,1,1,1.97607,1.97559A1.992,1.992,0,0,1,503.6958,730.16016Zm.33838,3.58789h3.30176v12.55859h-3.30176Z" transform="translate(-68 -57)"/><path d="M511.833,747.13867a4.991,4.991,0,0,0,3.92627,1.55957c1.58643,0,3.4585-.70215,3.4585-3.17187V744.252a4.89172,4.89172,0,0,1-3.87451,1.97656c-3.146,0-5.53809-2.21-5.53809-6.39648,0-4.1084,2.36621-6.39648,5.53809-6.39648a4.83676,4.83676,0,0,1,3.87451,1.9248V733.748h3.32813v11.7002c0,4.78418-3.69238,5.9541-6.78662,5.9541a7.61055,7.61055,0,0,1-5.4082-1.87207Zm7.38477-9.335a3.581,3.581,0,0,0-2.83447-1.42969c-1.87207,0-3.17187,1.2998-3.17187,3.458s1.2998,3.458,3.17188,3.458a3.65885,3.65885,0,0,0,2.83447-1.42969Z" transform="translate(-68 -57)"/><path d="M534.29736,744.7207a5.87685,5.87685,0,0,1-4.41992,1.89746c-2.75635,0-4.05615-1.50781-4.05615-3.95215v-8.918H529.123v7.61816a2.01942,2.01942,0,0,0,2.31445,2.31445,3.69478,3.69478,0,0,0,2.85986-1.43066v-8.502h3.30225v12.55859h-3.30225Z" transform="translate(-68 -57)"/><path d="M540.875,733.748h3.30176v1.71582a5.37279,5.37279,0,0,1,4.00439-2.002v3.22461a4.12984,4.12984,0,0,0-.91016-.10449,4.20918,4.20918,0,0,0-3.09424,1.42969v8.29492H540.875Z" transform="translate(-68 -57)"/><path d="M557.7749,745.00684a5.197,5.197,0,0,1-3.978,1.61133,4.18348,4.18348,0,0,1-4.36816-4.16016c0-2.9375,2.36621-4.00391,4.36816-4.00391a5.07671,5.07671,0,0,1,3.978,1.53418v-1.74219c0-1.27441-1.0918-2.10645-2.75586-2.10645a5.28489,5.28489,0,0,0-3.6665,1.48242l-1.248-2.21a8.23656,8.23656,0,0,1,5.48633-1.97656c2.86035,0,5.48633,1.14453,5.48633,4.75879v8.1123H557.7749Zm0-3.27637a3.3006,3.3006,0,0,0-2.65186-1.0918c-1.30029,0-2.36621.67578-2.36621,1.89746,0,1.16992,1.06592,1.84668,2.36621,1.84668A3.30122,3.30122,0,0,0,557.7749,743.29Z" transform="translate(-68 -57)"/><path d="M565.00293,743.18652v-6.55273h-2.08008V733.748h2.08008v-3.43262h3.32813V733.748h2.54785v2.88574h-2.54785v5.66895c0,.7793.416,1.37793,1.144,1.37793a1.80608,1.80608,0,0,0,1.144-.36426l.70215,2.49609a4.07511,4.07511,0,0,1-2.75635.80566C566.251,746.61816,565.00293,745.42285,565.00293,743.18652Z" transform="translate(-68 -57)"/><path d="M572.80273,730.16016a1.97607,1.97607,0,1,1,1.97656,1.97559A1.99215,1.99215,0,0,1,572.80273,730.16016Zm.33838,3.58789h3.30225v12.55859h-3.30225Z" transform="translate(-68 -57)"/><path d="M578.9126,740.01465a6.64343,6.64343,0,1,1,6.63037,6.60352A6.36108,6.36108,0,0,1,578.9126,740.01465Zm9.85449,0c0-1.9502-1.17041-3.64062-3.22412-3.64062-2.0542,0-3.19824,1.69043-3.19824,3.64063,0,1.97559,1.144,3.666,3.19824,3.666C587.59668,743.68066,588.76709,741.99023,588.76709,740.01465Z" transform="translate(-68 -57)"/><path d="M603.11865,738.71387a2.0372,2.0372,0,0,0-2.314-2.33984,3.57855,3.57855,0,0,0-2.86035,1.48242v8.4502h-3.30176V733.748h3.30176v1.6377a5.75175,5.75175,0,0,1,4.39453-1.9502c2.75586,0,4.082,1.56055,4.082,4.00488v8.86621h-3.30225Z" transform="translate(-68 -57)"/><path d="M507.64795,759.63379h-2.08008V756.748h2.08008v-.67578a4.04755,4.04755,0,0,1,4.23779-4.36816,5.34743,5.34743,0,0,1,2.39258.51953l-.67627,2.39258a1.84756,1.84756,0,0,0-1.06592-.3125c-.936,0-1.56006.624-1.56006,1.76855v.67578h2.54785v2.88574h-2.54785v9.67285h-3.32812Zm7.436-6.47363a1.97607,1.97607,0,1,1,1.97607,1.97559A1.992,1.992,0,0,1,515.084,753.16016Zm.33789,3.58789h3.30225v12.55859h-3.30225Z" transform="translate(-68 -57)"/><path d="M521.99951,751.96387h3.30225v17.34277h-3.30225Z" transform="translate(-68 -57)"/><path d="M534.27148,756.43555c3.74414,0,6.292,2.80859,6.292,6.917v.72754H531.229a3.38405,3.38405,0,0,0,3.61426,2.91211,5.13361,5.13361,0,0,0,3.354-1.248l1.45605,2.13184a7.825,7.825,0,0,1-5.17383,1.74219,6.59214,6.59214,0,1,1-.208-13.18262Zm-3.09424,5.4082h6.188a2.90886,2.90886,0,0,0-3.09375-2.78125A3.01722,3.01722,0,0,0,531.17725,761.84375Z" transform="translate(-68 -57)"/><path d="M543.293,765.35449a7.1922,7.1922,0,0,0,4.34229,1.71582c1.43018,0,2.106-.49414,2.106-1.27441,0-.88379-1.0918-1.19531-2.522-1.48145-2.1582-.416-4.94043-.93652-4.94043-3.92676,0-2.10547,1.84619-3.95215,5.14844-3.95215a8.02044,8.02044,0,0,1,5.06982,1.7168l-1.32568,2.26172a5.30035,5.30035,0,0,0-3.71826-1.45605c-1.19629,0-1.97607.44238-1.97607,1.16992,0,.78027.98779,1.06641,2.39209,1.35254,2.1582.416,5.04395.9873,5.04395,4.10742,0,2.28809-1.94971,4.03027-5.43408,4.03027a8.451,8.451,0,0,1-5.61621-1.9502Z" transform="translate(-68 -57)"/><path d="M217.93945,666.08984a7.60646,7.60646,0,0,0,5.5127,2.33984c2.02783,0,3.01563-.96191,3.01563-1.9502,0-1.2998-1.50781-1.74219-3.50977-2.21-2.834-.65039-6.47461-1.43066-6.47461-5.30469,0-2.88574,2.49609-5.22559,6.57861-5.22559a9.64811,9.64811,0,0,1,6.76025,2.418l-2.0542,2.7041a7.39934,7.39934,0,0,0-4.96631-1.89844c-1.66406,0-2.54785.72852-2.54785,1.76855,0,1.16992,1.45605,1.53418,3.458,2.002,2.86035.64941,6.5,1.50781,6.5,5.35645,0,3.17188-2.26172,5.56348-6.94189,5.56348a9.8878,9.8878,0,0,1-7.33252-2.75586Z" transform="translate(-68 -57)"/><path d="M231.82324,665.0498a6.64343,6.64343,0,1,1,6.63037,6.60352A6.36108,6.36108,0,0,1,231.82324,665.0498Zm9.85449,0c0-1.9502-1.16992-3.64062-3.22412-3.64062s-3.19824,1.69043-3.19824,3.64063c0,1.97559,1.144,3.666,3.19824,3.666S241.67773,667.02539,241.67773,665.0498Z" transform="translate(-68 -57)"/><path d="M248.28125,661.66895h-2.08008V658.7832h2.08008v-.67578a4.04767,4.04767,0,0,1,4.23828-4.36816,5.34455,5.34455,0,0,1,2.3916.51953l-.67578,2.33984a2.0298,2.0298,0,0,0-1.06592-.25977c-.936,0-1.56006.624-1.56006,1.82031v.624h2.54785v2.88574h-2.54785v9.67285h-3.32812Z" transform="translate(-68 -57)"/><path d="M256.70508,668.22168v-6.55273H254.625V658.7832h2.08008v-3.43262h3.32813v3.43262h2.54785v2.88574H260.0332v5.66895c0,.7793.416,1.37793,1.144,1.37793a1.80608,1.80608,0,0,0,1.144-.36426l.70215,2.49609a4.07511,4.07511,0,0,1-2.75635.80566C257.95313,671.65332,256.70508,670.458,256.70508,668.22168Z" transform="translate(-68 -57)"/><path d="M273.21533,662.78711l-2.65186,8.55469h-3.53613l-3.82227-12.55859h3.43213l2.34033,8.4502,2.75586-8.4502h2.938l2.75635,8.4502,2.33984-8.4502h3.43213l-3.82178,12.55859h-3.51025Z" transform="translate(-68 -57)"/><path d="M292.37744,670.042a5.197,5.197,0,0,1-3.978,1.61133,4.18348,4.18348,0,0,1-4.36816-4.16016c0-2.9375,2.36621-4.00391,4.36816-4.00391a5.07671,5.07671,0,0,1,3.978,1.53418v-1.74219c0-1.27441-1.0918-2.10645-2.75586-2.10645a5.28489,5.28489,0,0,0-3.6665,1.48242l-1.248-2.21a8.23656,8.23656,0,0,1,5.48633-1.97656c2.86035,0,5.48633,1.14453,5.48633,4.75879v8.1123h-3.30225Zm0-3.27637a3.3006,3.3006,0,0,0-2.65186-1.0918c-1.30029,0-2.36621.67578-2.36621,1.89746,0,1.16992,1.06592,1.84668,2.36621,1.84668a3.30122,3.30122,0,0,0,2.65186-1.09277Z" transform="translate(-68 -57)"/><path d="M298.95557,658.7832h3.30225V660.499a5.371,5.371,0,0,1,4.00391-2.002v3.22461a4.12984,4.12984,0,0,0-.91016-.10449,4.20725,4.20725,0,0,0-3.09375,1.42969v8.29492h-3.30225Z" transform="translate(-68 -57)"/><path d="M314.00879,658.4707c3.74414,0,6.29248,2.80859,6.29248,6.917v.72754H310.9668a3.38438,3.38438,0,0,0,3.61426,2.91211,5.13458,5.13458,0,0,0,3.354-1.248l1.45605,2.13184a7.82545,7.82545,0,0,1-5.17432,1.74219,6.59214,6.59214,0,1,1-.208-13.18262Zm-3.09375,5.4082h6.188a2.90837,2.90837,0,0,0-3.09424-2.78125A3.01708,3.01708,0,0,0,310.915,663.87891Z" transform="translate(-68 -57)"/><path d="M327.2168,653.47852h2.39209l-6.16211,18.38281h-2.39209Z" transform="translate(-68 -57)"/><path d="M233.92969,692.72949a4.8753,4.8753,0,0,1-3.874,1.92383c-3.17236,0-5.56445-2.3916-5.56445-6.57812,0-4.1084,2.36621-6.60449,5.56445-6.60449a4.83653,4.83653,0,0,1,3.874,1.9248V676.999h3.32813V694.3418h-3.32812Zm0-6.89062a3.59244,3.59244,0,0,0-2.86035-1.42969c-1.87207,0-3.17187,1.48242-3.17187,3.666,0,2.1582,1.2998,3.64063,3.17188,3.64063a3.59326,3.59326,0,0,0,2.86035-1.43066Z" transform="translate(-68 -57)"/><path d="M248.07324,693.042a5.197,5.197,0,0,1-3.978,1.61133,4.18348,4.18348,0,0,1-4.36816-4.16016c0-2.9375,2.36621-4.00391,4.36816-4.00391a5.07671,5.07671,0,0,1,3.978,1.53418v-1.74219c0-1.27441-1.0918-2.10645-2.75586-2.10645a5.28288,5.28288,0,0,0-3.666,1.48242l-1.248-2.21a8.23442,8.23442,0,0,1,5.48584-1.97656c2.86035,0,5.48633,1.14453,5.48633,4.75879v8.1123h-3.30225Zm0-3.27637a3.3006,3.3006,0,0,0-2.65186-1.0918c-1.30029,0-2.36621.67578-2.36621,1.89746,0,1.16992,1.06592,1.84668,2.36621,1.84668a3.30122,3.30122,0,0,0,2.65186-1.09277Z" transform="translate(-68 -57)"/><path d="M255.30127,691.22168v-6.55273h-2.08008V681.7832h2.08008v-3.43262h3.32813v3.43262h2.54834v2.88574h-2.54834v5.66895c0,.7793.416,1.37793,1.144,1.37793a1.80608,1.80608,0,0,0,1.144-.36426l.70215,2.49609a4.07606,4.07606,0,0,1-2.75635.80566C256.54932,694.65332,255.30127,693.458,255.30127,691.22168Z" transform="translate(-68 -57)"/><path d="M270.97949,693.042a5.197,5.197,0,0,1-3.978,1.61133,4.18348,4.18348,0,0,1-4.36816-4.16016c0-2.9375,2.36621-4.00391,4.36816-4.00391a5.07671,5.07671,0,0,1,3.978,1.53418v-1.74219c0-1.27441-1.0918-2.10645-2.75586-2.10645a5.28288,5.28288,0,0,0-3.666,1.48242l-1.248-2.21a8.23442,8.23442,0,0,1,5.48584-1.97656c2.86035,0,5.48633,1.14453,5.48633,4.75879v8.1123h-3.30225Zm0-3.27637a3.3006,3.3006,0,0,0-2.65186-1.0918c-1.30029,0-2.36621.67578-2.36621,1.89746,0,1.16992,1.06592,1.84668,2.36621,1.84668a3.30122,3.30122,0,0,0,2.65186-1.09277Z" transform="translate(-68 -57)"/><path d="M292.68945,686.749a2.03738,2.03738,0,0,0-2.314-2.33984,3.57607,3.57607,0,0,0-2.85986,1.48242v8.4502h-3.30225V681.7832h3.30225v1.6377a5.74979,5.74979,0,0,1,4.394-1.9502c2.75586,0,4.082,1.56055,4.082,4.00488v8.86621h-3.30225Z" transform="translate(-68 -57)"/><path d="M298.46094,688.0498a6.64343,6.64343,0,1,1,6.63037,6.60352A6.36108,6.36108,0,0,1,298.46094,688.0498Zm9.85449,0c0-1.9502-1.16992-3.64062-3.22412-3.64062s-3.19824,1.69043-3.19824,3.64063c0,1.97559,1.144,3.666,3.19824,3.666S308.31543,690.02539,308.31543,688.0498Z" transform="translate(-68 -57)"/><path d="M314.84082,691.22168v-6.55273h-2.08008V681.7832h2.08008v-3.43262h3.32813v3.43262h2.54785v2.88574h-2.54785v5.66895c0,.7793.416,1.37793,1.144,1.37793a1.80608,1.80608,0,0,0,1.144-.36426l.70215,2.49609a4.07511,4.07511,0,0,1-2.75635.80566C316.08887,694.65332,314.84082,693.458,314.84082,691.22168Z" transform="translate(-68 -57)"/><path d="M205.62939,699.999h3.30225V717.3418h-3.30225Z" transform="translate(-68 -57)"/><path d="M211.86914,701.19531a1.97607,1.97607,0,1,1,1.97559,1.97559A1.99163,1.99163,0,0,1,211.86914,701.19531Zm.33789,3.58789h3.30176V717.3418H212.207Z" transform="translate(-68 -57)"/><path d="M224.63477,704.4707a5.843,5.843,0,0,1,4.96631,2.2627l-2.1582,2.02832a3.04445,3.04445,0,0,0-2.65186-1.35254,3.66228,3.66228,0,0,0,0,7.30664,3.17025,3.17025,0,0,0,2.65186-1.35254l2.1582,2.002a5.78844,5.78844,0,0,1-4.96631,2.28809,6.59163,6.59163,0,1,1,0-13.18262Z" transform="translate(-68 -57)"/><path d="M237.45215,704.4707c3.74414,0,6.29248,2.80859,6.29248,6.917v.72754h-9.33447a3.38438,3.38438,0,0,0,3.61426,2.91211,5.13458,5.13458,0,0,0,3.354-1.248l1.45605,2.13184a7.82545,7.82545,0,0,1-5.17432,1.74219,6.59214,6.59214,0,1,1-.208-13.18262Zm-3.09375,5.4082h6.188a2.90837,2.90837,0,0,0-3.09424-2.78125A3.01708,3.01708,0,0,0,234.3584,709.87891Z" transform="translate(-68 -57)"/><path d="M254.6123,709.749a2.03738,2.03738,0,0,0-2.314-2.33984,3.57607,3.57607,0,0,0-2.85986,1.48242v8.4502h-3.30225V704.7832h3.30225v1.6377a5.74979,5.74979,0,0,1,4.394-1.9502c2.75586,0,4.082,1.56055,4.082,4.00488v8.86621H254.6123Z" transform="translate(-68 -57)"/><path d="M261.52783,713.38965a7.1922,7.1922,0,0,0,4.34229,1.71582c1.42969,0,2.106-.49414,2.106-1.27441,0-.88379-1.09229-1.19531-2.522-1.48145-2.1582-.416-4.94043-.93652-4.94043-3.92676,0-2.10547,1.84619-3.95215,5.14844-3.95215a8.02188,8.02188,0,0,1,5.07031,1.7168l-1.32617,2.26172a5.29944,5.29944,0,0,0-3.71826-1.45605c-1.1958,0-1.97607.44238-1.97607,1.16992,0,.78027.98828,1.06641,2.39209,1.35254,2.1582.416,5.04443.9873,5.04443,4.10742,0,2.28809-1.9502,4.03027-5.43457,4.03027a8.451,8.451,0,0,1-5.61621-1.9502Z" transform="translate(-68 -57)"/><path d="M279.28613,704.4707c3.74414,0,6.292,2.80859,6.292,6.917v.72754h-9.33447a3.38405,3.38405,0,0,0,3.61426,2.91211,5.13361,5.13361,0,0,0,3.354-1.248l1.45605,2.13184a7.825,7.825,0,0,1-5.17383,1.74219,6.59214,6.59214,0,1,1-.208-13.18262Zm-3.09424,5.4082h6.188a2.90886,2.90886,0,0,0-3.09375-2.78125A3.01722,3.01722,0,0,0,276.19189,709.87891Z" transform="translate(-68 -57)"/><path d="M296.60205,715.72949a4.87553,4.87553,0,0,1-3.87451,1.92383c-3.17187,0-5.564-2.3916-5.564-6.57812,0-4.1084,2.36621-6.60449,5.564-6.60449a4.83676,4.83676,0,0,1,3.87451,1.9248V699.999h3.32813V717.3418h-3.32812Zm0-6.89062a3.59316,3.59316,0,0,0-2.86035-1.42969c-1.87207,0-3.17187,1.48242-3.17187,3.666,0,2.1582,1.2998,3.64063,3.17188,3.64063a3.594,3.594,0,0,0,2.86035-1.43066Z" transform="translate(-68 -57)"/><path d="M310.58936,707.66895h-2.08008V704.7832h2.08008v-.67578a4.04755,4.04755,0,0,1,4.23779-4.36816,5.34743,5.34743,0,0,1,2.39258.51953l-.67627,2.33984a2.031,2.031,0,0,0-1.06592-.25977c-.936,0-1.56006.624-1.56006,1.82031v.624h2.54785v2.88574h-2.54785v9.67285h-3.32812Z" transform="translate(-68 -57)"/><path d="M317.55713,711.0498a6.64343,6.64343,0,1,1,6.63037,6.60352A6.36108,6.36108,0,0,1,317.55713,711.0498Zm9.85449,0c0-1.9502-1.17041-3.64062-3.22412-3.64062-2.0542,0-3.19824,1.69043-3.19824,3.64063,0,1.97559,1.144,3.666,3.19824,3.666C326.24121,714.71582,327.41162,713.02539,327.41162,711.0498Z" transform="translate(-68 -57)"/><path d="M333.28711,704.7832h3.30176V706.499a5.37279,5.37279,0,0,1,4.00439-2.002v3.22461a4.12984,4.12984,0,0,0-.91016-.10449,4.20918,4.20918,0,0,0-3.09424,1.42969v8.29492h-3.30176Z" transform="translate(-68 -57)"/><path d="M226.29883,736.38965a7.1922,7.1922,0,0,0,4.34229,1.71582c1.43018,0,2.106-.49414,2.106-1.27441,0-.88379-1.0918-1.19531-2.522-1.48145-2.1582-.416-4.94043-.93652-4.94043-3.92676,0-2.10547,1.84619-3.95215,5.14844-3.95215a8.02044,8.02044,0,0,1,5.06982,1.7168l-1.32568,2.26172a5.30035,5.30035,0,0,0-3.71826-1.45605c-1.19629,0-1.97607.44238-1.97607,1.16992,0,.78027.98779,1.06641,2.39209,1.35254,2.1582.416,5.04395.9873,5.04395,4.10742,0,2.28809-1.94971,4.03027-5.43408,4.03027a8.451,8.451,0,0,1-5.61621-1.9502Z" transform="translate(-68 -57)"/><path d="M246.86523,732.69727c0-1.74219-.91016-2.28809-2.34033-2.28809a3.6582,3.6582,0,0,0-2.85986,1.48242v8.4502h-3.30225V722.999H241.665v6.42188a5.81026,5.81026,0,0,1,4.41992-1.9502c2.75586,0,4.082,1.50879,4.082,3.95215v8.91895h-3.30176Z" transform="translate(-68 -57)"/><path d="M260.98242,739.042a5.197,5.197,0,0,1-3.978,1.61133,4.18348,4.18348,0,0,1-4.36816-4.16016c0-2.9375,2.36621-4.00391,4.36816-4.00391a5.07671,5.07671,0,0,1,3.978,1.53418v-1.74219c0-1.27441-1.0918-2.10645-2.75586-2.10645a5.28288,5.28288,0,0,0-3.666,1.48242l-1.248-2.21a8.23442,8.23442,0,0,1,5.48584-1.97656c2.86035,0,5.48633,1.14453,5.48633,4.75879v8.1123h-3.30225Zm0-3.27637a3.30061,3.30061,0,0,0-2.65186-1.0918c-1.30029,0-2.36621.67578-2.36621,1.89746,0,1.16992,1.06592,1.84668,2.36621,1.84668a3.30122,3.30122,0,0,0,2.65186-1.09277Z" transform="translate(-68 -57)"/><path d="M267.56055,727.7832h3.30176V729.499a5.37279,5.37279,0,0,1,4.00439-2.002v3.22461a4.12984,4.12984,0,0,0-.91016-.10449,4.20918,4.20918,0,0,0-3.09424,1.42969v8.29492h-3.30176Z" transform="translate(-68 -57)"/><path d="M276.582,724.19531a1.97607,1.97607,0,1,1,1.97656,1.97559A1.99215,1.99215,0,0,1,276.582,724.19531Zm.33838,3.58789h3.30225V740.3418h-3.30225Z" transform="translate(-68 -57)"/><path d="M291.97412,732.749a2.0372,2.0372,0,0,0-2.314-2.33984,3.57855,3.57855,0,0,0-2.86035,1.48242v8.4502H283.498V727.7832h3.30176v1.6377a5.75175,5.75175,0,0,1,4.39453-1.9502c2.75586,0,4.082,1.56055,4.082,4.00488v8.86621h-3.30225Z" transform="translate(-68 -57)"/><path d="M299.77344,741.17383a4.991,4.991,0,0,0,3.92627,1.55957c1.58643,0,3.4585-.70215,3.4585-3.17187v-1.27441a4.89172,4.89172,0,0,1-3.87451,1.97656c-3.146,0-5.53809-2.21-5.53809-6.39648,0-4.1084,2.36621-6.39648,5.53809-6.39648a4.83676,4.83676,0,0,1,3.87451,1.9248v-1.6123h3.32813v11.7002c0,4.78418-3.69238,5.9541-6.78662,5.9541a7.61055,7.61055,0,0,1-5.4082-1.87207Zm7.38477-9.335a3.581,3.581,0,0,0-2.83447-1.42969c-1.87207,0-3.17187,1.2998-3.17187,3.458s1.2998,3.458,3.17188,3.458a3.65885,3.65885,0,0,0,2.83447-1.42969Z" transform="translate(-68 -57)"/><path d="M318.28564,722.47852h2.39209l-6.16211,18.38281h-2.39209Z" transform="translate(-68 -57)"/><path d="M194.98242,750.7832h3.30176V752.499a5.37279,5.37279,0,0,1,4.00439-2.002v3.22461a4.12984,4.12984,0,0,0-.91016-.10449,4.20918,4.20918,0,0,0-3.09424,1.42969v8.29492h-3.30176Z" transform="translate(-68 -57)"/><path d="M210.03613,750.4707c3.74414,0,6.29248,2.80859,6.29248,6.917v.72754h-9.33447a3.38438,3.38438,0,0,0,3.61426,2.91211,5.13458,5.13458,0,0,0,3.354-1.248l1.45605,2.13184a7.82545,7.82545,0,0,1-5.17432,1.74219,6.59214,6.59214,0,1,1-.208-13.18262Zm-3.09375,5.4082h6.188a2.90837,2.90837,0,0,0-3.09424-2.78125A3.01708,3.01708,0,0,0,206.94238,755.87891Z" transform="translate(-68 -57)"/><path d="M227.35254,761.72949a4.8753,4.8753,0,0,1-3.874,1.92383c-3.17236,0-5.56445-2.3916-5.56445-6.57812,0-4.1084,2.36621-6.60449,5.56445-6.60449a4.83653,4.83653,0,0,1,3.874,1.9248V745.999h3.32813V763.3418h-3.32812Zm0-6.89062a3.59244,3.59244,0,0,0-2.86035-1.42969c-1.87207,0-3.17187,1.48242-3.17187,3.666,0,2.1582,1.2998,3.64063,3.17188,3.64063a3.59326,3.59326,0,0,0,2.86035-1.43066Z" transform="translate(-68 -57)"/><path d="M233.61816,747.19531a1.97607,1.97607,0,1,1,1.97559,1.97559A1.99163,1.99163,0,0,1,233.61816,747.19531Zm.33789,3.58789h3.30176V763.3418h-3.30176Z" transform="translate(-68 -57)"/><path d="M240.87158,759.38965a7.1922,7.1922,0,0,0,4.34229,1.71582c1.42969,0,2.106-.49414,2.106-1.27441,0-.88379-1.09229-1.19531-2.522-1.48145-2.1582-.416-4.94043-.93652-4.94043-3.92676,0-2.10547,1.84619-3.95215,5.14844-3.95215a8.02188,8.02188,0,0,1,5.07031,1.7168L248.75,754.44922a5.29944,5.29944,0,0,0-3.71826-1.45605c-1.1958,0-1.97607.44238-1.97607,1.16992,0,.78027.98828,1.06641,2.39209,1.35254,2.1582.416,5.04443.9873,5.04443,4.10742,0,2.28809-1.9502,4.03027-5.43457,4.03027a8.451,8.451,0,0,1-5.61621-1.9502Z" transform="translate(-68 -57)"/><path d="M253.58545,760.22168v-6.55273h-2.08008V750.7832h2.08008v-3.43262h3.32813v3.43262h2.54834v2.88574h-2.54834v5.66895c0,.7793.416,1.37793,1.144,1.37793a1.80608,1.80608,0,0,0,1.144-.36426l.70215,2.49609a4.07606,4.07606,0,0,1-2.75635.80566C254.8335,763.65332,253.58545,762.458,253.58545,760.22168Z" transform="translate(-68 -57)"/><path d="M261.72363,750.7832h3.30176V752.499a5.37279,5.37279,0,0,1,4.00439-2.002v3.22461a4.12984,4.12984,0,0,0-.91016-.10449,4.20918,4.20918,0,0,0-3.09424,1.42969v8.29492h-3.30176Z" transform="translate(-68 -57)"/><path d="M270.74512,747.19531a1.97607,1.97607,0,1,1,1.97656,1.97559A1.99215,1.99215,0,0,1,270.74512,747.19531Zm.33838,3.58789h3.30225V763.3418H271.0835Z" transform="translate(-68 -57)"/><path d="M277.66113,745.999h3.30176v6.39648a4.83744,4.83744,0,0,1,3.87451-1.9248c3.19775,0,5.564,2.49609,5.564,6.60449,0,4.18652-2.39209,6.57813-5.564,6.57813a4.87553,4.87553,0,0,1-3.87451-1.92383v1.6123h-3.30176Zm6.13623,14.7168c1.92383,0,3.19775-1.45605,3.19775-3.64062,0-2.18359-1.27393-3.666-3.19775-3.666a3.64486,3.64486,0,0,0-2.83447,1.45605v4.44629A3.67808,3.67808,0,0,0,283.79736,760.71582Z" transform="translate(-68 -57)"/><path d="M301.373,761.75586a5.87769,5.87769,0,0,1-4.41992,1.89746c-2.75635,0-4.05615-1.50781-4.05615-3.95215v-8.918h3.30225v7.61816a2.01909,2.01909,0,0,0,2.314,2.31445,3.69478,3.69478,0,0,0,2.85986-1.43066v-8.502h3.30225V763.3418H301.373Z" transform="translate(-68 -57)"/><path d="M308.60059,760.22168v-6.55273h-2.08008V750.7832h2.08008v-3.43262h3.32813v3.43262h2.54785v2.88574h-2.54785v5.66895c0,.7793.416,1.37793,1.144,1.37793a1.80608,1.80608,0,0,0,1.144-.36426l.70215,2.49609a4.07511,4.07511,0,0,1-2.75635.80566C309.84863,763.65332,308.60059,762.458,308.60059,760.22168Z" transform="translate(-68 -57)"/><path d="M316.40039,747.19531a1.97607,1.97607,0,1,1,1.97656,1.97559A1.99215,1.99215,0,0,1,316.40039,747.19531Zm.33838,3.58789H320.041V763.3418h-3.30225Z" transform="translate(-68 -57)"/><path d="M322.51025,757.0498a6.64343,6.64343,0,1,1,6.63037,6.60352A6.36108,6.36108,0,0,1,322.51025,757.0498Zm9.85449,0c0-1.9502-1.17041-3.64062-3.22412-3.64062-2.0542,0-3.19824,1.69043-3.19824,3.64063,0,1.97559,1.144,3.666,3.19824,3.666C331.19434,760.71582,332.36475,759.02539,332.36475,757.0498Z" transform="translate(-68 -57)"/><path d="M346.71631,755.749a2.0372,2.0372,0,0,0-2.314-2.33984,3.57855,3.57855,0,0,0-2.86035,1.48242v8.4502h-3.30176V750.7832H341.542v1.6377a5.75175,5.75175,0,0,1,4.39453-1.9502c2.75586,0,4.082,1.56055,4.082,4.00488v8.86621h-3.30225Z" transform="translate(-68 -57)"/><rect class="cls-3" x="614" y="568.14" width="207" height="175" rx="12" ry="12"/><path d="M714.375,677.06836h3.74414v10.29688c0,2.418,1.32568,4.082,4.02979,4.082,2.65234,0,3.978-1.66406,3.978-4.082V677.06836h3.74414v10.40039c0,4.31641-2.46973,7.25488-7.72217,7.25488-5.3042,0-7.77393-2.96484-7.77393-7.22852Z" transform="translate(-68 -57)"/><path d="M741.70068,686.81934a2.0379,2.0379,0,0,0-2.314-2.34082,3.57855,3.57855,0,0,0-2.86035,1.48242v8.4502h-3.30176V681.85254h3.30176v1.63867a5.75175,5.75175,0,0,1,4.39453-1.9502c2.75586,0,4.082,1.55957,4.082,4.00391v8.86621h-3.30225Z" transform="translate(-68 -57)"/><path d="M747.94043,678.26465a1.97607,1.97607,0,1,1,1.97559,1.97656A1.99143,1.99143,0,0,1,747.94043,678.26465Zm.33789,3.58789h3.30176v12.55859h-3.30176Z" transform="translate(-68 -57)"/><path d="M763.332,686.81934a2.03808,2.03808,0,0,0-2.314-2.34082,3.57607,3.57607,0,0,0-2.85986,1.48242v8.4502H754.856V681.85254h3.30225v1.63867a5.74979,5.74979,0,0,1,4.394-1.9502c2.75586,0,4.082,1.55957,4.082,4.00391v8.86621H763.332Z" transform="translate(-68 -57)"/><path d="M770.55957,691.291v-6.55176h-2.08008v-2.88672h2.08008V678.4209h3.32813v3.43164h2.54785v2.88672H773.8877v5.668c0,.78027.416,1.37793,1.144,1.37793a1.80028,1.80028,0,0,0,1.144-.36426l.70215,2.49609a4.07463,4.07463,0,0,1-2.75635.80664C771.80762,694.72363,770.55957,693.52734,770.55957,691.291Z" transform="translate(-68 -57)"/><path d="M784.3916,681.541c3.74414,0,6.29248,2.80762,6.29248,6.916v.72852h-9.33447a3.38438,3.38438,0,0,0,3.61426,2.91211,5.13971,5.13971,0,0,0,3.354-1.248l1.45605,2.13184a7.83062,7.83062,0,0,1-5.17432,1.74219,6.59214,6.59214,0,1,1-.208-13.18262Zm-3.09375,5.4082h6.188a2.90849,2.90849,0,0,0-3.09424-2.78223A3.01783,3.01783,0,0,0,781.29785,686.94922Z" transform="translate(-68 -57)"/><path d="M801.55176,686.81934a2.03808,2.03808,0,0,0-2.314-2.34082,3.57607,3.57607,0,0,0-2.85986,1.48242v8.4502h-3.30225V681.85254h3.30225v1.63867a5.74979,5.74979,0,0,1,4.394-1.9502c2.75586,0,4.082,1.55957,4.082,4.00391v8.86621h-3.30225Z" transform="translate(-68 -57)"/><path d="M816.76172,692.79883a4.87628,4.87628,0,0,1-3.874,1.9248c-3.17236,0-5.56445-2.39258-5.56445-6.57812,0-4.1084,2.36621-6.60449,5.56445-6.60449a4.83554,4.83554,0,0,1,3.874,1.92383v-6.39648h3.32813v17.34277h-3.32812Zm0-6.88965a3.59326,3.59326,0,0,0-2.86035-1.43066c-1.87207,0-3.17187,1.48242-3.17187,3.667,0,2.15723,1.2998,3.63965,3.17188,3.63965a3.59244,3.59244,0,0,0,2.86035-1.42969Z" transform="translate(-68 -57)"/><path d="M829.05957,681.541c3.74414,0,6.292,2.80762,6.292,6.916v.72852h-9.33447a3.38405,3.38405,0,0,0,3.61426,2.91211,5.13874,5.13874,0,0,0,3.354-1.248l1.45605,2.13184a7.8302,7.8302,0,0,1-5.17383,1.74219,6.59214,6.59214,0,1,1-.208-13.18262Zm-3.09424,5.4082h6.188a2.909,2.909,0,0,0-3.09375-2.78223A3.018,3.018,0,0,0,825.96533,686.94922Z" transform="translate(-68 -57)"/><path d="M846.37549,692.79883a4.87651,4.87651,0,0,1-3.87451,1.9248c-3.17187,0-5.564-2.39258-5.564-6.57812,0-4.1084,2.36621-6.60449,5.564-6.60449a4.83577,4.83577,0,0,1,3.87451,1.92383v-6.39648h3.32813v17.34277h-3.32812Zm0-6.88965a3.594,3.594,0,0,0-2.86035-1.43066c-1.87207,0-3.17187,1.48242-3.17187,3.667,0,2.15723,1.2998,3.63965,3.17188,3.63965a3.59316,3.59316,0,0,0,2.86035-1.42969Z" transform="translate(-68 -57)"/><path d="M714.97363,700.06836h3.30176v6.39648a4.83644,4.83644,0,0,1,3.87451-1.92383c3.19775,0,5.564,2.49609,5.564,6.60449,0,4.18555-2.39209,6.57813-5.564,6.57813a4.87651,4.87651,0,0,1-3.87451-1.9248v1.6123h-3.30176Zm6.13623,14.7168c1.92383,0,3.19775-1.45605,3.19775-3.63965,0-2.18457-1.27393-3.667-3.19775-3.667a3.64487,3.64487,0,0,0-2.83447,1.45605v4.44629A3.675,3.675,0,0,0,721.10986,714.78516Z" transform="translate(-68 -57)"/><path d="M729.87109,701.26465a1.97607,1.97607,0,1,1,1.97656,1.97656A1.99195,1.99195,0,0,1,729.87109,701.26465Zm.33838,3.58789h3.30225v12.55859h-3.30225Z" transform="translate(-68 -57)"/><path d="M745.26318,709.81934a2.0379,2.0379,0,0,0-2.314-2.34082,3.57855,3.57855,0,0,0-2.86035,1.48242v8.4502h-3.30176V704.85254h3.30176v1.63867a5.75175,5.75175,0,0,1,4.39453-1.9502c2.75586,0,4.082,1.55957,4.082,4.00391v8.86621h-3.30225Z" transform="translate(-68 -57)"/><path d="M759.38086,716.11133a5.19761,5.19761,0,0,1-3.978,1.6123,4.1841,4.1841,0,0,1-4.36816-4.16016c0-2.93848,2.36621-4.00488,4.36816-4.00488a5.07671,5.07671,0,0,1,3.978,1.53418v-1.74219c0-1.27344-1.0918-2.10547-2.75586-2.10547a5.28618,5.28618,0,0,0-3.666,1.48145l-1.248-2.21a8.23846,8.23846,0,0,1,5.48584-1.97559c2.86035,0,5.48633,1.14355,5.48633,4.75781v8.1123h-3.30225Zm0-3.27637a3.30366,3.30366,0,0,0-2.65186-1.0918c-1.30029,0-2.36621.67578-2.36621,1.89844,0,1.16992,1.06592,1.8457,2.36621,1.8457a3.30366,3.30366,0,0,0,2.65186-1.0918Z" transform="translate(-68 -57)"/><path d="M765.959,704.85254h3.30176v1.7168a5.37373,5.37373,0,0,1,4.00439-2.00293V707.791a4.05242,4.05242,0,0,0-4.00439,1.32617v8.29395H765.959Z" transform="translate(-68 -57)"/><path d="M776.41064,719.56934a1.66654,1.66654,0,0,0,1.74219-.91016l.46826-1.06543-5.09668-12.74121h3.53613l3.27637,8.73633,3.27637-8.73633h3.562l-5.90234,14.61328c-.936,2.36523-2.6001,2.98926-4.7583,3.042a8.98451,8.98451,0,0,1-1.6377-.18262l.49365-2.96387A2.85626,2.85626,0,0,0,776.41064,719.56934Z" transform="translate(-68 -57)"/><path d="M796.04,707.73926H793.96v-2.88672H796.04v-.67578a4.04767,4.04767,0,0,1,4.23828-4.36816,5.331,5.331,0,0,1,2.3916.52051l-.67578,2.3916a1.85354,1.85354,0,0,0-1.06592-.31152c-.936,0-1.56006.624-1.56006,1.76758v.67578H801.916v2.88672h-2.54785v9.67188H796.04Zm7.436-6.47461a1.97607,1.97607,0,1,1,1.97607,1.97656A1.99185,1.99185,0,0,1,803.47607,701.26465Zm.33838,3.58789h3.30176v12.55859h-3.30176Z" transform="translate(-68 -57)"/><path d="M810.3916,700.06836h3.30176v17.34277H810.3916Z" transform="translate(-68 -57)"/><path d="M822.66309,704.541c3.74414,0,6.29248,2.80762,6.29248,6.916v.72852h-9.33447a3.38438,3.38438,0,0,0,3.61426,2.91211,5.13971,5.13971,0,0,0,3.354-1.248l1.45605,2.13184a7.83062,7.83062,0,0,1-5.17432,1.74219,6.59214,6.59214,0,1,1-.208-13.18262Zm-3.09375,5.4082h6.188a2.90849,2.90849,0,0,0-3.09424-2.78223A3.01783,3.01783,0,0,0,819.56934,709.94922Z" transform="translate(-68 -57)"/><path d="M831.68506,713.459a7.18628,7.18628,0,0,0,4.34229,1.71582c1.42969,0,2.106-.49316,2.106-1.27344,0-.88379-1.09229-1.19629-2.522-1.48242-2.1582-.416-4.94043-.93555-4.94043-3.92578,0-2.10645,1.84619-3.95215,5.14844-3.95215a8.02149,8.02149,0,0,1,5.07031,1.71582l-1.32617,2.26172a5.29944,5.29944,0,0,0-3.71826-1.45605c-1.1958,0-1.97607.44238-1.97607,1.1709,0,.7793.98828,1.06543,2.39209,1.35156,2.1582.416,5.04443.98828,5.04443,4.1084,0,2.28809-1.9502,4.03027-5.43457,4.03027a8.456,8.456,0,0,1-5.61621-1.9502Z" transform="translate(-68 -57)"/><path d="M848.27295,699.54883H850.665l-6.16211,18.38281h-2.39209Z" transform="translate(-68 -57)"/><path d="M719.39258,727.541c3.74414,0,6.29248,2.80762,6.29248,6.916v.72852h-9.33447a3.38438,3.38438,0,0,0,3.61426,2.91211,5.13971,5.13971,0,0,0,3.354-1.248l1.45605,2.13184a7.83062,7.83062,0,0,1-5.17432,1.74219,6.59214,6.59214,0,1,1-.208-13.18262Zm-3.09375,5.4082h6.188a2.90849,2.90849,0,0,0-3.09424-2.78223A3.01783,3.01783,0,0,0,716.29883,732.94922Z" transform="translate(-68 -57)"/><path d="M732.10693,736.17285l-2.88623,4.23828h-3.666l4.44629-6.44824-4.18652-6.11035h3.69238l2.6001,3.874,2.57422-3.874H738.373l-4.21191,6.11035,4.498,6.44824H734.9668Z" transform="translate(-68 -57)"/><path d="M745.36719,727.541c3.74414,0,6.29248,2.80762,6.29248,6.916v.72852H742.3252a3.38438,3.38438,0,0,0,3.61426,2.91211,5.13971,5.13971,0,0,0,3.354-1.248l1.45605,2.13184a7.83062,7.83062,0,0,1-5.17432,1.74219,6.59214,6.59214,0,1,1-.208-13.18262Zm-3.09375,5.4082h6.188a2.90849,2.90849,0,0,0-3.09424-2.78223A3.01783,3.01783,0,0,0,742.27344,732.94922Z" transform="translate(-68 -57)"/><path d="M759.90137,727.541a5.84518,5.84518,0,0,1,4.96631,2.26172l-2.1582,2.02832a3.04667,3.04667,0,0,0-2.65186-1.35254,3.66228,3.66228,0,0,0,0,7.30664,3.16943,3.16943,0,0,0,2.65186-1.35156l2.1582,2.002a5.78844,5.78844,0,0,1-4.96631,2.28809,6.59163,6.59163,0,1,1,0-13.18262Z" transform="translate(-68 -57)"/><path d="M775.501,738.8252a5.87811,5.87811,0,0,1-4.41992,1.89844c-2.75635,0-4.05615-1.50879-4.05615-3.95215v-8.91895h3.30225v7.61816a2.01909,2.01909,0,0,0,2.314,2.31445,3.697,3.697,0,0,0,2.85986-1.42969v-8.50293h3.30225v12.55859H775.501Z" transform="translate(-68 -57)"/><path d="M782.72852,737.291v-6.55176h-2.08008v-2.88672h2.08008V724.4209h3.32813v3.43164h2.54785v2.88672h-2.54785v5.668c0,.78027.416,1.37793,1.144,1.37793a1.80028,1.80028,0,0,0,1.144-.36426l.70215,2.49609a4.07463,4.07463,0,0,1-2.75635.80664C783.97656,740.72363,782.72852,739.52734,782.72852,737.291Z" transform="translate(-68 -57)"/><path d="M798.40674,739.11133a5.19761,5.19761,0,0,1-3.978,1.6123,4.1841,4.1841,0,0,1-4.36816-4.16016c0-2.93848,2.36621-4.00488,4.36816-4.00488a5.07671,5.07671,0,0,1,3.978,1.53418v-1.74219c0-1.27344-1.0918-2.10547-2.75586-2.10547a5.28819,5.28819,0,0,0-3.6665,1.48145l-1.248-2.21a8.2406,8.2406,0,0,1,5.48633-1.97559c2.86035,0,5.48633,1.14355,5.48633,4.75781v8.1123h-3.30225Zm0-3.27637a3.30366,3.30366,0,0,0-2.65186-1.0918c-1.30029,0-2.36621.67578-2.36621,1.89844,0,1.16992,1.06592,1.8457,2.36621,1.8457a3.30366,3.30366,0,0,0,2.65186-1.0918Z" transform="translate(-68 -57)"/><path d="M804.98486,723.06836h3.30225v6.39648a4.83418,4.83418,0,0,1,3.874-1.92383c3.19824,0,5.564,2.49609,5.564,6.60449,0,4.18555-2.39209,6.57813-5.564,6.57813a4.87489,4.87489,0,0,1-3.874-1.9248v1.6123h-3.30225Zm6.13623,14.7168c1.92383,0,3.19824-1.45605,3.19824-3.63965,0-2.18457-1.27441-3.667-3.19824-3.667a3.64238,3.64238,0,0,0-2.834,1.45605v4.44629A3.67251,3.67251,0,0,0,811.12109,737.78516Z" transform="translate(-68 -57)"/><path d="M820.22021,723.06836h3.30225v17.34277h-3.30225Z" transform="translate(-68 -57)"/><path d="M832.49219,727.541c3.74414,0,6.29248,2.80762,6.29248,6.916v.72852H829.4502a3.38438,3.38438,0,0,0,3.61426,2.91211,5.13971,5.13971,0,0,0,3.354-1.248l1.45605,2.13184a7.83062,7.83062,0,0,1-5.17432,1.74219,6.59214,6.59214,0,1,1-.208-13.18262Zm-3.09375,5.4082h6.188a2.90849,2.90849,0,0,0-3.09424-2.78223A3.01783,3.01783,0,0,0,829.39844,732.94922Z" transform="translate(-68 -57)"/><path d="M841.51416,736.459a7.18628,7.18628,0,0,0,4.34229,1.71582c1.42969,0,2.106-.49316,2.106-1.27344,0-.88379-1.09229-1.19629-2.522-1.48242-2.1582-.416-4.94043-.93555-4.94043-3.92578,0-2.10645,1.84619-3.95215,5.14844-3.95215a8.02149,8.02149,0,0,1,5.07031,1.71582l-1.32617,2.26172a5.29944,5.29944,0,0,0-3.71826-1.45605c-1.1958,0-1.97607.44238-1.97607,1.1709,0,.7793.98828,1.06543,2.39209,1.35156,2.1582.416,5.04443.98828,5.04443,4.1084,0,2.28809-1.9502,4.03027-5.43457,4.03027a8.456,8.456,0,0,1-5.61621-1.9502Z" transform="translate(-68 -57)"/></g></svg>