<?xml version="1.0" encoding="UTF-8" standalone="no"?>
<svg
   xmlns:dc="http://purl.org/dc/elements/1.1/"
   xmlns:cc="http://creativecommons.org/ns#"
   xmlns:rdf="http://www.w3.org/1999/02/22-rdf-syntax-ns#"
   xmlns:svg="http://www.w3.org/2000/svg"
   xmlns="http://www.w3.org/2000/svg"
   xmlns:sodipodi="http://sodipodi.sourceforge.net/DTD/sodipodi-0.dtd"
   xmlns:inkscape="http://www.inkscape.org/namespaces/inkscape"
   viewBox="0 0 1762 687"
   version="1.1"
   id="svg536"
   sodipodi:docname="WhenToDepositSoftware.svg"
   inkscape:version="0.92.3 (2405546, 2018-03-11)">
  <metadata
     id="metadata540">
    <rdf:RDF>
      <cc:Work
         rdf:about="">
        <dc:format>image/svg+xml</dc:format>
        <dc:type
           rdf:resource="http://purl.org/dc/dcmitype/StillImage" />
      </cc:Work>
    </rdf:RDF>
  </metadata>
  <sodipodi:namedview
     pagecolor="#ffffff"
     bordercolor="#666666"
     borderopacity="1"
     objecttolerance="10"
     gridtolerance="10"
     guidetolerance="10"
     inkscape:pageopacity="0"
     inkscape:pageshadow="2"
     inkscape:window-width="1150"
     inkscape:window-height="925"
     id="namedview538"
     showgrid="false"
     inkscape:zoom="2.8513053"
     inkscape:cx="125.84517"
     inkscape:cy="677.6457"
     inkscape:window-x="483"
     inkscape:window-y="74"
     inkscape:window-maximized="0"
     inkscape:current-layer="Text" />
  <defs
     id="defs4">
    <style
       id="style2">.cls-1,.cls-4{fill:#fff;}.cls-2,.cls-6{fill:none;}.cls-2,.cls-4{stroke:#000;}.cls-2,.cls-4,.cls-6{stroke-miterlimit:10;}.cls-3{fill:#666;opacity:0.4;}.cls-5{fill:#e4d779;}.cls-6{stroke:#e9ca00;stroke-width:8.43661px;}.cls-7{fill:#e9ca00;}</style>
  </defs>
  <title
     id="title6">2.Whentodepositsoftware</title>
  <g
     id="Boxes">
    <rect
       class="cls-1"
       width="1762"
       height="687"
       rx="10.39714"
       ry="10.39714"
       id="rect8" />
    <rect
       class="cls-2"
       x="44"
       y="81"
       width="1056"
       height="275"
       rx="29.26023"
       ry="29.26023"
       id="rect10" />
    <rect
       class="cls-3"
       x="1230"
       y="72"
       width="476"
       height="557"
       rx="43.06287"
       ry="43.06287"
       id="rect12" />
  </g>
  <g
     id="Small_boxes"
     data-name="Small boxes">
    <rect
       class="cls-4"
       x="99.75"
       y="140.5"
       width="207"
       height="175"
       rx="12"
       ry="12"
       id="rect15" />
    <rect
       class="cls-4"
       x="347.33333"
       y="140.5"
       width="207"
       height="175"
       rx="12"
       ry="12"
       id="rect17" />
    <rect
       class="cls-4"
       x="842.5"
       y="140.5"
       width="207"
       height="175"
       rx="12"
       ry="12"
       id="rect19" />
    <rect
       class="cls-4"
       x="594.91667"
       y="140.5"
       width="207"
       height="175"
       rx="12"
       ry="12"
       id="rect21" />
    <rect
       class="cls-4"
       x="871"
       y="407"
       width="207"
       height="175"
       rx="12"
       ry="12"
       id="rect23" />
    <rect
       class="cls-1"
       x="1263"
       y="435"
       width="163"
       height="137"
       rx="9.42174"
       ry="9.42174"
       id="rect25" />
  </g>
  <g
     id="Text">
    <path
       d="M936.78809,261.999h8.1123a5.4119,5.4119,0,0,1,5.82422,5.59033c0,3.01611-2.08008,5.53809-5.82422,5.53809h-4.41992v6.21436h-3.69238Zm7.61865,3.17236h-3.92627v4.78418h3.92627a2.39685,2.39685,0,1,0,0-4.78418Z"
       transform="translate(-68 -57)"
       id="path28" />
    <path
       d="M952.93408,266.7832h3.30225v1.71631a5.37141,5.37141,0,0,1,4.00391-2.00244v3.22461a4.15962,4.15962,0,0,0-.91016-.10449,4.2059,4.2059,0,0,0-3.09375,1.43018v8.29443h-3.30225Z"
       transform="translate(-68 -57)"
       id="path30" />
    <path
       d="M961.4873,273.0498a6.64318,6.64318,0,1,1,6.62988,6.604A6.36057,6.36057,0,0,1,961.4873,273.0498Zm9.85449,0c0-1.9502-1.16992-3.64062-3.22461-3.64062-2.05371,0-3.19727,1.69043-3.19727,3.64063,0,1.97559,1.14355,3.666,3.19727,3.666C970.17188,276.71582,971.3418,275.02539,971.3418,273.0498Z"
       transform="translate(-68 -57)"
       id="path32" />
    <path
       d="M980.51953,279.67969c0,2.86035-1.45605,4.7583-4.47266,4.7583a7.08588,7.08588,0,0,1-1.42969-.12988l.208-2.7041a3.48378,3.48378,0,0,0,.72754.07764c.96289,0,1.66406-.59766,1.66406-2.002V266.7832h3.30273Zm-3.64062-16.48437a1.97607,1.97607,0,1,1,1.97656,1.97607A1.992,1.992,0,0,1,976.87891,263.19531Z"
       transform="translate(-68 -57)"
       id="path34" />
    <path
       d="M989.48926,266.47119c3.74414,0,6.292,2.80811,6.292,6.9165v.728h-9.334a3.38271,3.38271,0,0,0,3.61328,2.91211,5.13747,5.13747,0,0,0,3.35449-1.248l1.45605,2.13184a7.82853,7.82853,0,0,1-5.17383,1.74219,6.59214,6.59214,0,1,1-.208-13.18262Zm-3.09473,5.4082H992.583a2.90892,2.90892,0,0,0-3.09375-2.78174A3.01879,3.01879,0,0,0,986.39453,271.87939Z"
       transform="translate(-68 -57)"
       id="path36" />
    <path
       d="M1004.02344,266.47119a5.84308,5.84308,0,0,1,4.96582,2.26221l-2.1582,2.02832a3.04583,3.04583,0,0,0-2.65234-1.35254,3.66235,3.66235,0,0,0,0,7.30664,3.17009,3.17009,0,0,0,2.65234-1.35205l2.1582,2.002a5.78743,5.78743,0,0,1-4.96582,2.28809,6.59163,6.59163,0,1,1,0-13.18262Z"
       transform="translate(-68 -57)"
       id="path38" />
    <path
       d="M1011.79688,276.22168v-6.55225h-2.08008V266.7832h2.08008v-3.43213h3.32813v3.43213h2.54785v2.88623H1015.125v5.66846c0,.77979.416,1.37793,1.14355,1.37793a1.80052,1.80052,0,0,0,1.14355-.36426l.70313,2.49609a4.07733,4.07733,0,0,1-2.75684.80615C1013.04492,279.65381,1011.79688,278.458,1011.79688,276.22168Z"
       transform="translate(-68 -57)"
       id="path40" />
    <path
       d="M1027.8125,280.17383a4.98961,4.98961,0,0,0,3.92578,1.56006c1.58594,0,3.458-.70215,3.458-3.17236V277.2876a4.8889,4.8889,0,0,1-3.874,1.97607c-3.14648,0-5.53809-2.21-5.53809-6.396,0-4.1084,2.36621-6.39648,5.53809-6.39648a4.83536,4.83536,0,0,1,3.874,1.92432v-1.6123h3.32813v11.70068c0,4.78418-3.69238,5.9541-6.78613,5.9541a7.609,7.609,0,0,1-5.4082-1.87207Zm7.38379-9.33447a3.579,3.579,0,0,0-2.834-1.43018c-1.87207,0-3.17187,1.30029-3.17187,3.4585,0,2.15771,1.2998,3.458,3.17188,3.458a3.65528,3.65528,0,0,0,2.834-1.43018Z"
       transform="translate(-68 -57)"
       id="path42" />
    <path
       d="M1040.99414,273.0498a6.64367,6.64367,0,1,1,6.63086,6.604A6.36082,6.36082,0,0,1,1040.99414,273.0498Zm9.85449,0c0-1.9502-1.16992-3.64062-3.22363-3.64062-2.05469,0-3.19922,1.69043-3.19922,3.64063,0,1.97559,1.14453,3.666,3.19922,3.666C1049.67871,276.71582,1050.84863,275.02539,1050.84863,273.0498Z"
       transform="translate(-68 -57)"
       id="path44" />
    <path
       d="M1056.38574,263.19531a1.97607,1.97607,0,1,1,1.97656,1.97607A1.992,1.992,0,0,1,1056.38574,263.19531Zm.33887,3.58789h3.30176V279.3418h-3.30176Z"
       transform="translate(-68 -57)"
       id="path46" />
    <path
       d="M1071.77734,271.74951a2.03722,2.03722,0,0,0-2.31348-2.34033,3.5793,3.5793,0,0,0-2.86035,1.48242v8.4502h-3.30176V266.7832h3.30176v1.63818a5.75175,5.75175,0,0,1,4.39453-1.9502c2.75586,0,4.082,1.56006,4.082,4.00439v8.86621h-3.30273Z"
       transform="translate(-68 -57)"
       id="path48" />
    <path
       d="M1079.57715,280.17383a4.993,4.993,0,0,0,3.92676,1.56006c1.58594,0,3.458-.70215,3.458-3.17236V277.2876a4.89172,4.89172,0,0,1-3.874,1.97607c-3.14648,0-5.53906-2.21-5.53906-6.396,0-4.1084,2.36719-6.39648,5.53906-6.39648a4.83671,4.83671,0,0,1,3.874,1.92432v-1.6123H1090.29v11.70068c0,4.78418-3.69238,5.9541-6.78613,5.9541a7.609,7.609,0,0,1-5.4082-1.87207Zm7.38477-9.33447a3.58087,3.58087,0,0,0-2.835-1.43018c-1.87109,0-3.17187,1.30029-3.17187,3.4585,0,2.15771,1.30078,3.458,3.17188,3.458a3.65724,3.65724,0,0,0,2.835-1.43018Z"
       transform="translate(-68 -57)"
       id="path50" />
    <path
       d="M936.8916,286.19531a1.97607,1.97607,0,1,1,1.97656,1.97607A1.992,1.992,0,0,1,936.8916,286.19531Zm.33838,3.58789h3.30225V302.3418H937.23Z"
       transform="translate(-68 -57)"
       id="path52" />
    <path
       d="M952.28369,294.74951a2.03755,2.03755,0,0,0-2.314-2.34033,3.57855,3.57855,0,0,0-2.86035,1.48242v8.4502h-3.30176V289.7832h3.30176v1.63818a5.75175,5.75175,0,0,1,4.39453-1.9502c2.75586,0,4.082,1.56006,4.082,4.00439v8.86621h-3.30225Z"
       transform="translate(-68 -57)"
       id="path54" />
    <path
       d="M959.51123,299.22168v-6.55225h-2.08008V289.7832h2.08008v-3.43213h3.32861v3.43213h2.54785v2.88623h-2.54785v5.66846c0,.77979.416,1.37793,1.14355,1.37793a1.80053,1.80053,0,0,0,1.14355-.36426l.70313,2.49609a4.07733,4.07733,0,0,1-2.75684.80615C960.75928,302.65381,959.51123,301.458,959.51123,299.22168Z"
       transform="translate(-68 -57)"
       id="path56" />
    <path
       d="M966.84375,296.0498a6.64318,6.64318,0,1,1,6.62988,6.604A6.36057,6.36057,0,0,1,966.84375,296.0498Zm9.85352,0c0-1.9502-1.16992-3.64062-3.22363-3.64062s-3.19824,1.69043-3.19824,3.64063c0,1.97559,1.14453,3.666,3.19824,3.666S976.69727,298.02539,976.69727,296.0498Z"
       transform="translate(-68 -57)"
       id="path58" />
    <path
       d="M996.76953,301.042a5.19841,5.19841,0,0,1-3.97852,1.61182,4.18379,4.18379,0,0,1-4.36816-4.16016c0-2.938,2.36621-4.00439,4.36816-4.00439a5.07781,5.07781,0,0,1,3.97852,1.53418v-1.74219c0-1.27393-1.0918-2.106-2.75586-2.106a5.28682,5.28682,0,0,0-3.667,1.48193l-1.248-2.21a8.23947,8.23947,0,0,1,5.48633-1.97607c2.86035,0,5.48633,1.144,5.48633,4.7583v8.1123h-3.30176Zm0-3.27637a3.30383,3.30383,0,0,0-2.65234-1.0918c-1.30078,0-2.36621.67578-2.36621,1.89795,0,1.16992,1.06543,1.84619,2.36621,1.84619a3.30414,3.30414,0,0,0,2.65234-1.09229Z"
       transform="translate(-68 -57)"
       id="path60" />
    <path
       d="M1018.50488,294.69727c0-1.7417-.90918-2.28809-2.33984-2.28809a3.65919,3.65919,0,0,0-2.86035,1.48242v8.4502h-3.30176V284.999h3.30176v6.42236a5.81276,5.81276,0,0,1,4.41992-1.9502c2.75684,0,4.082,1.5083,4.082,3.95215v8.91846h-3.30176Z"
       transform="translate(-68 -57)"
       id="path62" />
    <path
       d="M1024.74414,286.19531a1.97607,1.97607,0,1,1,1.97656,1.97607A1.992,1.992,0,0,1,1024.74414,286.19531Zm.33789,3.58789h3.30273V302.3418H1025.082Z"
       transform="translate(-68 -57)"
       id="path64" />
    <path
       d="M1039.20019,301.042a5.1977,5.1977,0,0,1-3.97754,1.61182,4.18459,4.18459,0,0,1-4.36914-4.16016c0-2.938,2.36719-4.00439,4.36914-4.00439a5.07561,5.07561,0,0,1,3.97754,1.53418v-1.74219c0-1.27393-1.0918-2.106-2.75586-2.106a5.28281,5.28281,0,0,0-3.666,1.48193l-1.248-2.21a8.237,8.237,0,0,1,5.48535-1.97607c2.86133,0,5.48633,1.144,5.48633,4.7583v8.1123h-3.30176Zm0-3.27637a3.30177,3.30177,0,0,0-2.65137-1.0918c-1.30078,0-2.36719.67578-2.36719,1.89795,0,1.16992,1.06641,1.84619,2.36719,1.84619a3.30208,3.30208,0,0,0,2.65137-1.09229Z"
       transform="translate(-68 -57)"
       id="path66" />
    <path
       d="M1046.42773,299.22168v-6.55225h-2.08008V289.7832h2.08008v-3.43213h3.32813v3.43213h2.54883v2.88623h-2.54883v5.66846c0,.77979.416,1.37793,1.14453,1.37793a1.80583,1.80583,0,0,0,1.14453-.36426l.70117,2.49609a4.07431,4.07431,0,0,1-2.75586.80615C1047.67578,302.65381,1046.42773,301.458,1046.42773,299.22168Z"
       transform="translate(-68 -57)"
       id="path68" />
    <path
       d="M1063.043,300.75586a5.87875,5.87875,0,0,1-4.41992,1.89795c-2.75684,0-4.05664-1.5083-4.05664-3.95215V289.7832h3.30176v7.61816a2.01942,2.01942,0,0,0,2.31445,2.31445,3.69694,3.69694,0,0,0,2.86035-1.43018V289.7832h3.30176V302.3418H1063.043Z"
       transform="translate(-68 -57)"
       id="path70" />
    <path
       d="M1069.958,298.38965a7.18945,7.18945,0,0,0,4.34277,1.71582c1.42969,0,2.10547-.49365,2.10547-1.27393,0-.88379-1.0918-1.1958-2.52148-1.48193-2.1582-.416-4.94141-.936-4.94141-3.92627,0-2.106,1.84668-3.95215,5.14844-3.95215a8.01961,8.01961,0,0,1,5.07031,1.71631l-1.32617,2.26172a5.29819,5.29819,0,0,0-3.71777-1.45605c-1.19629,0-1.97559.44238-1.97559,1.17041,0,.77979.98731,1.06592,2.3916,1.35205,2.1582.416,5.04394.98779,5.04394,4.10791,0,2.28809-1.94922,4.03027-5.43359,4.03027a8.45521,8.45521,0,0,1-5.61719-1.9502Z"
       transform="translate(-68 -57)"
       id="path72" />
    <path
       d="M1085.60938,291.34326c.80664-.57178,1.50879-1.06592,1.50879-1.84619,0-.80566-.59863-1.48193-2.02832-1.48193a4.15552,4.15552,0,0,0-3.19824,1.6123l-2.10645-2.36621a7.44177,7.44177,0,0,1,5.69531-2.522c3.35352,0,5.4082,1.68994,5.4082,4.10791,0,2.1582-1.37891,3.19824-2.627,4.05615-.91016.67627-1.71582,1.248-1.71582,2.21a1.57162,1.57162,0,0,0,.46777,1.09229l-2.834.832a3.32,3.32,0,0,1-.85742-2.28809C1083.32227,292.95557,1084.57031,292.09766,1085.60938,291.34326Zm-.18164,7.07227a2.1062,2.1062,0,1,1-2.10547,2.106A2.13125,2.13125,0,0,1,1085.42773,298.41553Z"
       transform="translate(-68 -57)"
       id="path74" />
    <path
       d="M209.21973,223.999h8.1123a5.4119,5.4119,0,0,1,5.82422,5.59033c0,3.01611-2.08008,5.53809-5.82422,5.53809h-4.41992v6.21436h-3.69238Zm7.61865,3.17236h-3.92627v4.78418h3.92627a2.39685,2.39685,0,1,0,0-4.78418Z"
       transform="translate(-68 -57)"
       id="path76" />
    <path
       d="M233.8418,239.75586a5.8779,5.8779,0,0,1-4.41992,1.89795c-2.75635,0-4.05615-1.50781-4.05615-3.95215V228.7832H228.668v7.61865a2.01894,2.01894,0,0,0,2.314,2.314,3.69591,3.69591,0,0,0,2.85986-1.43018V228.7832H237.144V241.3418H233.8418Z"
       transform="translate(-68 -57)"
       id="path78" />
    <path
       d="M240.41943,223.999h3.30225v6.39648a4.83607,4.83607,0,0,1,3.874-1.92432c3.19824,0,5.564,2.49609,5.564,6.60449,0,4.186-2.39209,6.57813-5.564,6.57813a4.87391,4.87391,0,0,1-3.874-1.92383v1.61182h-3.30225Zm6.13623,14.7168c1.92383,0,3.19824-1.45605,3.19824-3.64014s-1.27441-3.666-3.19824-3.666a3.64238,3.64238,0,0,0-2.834,1.45605v4.4458A3.674,3.674,0,0,0,246.55566,238.71582Z"
       transform="translate(-68 -57)"
       id="path80" />
    <path
       d="M255.65527,223.999H258.957V241.3418h-3.30176Z"
       transform="translate(-68 -57)"
       id="path82" />
    <path
       d="M261.89453,225.19531a1.97607,1.97607,0,1,1,1.97656,1.97607A1.992,1.992,0,0,1,261.89453,225.19531Zm.33838,3.58789h3.30225V241.3418h-3.30225Z"
       transform="translate(-68 -57)"
       id="path84" />
    <path
       d="M269.14844,237.38965a7.18961,7.18961,0,0,0,4.34229,1.71631c1.43018,0,2.106-.49414,2.106-1.27441,0-.88379-1.0918-1.1958-2.522-1.48193-2.1582-.416-4.94043-.936-4.94043-3.92627,0-2.106,1.84619-3.95215,5.14844-3.95215a8.02025,8.02025,0,0,1,5.06982,1.71631l-1.32568,2.26221a5.29822,5.29822,0,0,0-3.71826-1.45605c-1.19629,0-1.97607.44189-1.97607,1.16992,0,.77979.98779,1.06592,2.39209,1.35205,2.1582.416,5.04395.98779,5.04395,4.10791,0,2.28809-1.94971,4.03027-5.43408,4.03027a8.45348,8.45348,0,0,1-5.61621-1.9502Z"
       transform="translate(-68 -57)"
       id="path86" />
    <path
       d="M289.71484,233.69775c0-1.74219-.91016-2.28809-2.34033-2.28809a3.65641,3.65641,0,0,0-2.85986,1.48193v8.4502H281.2124V223.999h3.30225v6.42236a5.81026,5.81026,0,0,1,4.41992-1.9502c2.75586,0,4.082,1.5083,4.082,3.95215v8.91846h-3.30176Z"
       transform="translate(-68 -57)"
       id="path88" />
    <path
       d="M295.9541,225.19531a1.97607,1.97607,0,1,1,1.97559,1.97607A1.99153,1.99153,0,0,1,295.9541,225.19531Zm.33789,3.58789h3.30176V241.3418H296.292Z"
       transform="translate(-68 -57)"
       id="path90" />
    <path
       d="M311.3457,233.74951a2.03738,2.03738,0,0,0-2.314-2.33984,3.57438,3.57438,0,0,0-2.85986,1.48193v8.4502h-3.30225V228.7832h3.30225v1.63818a5.74979,5.74979,0,0,1,4.394-1.9502c2.75586,0,4.082,1.56006,4.082,4.00439v8.86621H311.3457Z"
       transform="translate(-68 -57)"
       id="path92" />
    <path
       d="M319.14551,242.17383a4.98961,4.98961,0,0,0,3.92578,1.56006c1.58594,0,3.458-.70215,3.458-3.17187V239.2876a4.88961,4.88961,0,0,1-3.874,1.97607c-3.146,0-5.53809-2.21-5.53809-6.396,0-4.1084,2.36621-6.39648,5.53809-6.39648a4.83607,4.83607,0,0,1,3.874,1.92432v-1.6123h3.32813v11.70068c0,4.78418-3.69189,5.9541-6.78613,5.9541a7.609,7.609,0,0,1-5.4082-1.87207Zm7.38379-9.33447a3.57926,3.57926,0,0,0-2.834-1.42969c-1.87207,0-3.17187,1.2998-3.17187,3.458s1.2998,3.458,3.17188,3.458a3.656,3.656,0,0,0,2.834-1.43018Z"
       transform="translate(-68 -57)"
       id="path94" />
    <path
       d="M231.65771,251.7832H234.96v1.71631a5.371,5.371,0,0,1,4.00391-2.002v3.22363a4.06037,4.06037,0,0,0-4.00391,1.32617v8.29443h-3.30225Z"
       transform="translate(-68 -57)"
       id="path96" />
    <path
       d="M246.71094,251.47119c3.74414,0,6.29248,2.80811,6.29248,6.9165v.728h-9.33447a3.38438,3.38438,0,0,0,3.61426,2.91211,5.13714,5.13714,0,0,0,3.354-1.248l1.45605,2.13184a7.828,7.828,0,0,1-5.17432,1.74219,6.59214,6.59214,0,1,1-.208-13.18262Zm-3.09375,5.4082h6.188a2.90878,2.90878,0,0,0-3.09424-2.78223A3.01783,3.01783,0,0,0,243.61719,256.87939Z"
       transform="translate(-68 -57)"
       id="path98" />
    <path
       d="M255.73291,260.38965a7.18961,7.18961,0,0,0,4.34229,1.71631c1.42969,0,2.106-.49414,2.106-1.27441,0-.88379-1.09229-1.1958-2.522-1.48193-2.1582-.416-4.94043-.936-4.94043-3.92627,0-2.106,1.84619-3.95215,5.14844-3.95215a8.02169,8.02169,0,0,1,5.07031,1.71631l-1.32617,2.26221a5.29731,5.29731,0,0,0-3.71826-1.45605c-1.1958,0-1.97607.44189-1.97607,1.16992,0,.77979.98828,1.06592,2.39209,1.35205,2.1582.416,5.04443.98779,5.04443,4.10791,0,2.28809-1.9502,4.03027-5.43457,4.03027a8.45348,8.45348,0,0,1-5.61621-1.9502Z"
       transform="translate(-68 -57)"
       id="path100" />
    <path
       d="M276.27295,262.75586a5.87706,5.87706,0,0,1-4.41992,1.89795c-2.75635,0-4.05615-1.50781-4.05615-3.95215V251.7832h3.30176v7.61865a2.01927,2.01927,0,0,0,2.31445,2.314,3.69591,3.69591,0,0,0,2.85986-1.43018V251.7832h3.30225V264.3418h-3.30225Z"
       transform="translate(-68 -57)"
       id="path102" />
    <path
       d="M282.85059,246.999h3.30176V264.3418h-3.30176Z"
       transform="translate(-68 -57)"
       id="path104" />
    <path
       d="M290.07813,261.22168v-6.55225H287.998V251.7832h2.08008v-3.43213h3.32813v3.43213h2.54785v2.88623h-2.54785v5.668c0,.78027.416,1.37842,1.144,1.37842a1.80318,1.80318,0,0,0,1.144-.36426l.70215,2.49609a4.07747,4.07747,0,0,1-2.75635.80615C291.32617,264.65381,290.07813,263.45752,290.07813,261.22168Z"
       transform="translate(-68 -57)"
       id="path106" />
    <path
       d="M298.5542,260.38965a7.18961,7.18961,0,0,0,4.34229,1.71631c1.42969,0,2.106-.49414,2.106-1.27441,0-.88379-1.09229-1.1958-2.522-1.48193-2.1582-.416-4.94043-.936-4.94043-3.92627,0-2.106,1.84619-3.95215,5.14844-3.95215a8.02169,8.02169,0,0,1,5.07031,1.71631l-1.32617,2.26221a5.29732,5.29732,0,0,0-3.71826-1.45605c-1.1958,0-1.97607.44189-1.97607,1.16992,0,.77979.98828,1.06592,2.39209,1.35205,2.1582.416,5.04443.98779,5.04443,4.10791,0,2.28809-1.9502,4.03027-5.43457,4.03027a8.45348,8.45348,0,0,1-5.61621-1.9502Z"
       transform="translate(-68 -57)"
       id="path108" />
    <path
       d="M204.72266,285.73a4.8753,4.8753,0,0,1-3.874,1.92383c-3.17236,0-5.56445-2.39209-5.56445-6.57812,0-4.1084,2.36621-6.60449,5.56445-6.60449a4.83743,4.83743,0,0,1,3.874,1.92432V269.999h3.32813V287.3418h-3.32812Zm0-6.89062a3.59244,3.59244,0,0,0-2.86035-1.42969c-1.87207,0-3.17187,1.48193-3.17187,3.666,0,2.1582,1.2998,3.64014,3.17188,3.64014a3.59285,3.59285,0,0,0,2.86035-1.43018Z"
       transform="translate(-68 -57)"
       id="path110" />
    <path
       d="M217.02051,274.47119c3.74414,0,6.292,2.80811,6.292,6.9165v.728H213.978a3.38405,3.38405,0,0,0,3.61426,2.91211,5.13617,5.13617,0,0,0,3.354-1.248l1.45605,2.13184a7.82761,7.82761,0,0,1-5.17383,1.74219,6.59214,6.59214,0,1,1-.208-13.18262Zm-3.09424,5.4082h6.188a2.90927,2.90927,0,0,0-3.09375-2.78223A3.018,3.018,0,0,0,213.92627,279.87939Z"
       transform="translate(-68 -57)"
       id="path112" />
    <path
       d="M225.7041,274.7832h3.30176v1.71631a5.37279,5.37279,0,0,1,4.00439-2.002v3.22363a4.06122,4.06122,0,0,0-4.00439,1.32617v8.29443H225.7041Z"
       transform="translate(-68 -57)"
       id="path114" />
    <path
       d="M234.72559,271.19531a1.97607,1.97607,0,1,1,1.97656,1.97607A1.992,1.992,0,0,1,234.72559,271.19531Zm.33838,3.58789h3.30225V287.3418H235.064Z"
       transform="translate(-68 -57)"
       id="path116" />
    <path
       d="M239.84766,274.7832h3.53613l3.27588,8.73633,3.27588-8.73633h3.5625l-5.04443,12.55859h-3.562Z"
       transform="translate(-68 -57)"
       id="path118" />
    <path
       d="M260.67285,274.47119c3.74414,0,6.29248,2.80811,6.29248,6.9165v.728h-9.33447a3.38438,3.38438,0,0,0,3.61426,2.91211,5.13714,5.13714,0,0,0,3.354-1.248l1.45605,2.13184a7.828,7.828,0,0,1-5.17432,1.74219,6.59214,6.59214,0,1,1-.208-13.18262Zm-3.09375,5.4082h6.188a2.90878,2.90878,0,0,0-3.09424-2.78223A3.01783,3.01783,0,0,0,257.5791,279.87939Z"
       transform="translate(-68 -57)"
       id="path120" />
    <path
       d="M277.98926,285.73a4.8753,4.8753,0,0,1-3.874,1.92383c-3.17236,0-5.56445-2.39209-5.56445-6.57812,0-4.1084,2.36621-6.60449,5.56445-6.60449a4.83743,4.83743,0,0,1,3.874,1.92432V269.999h3.32813V287.3418h-3.32812Zm0-6.89062a3.59244,3.59244,0,0,0-2.86035-1.42969c-1.87207,0-3.17187,1.48193-3.17187,3.666,0,2.1582,1.2998,3.64014,3.17188,3.64014a3.59285,3.59285,0,0,0,2.86035-1.43018Z"
       transform="translate(-68 -57)"
       id="path122" />
    <path
       d="M291.97656,277.66943h-2.08008V274.7832h2.08008v-.67578a4.04792,4.04792,0,0,1,4.23828-4.36816,5.33774,5.33774,0,0,1,2.3916.52l-.67578,2.33984a2.0298,2.0298,0,0,0-1.06592-.25977c-.936,0-1.56006.624-1.56006,1.81982v.624h2.54785v2.88623h-2.54785v9.67236h-3.32812Z"
       transform="translate(-68 -57)"
       id="path124" />
    <path
       d="M299.75049,274.7832h3.30225v1.71631a5.371,5.371,0,0,1,4.00391-2.002v3.22363a4.06037,4.06037,0,0,0-4.00391,1.32617v8.29443h-3.30225Z"
       transform="translate(-68 -57)"
       id="path126" />
    <path
       d="M308.30371,281.04932a6.64342,6.64342,0,1,1,6.63037,6.60449A6.36058,6.36058,0,0,1,308.30371,281.04932Zm9.85449,0c0-1.94971-1.16992-3.63965-3.22412-3.63965s-3.19824,1.68994-3.19824,3.63965c0,1.97656,1.144,3.6665,3.19824,3.6665S318.1582,283.02588,318.1582,281.04932Z"
       transform="translate(-68 -57)"
       id="path128" />
    <path
       d="M339.6084,279.41162c0-1.16992-.52051-2.002-1.87207-2.002a3.334,3.334,0,0,0-2.60059,1.45605v8.47607h-3.32812v-7.93018c0-1.16992-.51953-2.002-1.87207-2.002a3.36921,3.36921,0,0,0-2.59961,1.48193v8.4502h-3.30225V274.7832h3.30225v1.63818a5.49165,5.49165,0,0,1,4.10791-1.9502,3.323,3.323,0,0,1,3.48389,2.28809,5.33093,5.33093,0,0,1,4.31641-2.28809c2.314,0,3.69238,1.22217,3.69238,3.79639v9.07422H339.6084Z"
       transform="translate(-68 -57)"
       id="path130" />
    <path
       d="M245.89258,312.5a1.66549,1.66549,0,0,0,1.74219-.91016l.46777-1.06592-5.0957-12.74072H246.543l3.27588,8.73633,3.27588-8.73633h3.5625L250.75488,312.396c-.936,2.36621-2.6001,2.99023-4.7583,3.042a9.0266,9.0266,0,0,1-1.63818-.18213l.49414-2.96387A2.85626,2.85626,0,0,0,245.89258,312.5Z"
       transform="translate(-68 -57)"
       id="path132" />
    <path
       d="M257.332,304.04932a6.64342,6.64342,0,1,1,6.63037,6.60449A6.36058,6.36058,0,0,1,257.332,304.04932Zm9.85449,0c0-1.94971-1.16992-3.63965-3.22412-3.63965s-3.19824,1.68994-3.19824,3.63965c0,1.97656,1.144,3.6665,3.19824,3.6665S267.18652,306.02588,267.18652,304.04932Z"
       transform="translate(-68 -57)"
       id="path134" />
    <path
       d="M281.53809,308.75586a5.8779,5.8779,0,0,1-4.41992,1.89795c-2.75635,0-4.05615-1.50781-4.05615-3.95215V297.7832h3.30225v7.61865a2.01894,2.01894,0,0,0,2.314,2.314,3.69591,3.69591,0,0,0,2.85986-1.43018V297.7832h3.30225V310.3418h-3.30225Z"
       transform="translate(-68 -57)"
       id="path136" />
    <path
       d="M288.11572,297.7832H291.418v1.71631a5.371,5.371,0,0,1,4.00391-2.002v3.22363a4.06037,4.06037,0,0,0-4.00391,1.32617v8.29443h-3.30225Z"
       transform="translate(-68 -57)"
       id="path138" />
    <path
       d="M214.875,329.38965a7.18961,7.18961,0,0,0,4.34229,1.71631c1.43018,0,2.106-.49414,2.106-1.27441,0-.88379-1.0918-1.1958-2.522-1.48193-2.1582-.416-4.94043-.936-4.94043-3.92627,0-2.106,1.84619-3.95215,5.14844-3.95215a8.02025,8.02025,0,0,1,5.06982,1.71631l-1.32568,2.26221a5.29822,5.29822,0,0,0-3.71826-1.45605c-1.19629,0-1.97607.44189-1.97607,1.16992,0,.77979.98779,1.06592,2.39209,1.35205,2.1582.416,5.04395.98779,5.04395,4.10791,0,2.28809-1.94971,4.03027-5.43408,4.03027a8.45348,8.45348,0,0,1-5.61621-1.9502Z"
       transform="translate(-68 -57)"
       id="path140" />
    <path
       d="M226.13281,327.04932a6.64342,6.64342,0,1,1,6.63037,6.60449A6.36058,6.36058,0,0,1,226.13281,327.04932Zm9.85449,0c0-1.94971-1.16992-3.63965-3.22412-3.63965s-3.19824,1.68994-3.19824,3.63965c0,1.97656,1.144,3.6665,3.19824,3.6665S235.9873,329.02588,235.9873,327.04932Z"
       transform="translate(-68 -57)"
       id="path142" />
    <path
       d="M242.59082,323.66943h-2.08008V320.7832h2.08008v-.67578a4.04792,4.04792,0,0,1,4.23828-4.36816,5.33774,5.33774,0,0,1,2.3916.52l-.67578,2.33984a2.0298,2.0298,0,0,0-1.06592-.25977c-.936,0-1.56006.624-1.56006,1.81982v.624h2.54785v2.88623h-2.54785v9.67236h-3.32812Z"
       transform="translate(-68 -57)"
       id="path144" />
    <path
       d="M251.01465,330.22168v-6.55225h-2.08008V320.7832h2.08008v-3.43213h3.32813v3.43213h2.54785v2.88623h-2.54785v5.668c0,.78027.416,1.37842,1.144,1.37842a1.80318,1.80318,0,0,0,1.144-.36426l.70215,2.49609a4.07747,4.07747,0,0,1-2.75635.80615C252.2627,333.65381,251.01465,332.45752,251.01465,330.22168Z"
       transform="translate(-68 -57)"
       id="path146" />
    <path
       d="M267.5249,324.7876l-2.65186,8.5542h-3.53613l-3.82227-12.55859h3.43213l2.34033,8.45068,2.75586-8.45068h2.938l2.75635,8.45068,2.33984-8.45068h3.43213L273.6875,333.3418h-3.51025Z"
       transform="translate(-68 -57)"
       id="path148" />
    <path
       d="M286.687,332.0415a5.19589,5.19589,0,0,1-3.978,1.6123,4.18379,4.18379,0,0,1-4.36816-4.16016c0-2.938,2.36621-4.00391,4.36816-4.00391a5.07479,5.07479,0,0,1,3.978,1.53369v-1.7417c0-1.27441-1.0918-2.10645-2.75586-2.10645a5.28489,5.28489,0,0,0-3.6665,1.48242l-1.248-2.21045a8.23858,8.23858,0,0,1,5.48633-1.97607c2.86035,0,5.48633,1.144,5.48633,4.7583v8.1123H286.687Zm0-3.27588a3.30244,3.30244,0,0,0-2.65186-1.09229c-1.30029,0-2.36621.67627-2.36621,1.89844,0,1.16992,1.06592,1.8457,2.36621,1.8457a3.30213,3.30213,0,0,0,2.65186-1.0918Z"
       transform="translate(-68 -57)"
       id="path150" />
    <path
       d="M293.26514,320.7832h3.30225v1.71631a5.371,5.371,0,0,1,4.00391-2.002v3.22363a4.06037,4.06037,0,0,0-4.00391,1.32617v8.29443h-3.30225Z"
       transform="translate(-68 -57)"
       id="path152" />
    <path
       d="M308.31836,320.47119c3.74414,0,6.29248,2.80811,6.29248,6.9165v.728h-9.33447a3.38438,3.38438,0,0,0,3.61426,2.91211,5.13714,5.13714,0,0,0,3.354-1.248l1.45605,2.13184a7.828,7.828,0,0,1-5.17432,1.74219,6.59214,6.59214,0,1,1-.208-13.18262Zm-3.09375,5.4082h6.188a2.90878,2.90878,0,0,0-3.09424-2.78223A3.01783,3.01783,0,0,0,305.22461,325.87939Z"
       transform="translate(-68 -57)"
       id="path154" />
    <path
       d="M320.3042,322.34326c.80615-.57178,1.5083-1.06592,1.5083-1.8457,0-.80615-.59814-1.48242-2.02832-1.48242a4.1578,4.1578,0,0,0-3.19824,1.6123l-2.106-2.36621a7.43805,7.43805,0,0,1,5.69434-2.522c3.354,0,5.4082,1.68994,5.4082,4.10791,0,2.1582-1.37793,3.19824-2.626,4.05615-.91016.67627-1.71631,1.248-1.71631,2.21045a1.56873,1.56873,0,0,0,.46826,1.0918l-2.83447.832a3.32037,3.32037,0,0,1-.85791-2.28809C318.01611,323.95557,319.26416,323.09717,320.3042,322.34326Zm-.18213,7.07227a2.1062,2.1062,0,1,1-2.106,2.10645A2.131,2.131,0,0,1,320.12207,329.41553Z"
       transform="translate(-68 -57)"
       id="path156" />
    <path
       d="M444.88379,275.08984a7.60309,7.60309,0,0,0,5.51172,2.33984c2.02832,0,3.0166-.96191,3.0166-1.9502,0-1.2998-1.5083-1.74219-3.51025-2.21-2.83447-.6499-6.47412-1.43018-6.47412-5.3042,0-2.88623,2.49609-5.22607,6.57813-5.22607a9.64811,9.64811,0,0,1,6.76025,2.418l-2.0542,2.7041a7.40057,7.40057,0,0,0-4.96631-1.89795c-1.66406,0-2.54785.728-2.54785,1.76807,0,1.16992,1.45605,1.53418,3.458,2.002,2.85986.6499,6.50049,1.50781,6.50049,5.35645,0,3.17188-2.26221,5.564-6.94238,5.564a9.88608,9.88608,0,0,1-7.33252-2.75635Z"
       transform="translate(-68 -57)"
       id="path158" />
    <path
       d="M468.0752,272.69727c0-1.7417-.90967-2.28809-2.33984-2.28809a3.66,3.66,0,0,0-2.86035,1.48242v8.4502h-3.30176V262.999H462.875v6.42236a5.81224,5.81224,0,0,1,4.42041-1.9502c2.75635,0,4.082,1.5083,4.082,3.95215v8.91846H468.0752Z"
       transform="translate(-68 -57)"
       id="path160" />
    <path
       d="M482.19287,279.042a5.19731,5.19731,0,0,1-3.978,1.61182,4.18379,4.18379,0,0,1-4.36816-4.16016c0-2.938,2.36621-4.00439,4.36816-4.00439a5.07671,5.07671,0,0,1,3.978,1.53418v-1.74219c0-1.27393-1.0918-2.106-2.75586-2.106a5.28654,5.28654,0,0,0-3.6665,1.48193l-1.248-2.21a8.23858,8.23858,0,0,1,5.48633-1.97607c2.86035,0,5.48633,1.144,5.48633,4.7583v8.1123h-3.30225Zm0-3.27637a3.30213,3.30213,0,0,0-2.65186-1.0918c-1.30029,0-2.36621.67578-2.36621,1.89795,0,1.16992,1.06592,1.84619,2.36621,1.84619a3.30244,3.30244,0,0,0,2.65186-1.09229Z"
       transform="translate(-68 -57)"
       id="path162" />
    <path
       d="M488.771,267.7832h3.30225v1.71631a5.37141,5.37141,0,0,1,4.00391-2.00244v3.22461a4.15962,4.15962,0,0,0-.91016-.10449,4.2059,4.2059,0,0,0-3.09375,1.43018v8.29443H488.771Z"
       transform="translate(-68 -57)"
       id="path164" />
    <path
       d="M497.792,264.19531a1.97607,1.97607,0,1,1,1.97656,1.97607A1.992,1.992,0,0,1,497.792,264.19531Zm.33838,3.58789h3.30225V280.3418h-3.30225Z"
       transform="translate(-68 -57)"
       id="path166" />
    <path
       d="M513.18408,272.74951a2.03755,2.03755,0,0,0-2.314-2.34033,3.57855,3.57855,0,0,0-2.86035,1.48242v8.4502H504.708V267.7832h3.30176v1.63818a5.75175,5.75175,0,0,1,4.39453-1.9502c2.75586,0,4.082,1.56006,4.082,4.00439v8.86621h-3.30225Z"
       transform="translate(-68 -57)"
       id="path168" />
    <path
       d="M520.9834,281.17383a4.99131,4.99131,0,0,0,3.92627,1.56006c1.58643,0,3.4585-.70215,3.4585-3.17236V278.2876a4.89123,4.89123,0,0,1-3.87451,1.97607c-3.146,0-5.53809-2.21-5.53809-6.396,0-4.1084,2.36621-6.39648,5.53809-6.39648a4.83626,4.83626,0,0,1,3.87451,1.92432v-1.6123h3.32813v11.70068c0,4.78418-3.69238,5.9541-6.78662,5.9541a7.61055,7.61055,0,0,1-5.4082-1.87207Zm7.38477-9.33447a3.58137,3.58137,0,0,0-2.83447-1.43018c-1.87207,0-3.17187,1.30029-3.17187,3.4585,0,2.15771,1.2998,3.458,3.17188,3.458a3.6578,3.6578,0,0,0,2.83447-1.43018Z"
       transform="translate(-68 -57)"
       id="path170" />
    <path
       d="M542.71924,282.5a1.66654,1.66654,0,0,0,1.74219-.91016l.46826-1.06592L539.833,267.7832h3.53613l3.27637,8.73633,3.27637-8.73633h3.562L547.58154,282.396c-.936,2.36572-2.6001,2.98975-4.7583,3.042a9.02616,9.02616,0,0,1-1.6377-.18213l.49365-2.96387A2.85626,2.85626,0,0,0,542.71924,282.5Z"
       transform="translate(-68 -57)"
       id="path172" />
    <path
       d="M554.15869,274.0498a6.64343,6.64343,0,1,1,6.63037,6.604A6.3607,6.3607,0,0,1,554.15869,274.0498Zm9.85449,0c0-1.9502-1.17041-3.64062-3.22412-3.64062-2.0542,0-3.19824,1.69043-3.19824,3.64063,0,1.97559,1.144,3.666,3.19824,3.666C562.84277,277.71582,564.01318,276.02539,564.01318,274.0498Z"
       transform="translate(-68 -57)"
       id="path174" />
    <path
       d="M578.36475,278.75586a5.87706,5.87706,0,0,1-4.41992,1.89795c-2.75635,0-4.05615-1.5083-4.05615-3.95215V267.7832h3.30176v7.61816a2.01942,2.01942,0,0,0,2.31445,2.31445,3.69591,3.69591,0,0,0,2.85986-1.43018V267.7832H581.667V280.3418h-3.30225Z"
       transform="translate(-68 -57)"
       id="path176" />
    <path
       d="M584.94238,267.7832h3.30176v1.71631a5.37326,5.37326,0,0,1,4.00439-2.00244v3.22461a4.15962,4.15962,0,0,0-.91016-.10449,4.20783,4.20783,0,0,0-3.09424,1.43018v8.29443h-3.30176Z"
       transform="translate(-68 -57)"
       id="path178" />
    <path
       d="M462.875,299.38965a7.18924,7.18924,0,0,0,4.34229,1.71582c1.43018,0,2.106-.49365,2.106-1.27393,0-.88379-1.0918-1.1958-2.522-1.48193-2.1582-.416-4.94043-.936-4.94043-3.92627,0-2.106,1.84619-3.95215,5.14844-3.95215a8.02025,8.02025,0,0,1,5.06982,1.71631l-1.32568,2.26172a5.30035,5.30035,0,0,0-3.71826-1.45605c-1.19629,0-1.97607.44238-1.97607,1.17041,0,.77979.98779,1.06592,2.39209,1.35205,2.1582.416,5.04395.98779,5.04395,4.10791,0,2.28809-1.94971,4.03027-5.43408,4.03027a8.45348,8.45348,0,0,1-5.61621-1.9502Z"
       transform="translate(-68 -57)"
       id="path180" />
    <path
       d="M474.13281,297.0498a6.64343,6.64343,0,1,1,6.63037,6.604A6.3607,6.3607,0,0,1,474.13281,297.0498Zm9.85449,0c0-1.9502-1.16992-3.64062-3.22412-3.64062s-3.19824,1.69043-3.19824,3.64063c0,1.97559,1.144,3.666,3.19824,3.666S483.9873,299.02539,483.9873,297.0498Z"
       transform="translate(-68 -57)"
       id="path182" />
    <path
       d="M490.59082,293.66943h-2.08008V290.7832h2.08008v-.67578a4.04767,4.04767,0,0,1,4.23828-4.36816,5.33774,5.33774,0,0,1,2.3916.52l-.67578,2.33984a2.02521,2.02521,0,0,0-1.06592-.25977c-.936,0-1.56006.624-1.56006,1.81982v.624h2.54785v2.88623h-2.54785v9.67236h-3.32812Z"
       transform="translate(-68 -57)"
       id="path184" />
    <path
       d="M499.01465,300.22168v-6.55225h-2.08008V290.7832h2.08008v-3.43213h3.32813v3.43213h2.54785v2.88623h-2.54785v5.66846c0,.77979.416,1.37793,1.144,1.37793a1.80318,1.80318,0,0,0,1.144-.36426l.70215,2.49609a4.07487,4.07487,0,0,1-2.75635.80615C500.2627,303.65381,499.01465,302.458,499.01465,300.22168Z"
       transform="translate(-68 -57)"
       id="path186" />
    <path
       d="M515.5249,294.7876l-2.65186,8.5542h-3.53613l-3.82227-12.55859h3.43213l2.34033,8.4502,2.75586-8.4502h2.938l2.75635,8.4502,2.33984-8.4502h3.43213L521.6875,303.3418h-3.51025Z"
       transform="translate(-68 -57)"
       id="path188" />
    <path
       d="M534.687,302.042a5.19731,5.19731,0,0,1-3.978,1.61182,4.18379,4.18379,0,0,1-4.36816-4.16016c0-2.938,2.36621-4.00439,4.36816-4.00439a5.07671,5.07671,0,0,1,3.978,1.53418v-1.74219c0-1.27393-1.0918-2.106-2.75586-2.106a5.28654,5.28654,0,0,0-3.6665,1.48193l-1.248-2.21a8.23858,8.23858,0,0,1,5.48633-1.97607c2.86035,0,5.48633,1.144,5.48633,4.7583v8.1123H534.687Zm0-3.27637a3.30213,3.30213,0,0,0-2.65186-1.0918c-1.30029,0-2.36621.67578-2.36621,1.89795,0,1.16992,1.06592,1.84619,2.36621,1.84619a3.30244,3.30244,0,0,0,2.65186-1.09229Z"
       transform="translate(-68 -57)"
       id="path190" />
    <path
       d="M541.26514,290.7832h3.30225v1.71631a5.37141,5.37141,0,0,1,4.00391-2.00244v3.22461a4.15962,4.15962,0,0,0-.91016-.10449,4.2059,4.2059,0,0,0-3.09375,1.43018v8.29443h-3.30225Z"
       transform="translate(-68 -57)"
       id="path192" />
    <path
       d="M556.31836,290.47119c3.74414,0,6.29248,2.80811,6.29248,6.9165v.728h-9.33447a3.38438,3.38438,0,0,0,3.61426,2.91211,5.13714,5.13714,0,0,0,3.354-1.248l1.45605,2.13184a7.828,7.828,0,0,1-5.17432,1.74219,6.59214,6.59214,0,1,1-.208-13.18262Zm-3.09375,5.4082h6.188a2.90843,2.90843,0,0,0-3.09424-2.78174A3.01746,3.01746,0,0,0,553.22461,295.87939Z"
       transform="translate(-68 -57)"
       id="path194" />
    <path
       d="M568.3042,292.34326c.80615-.57178,1.5083-1.06592,1.5083-1.84619,0-.80566-.59814-1.48193-2.02832-1.48193a4.15629,4.15629,0,0,0-3.19824,1.6123l-2.106-2.36621a7.4397,7.4397,0,0,1,5.69434-2.522c3.354,0,5.4082,1.68994,5.4082,4.10791,0,2.1582-1.37793,3.19824-2.626,4.05615-.91016.67627-1.71631,1.248-1.71631,2.21a1.56992,1.56992,0,0,0,.46826,1.09229l-2.83447.832a3.32037,3.32037,0,0,1-.85791-2.28809C566.01611,293.95557,567.26416,293.09766,568.3042,292.34326Zm-.18213,7.07227a2.1062,2.1062,0,1,1-2.106,2.106A2.13125,2.13125,0,0,1,568.12207,299.41553Z"
       transform="translate(-68 -57)"
       id="path196" />
    <path
       d="M679.83008,264.999h8.1123a5.4119,5.4119,0,0,1,5.82422,5.59033c0,3.01611-2.08008,5.53809-5.82422,5.53809h-4.41992v6.21436h-3.69238Zm7.61865,3.17236h-3.92627v4.78418h3.92627a2.39685,2.39685,0,1,0,0-4.78418Z"
       transform="translate(-68 -57)"
       id="path198" />
    <path
       d="M695.97607,269.7832h3.30225v1.71631a5.37141,5.37141,0,0,1,4.00391-2.00244v3.22461a4.15962,4.15962,0,0,0-.91016-.10449,4.2059,4.2059,0,0,0-3.09375,1.43018v8.29443h-3.30225Z"
       transform="translate(-68 -57)"
       id="path200" />
    <path
       d="M704.5293,276.0498a6.64343,6.64343,0,1,1,6.63037,6.604A6.3607,6.3607,0,0,1,704.5293,276.0498Zm9.85449,0c0-1.9502-1.16992-3.64062-3.22412-3.64062s-3.19824,1.69043-3.19824,3.64063c0,1.97559,1.144,3.666,3.19824,3.666S714.38379,278.02539,714.38379,276.0498Z"
       transform="translate(-68 -57)"
       id="path202" />
    <path
       d="M723.56152,282.67969c0,2.86035-1.45605,4.7583-4.47266,4.7583a7.08588,7.08588,0,0,1-1.42969-.12988l.208-2.7041a3.48142,3.48142,0,0,0,.728.07764c.96191,0,1.66406-.59766,1.66406-2.002V269.7832h3.30225Zm-3.64062-16.48437a1.97607,1.97607,0,1,1,1.97656,1.97607A1.992,1.992,0,0,1,719.9209,266.19531Z"
       transform="translate(-68 -57)"
       id="path204" />
    <path
       d="M732.53125,269.47119c3.74414,0,6.292,2.80811,6.292,6.9165v.728h-9.33447a3.38405,3.38405,0,0,0,3.61426,2.91211,5.13617,5.13617,0,0,0,3.354-1.248l1.45605,2.13184a7.82761,7.82761,0,0,1-5.17383,1.74219,6.59214,6.59214,0,1,1-.208-13.18262Zm-3.09424,5.4082h6.188a2.90892,2.90892,0,0,0-3.09375-2.78174A3.0176,3.0176,0,0,0,729.437,274.87939Z"
       transform="translate(-68 -57)"
       id="path206" />
    <path
       d="M747.06494,269.47119a5.8441,5.8441,0,0,1,4.96631,2.26221l-2.1582,2.02832a3.04525,3.04525,0,0,0-2.65234-1.35254,3.66232,3.66232,0,0,0,0,7.30664,3.16945,3.16945,0,0,0,2.65234-1.35205l2.1582,2.002a5.78844,5.78844,0,0,1-4.96631,2.28809,6.59163,6.59163,0,1,1,0-13.18262Z"
       transform="translate(-68 -57)"
       id="path208" />
    <path
       d="M754.83838,279.22168v-6.55225H752.7583V269.7832h2.08008v-3.43213h3.32813v3.43213h2.54834v2.88623H758.1665v5.66846c0,.77979.416,1.37793,1.144,1.37793a1.80318,1.80318,0,0,0,1.144-.36426l.70215,2.49609a4.07582,4.07582,0,0,1-2.75635.80615C756.08643,282.65381,754.83838,281.458,754.83838,279.22168Z"
       transform="translate(-68 -57)"
       id="path210" />
    <path
       d="M775.48242,269.47119a5.8441,5.8441,0,0,1,4.96631,2.26221l-2.1582,2.02832a3.04556,3.04556,0,0,0-2.65186-1.35254,3.66228,3.66228,0,0,0,0,7.30664,3.16984,3.16984,0,0,0,2.65186-1.35205l2.1582,2.002a5.78844,5.78844,0,0,1-4.96631,2.28809,6.59163,6.59163,0,1,1,0-13.18262Z"
       transform="translate(-68 -57)"
       id="path212" />
    <path
       d="M781.7998,276.0498a6.64343,6.64343,0,1,1,6.63037,6.604A6.3607,6.3607,0,0,1,781.7998,276.0498Zm9.85449,0c0-1.9502-1.16992-3.64062-3.22412-3.64062s-3.19824,1.69043-3.19824,3.64063c0,1.97559,1.144,3.666,3.19824,3.666S791.6543,278.02539,791.6543,276.0498Z"
       transform="translate(-68 -57)"
       id="path214" />
    <path
       d="M813.10449,274.41162c0-1.17041-.52051-2.00244-1.87207-2.00244a3.33531,3.33531,0,0,0-2.60059,1.45605v8.47656h-3.32812v-7.93018c0-1.17041-.51953-2.00244-1.87207-2.00244a3.36964,3.36964,0,0,0-2.59961,1.48242v8.4502h-3.30225V269.7832H800.832v1.63818a5.49165,5.49165,0,0,1,4.10791-1.9502,3.32244,3.32244,0,0,1,3.48389,2.28809,5.33093,5.33093,0,0,1,4.31641-2.28809c2.314,0,3.69238,1.22217,3.69238,3.79639v9.07422h-3.32812Z"
       transform="translate(-68 -57)"
       id="path216" />
    <path
       d="M819.34375,266.19531a1.97607,1.97607,0,1,1,1.97559,1.97607A1.99153,1.99153,0,0,1,819.34375,266.19531Zm.33789,3.58789h3.30176V282.3418h-3.30176Z"
       transform="translate(-68 -57)"
       id="path218" />
    <path
       d="M834.73535,274.74951a2.03773,2.03773,0,0,0-2.314-2.34033,3.57607,3.57607,0,0,0-2.85986,1.48242v8.4502h-3.30225V269.7832h3.30225v1.63818a5.74979,5.74979,0,0,1,4.394-1.9502c2.75586,0,4.082,1.56006,4.082,4.00439v8.86621h-3.30225Z"
       transform="translate(-68 -57)"
       id="path220" />
    <path
       d="M842.53516,283.17383a4.98961,4.98961,0,0,0,3.92578,1.56006c1.58594,0,3.458-.70215,3.458-3.17236V280.2876a4.88961,4.88961,0,0,1-3.874,1.97607c-3.146,0-5.53809-2.21-5.53809-6.396,0-4.1084,2.36621-6.39648,5.53809-6.39648a4.83468,4.83468,0,0,1,3.874,1.92432v-1.6123h3.32813v11.70068c0,4.78418-3.69189,5.9541-6.78613,5.9541a7.609,7.609,0,0,1-5.4082-1.87207Zm7.38379-9.33447a3.57969,3.57969,0,0,0-2.834-1.43018c-1.87207,0-3.17187,1.30029-3.17187,3.4585,0,2.15771,1.2998,3.458,3.17188,3.458a3.656,3.656,0,0,0,2.834-1.43018Z"
       transform="translate(-68 -57)"
       id="path222" />
    <path
       d="M707.42871,302.22168v-6.55225h-2.08008V292.7832h2.08008v-3.43213h3.32813v3.43213h2.54785v2.88623h-2.54785v5.66846c0,.77979.416,1.37793,1.144,1.37793a1.80318,1.80318,0,0,0,1.144-.36426l.70215,2.49609a4.07487,4.07487,0,0,1-2.75635.80615C708.67676,305.65381,707.42871,304.458,707.42871,302.22168Z"
       transform="translate(-68 -57)"
       id="path224" />
    <path
       d="M714.76074,299.0498a6.64343,6.64343,0,1,1,6.63037,6.604A6.3607,6.3607,0,0,1,714.76074,299.0498Zm9.85449,0c0-1.9502-1.16992-3.64062-3.22412-3.64062s-3.19824,1.69043-3.19824,3.64063c0,1.97559,1.144,3.666,3.19824,3.666S724.61523,301.02539,724.61523,299.0498Z"
       transform="translate(-68 -57)"
       id="path226" />
    <path
       d="M744.68652,304.042a5.19731,5.19731,0,0,1-3.978,1.61182,4.18379,4.18379,0,0,1-4.36816-4.16016c0-2.938,2.36621-4.00439,4.36816-4.00439a5.07671,5.07671,0,0,1,3.978,1.53418v-1.74219c0-1.27393-1.0918-2.106-2.75586-2.106a5.28453,5.28453,0,0,0-3.666,1.48193l-1.248-2.21a8.23644,8.23644,0,0,1,5.48584-1.97607c2.86035,0,5.48633,1.144,5.48633,4.7583v8.1123h-3.30225Zm0-3.27637a3.30213,3.30213,0,0,0-2.65186-1.0918c-1.30029,0-2.36621.67578-2.36621,1.89795,0,1.16992,1.06592,1.84619,2.36621,1.84619a3.30244,3.30244,0,0,0,2.65186-1.09229Z"
       transform="translate(-68 -57)"
       id="path228" />
    <path
       d="M759.74072,297.74951a2.03755,2.03755,0,0,0-2.314-2.34033,3.57855,3.57855,0,0,0-2.86035,1.48242v8.4502h-3.30176V292.7832h3.30176v1.63818a5.75175,5.75175,0,0,1,4.39453-1.9502c2.75586,0,4.082,1.56006,4.082,4.00439v8.86621h-3.30225Z"
       transform="translate(-68 -57)"
       id="path230" />
    <path
       d="M778.668,292.47119c3.74414,0,6.29248,2.80811,6.29248,6.9165v.728H775.626a3.38438,3.38438,0,0,0,3.61426,2.91211,5.13714,5.13714,0,0,0,3.354-1.248l1.45605,2.13184a7.828,7.828,0,0,1-5.17432,1.74219,6.59214,6.59214,0,1,1-.208-13.18262Zm-3.09375,5.4082h6.188a2.90843,2.90843,0,0,0-3.09424-2.78174A3.01746,3.01746,0,0,0,775.57422,297.87939Z"
       transform="translate(-68 -57)"
       id="path232" />
    <path
       d="M795.82813,297.74951a2.03773,2.03773,0,0,0-2.314-2.34033,3.57607,3.57607,0,0,0-2.85986,1.48242v8.4502h-3.30225V292.7832h3.30225v1.63818a5.74979,5.74979,0,0,1,4.394-1.9502c2.75586,0,4.082,1.56006,4.082,4.00439v8.86621h-3.30225Z"
       transform="translate(-68 -57)"
       id="path234" />
    <path
       d="M811.03809,303.72949a4.87579,4.87579,0,0,1-3.874,1.92432c-3.17236,0-5.56445-2.39209-5.56445-6.57812,0-4.1084,2.36621-6.60449,5.56445-6.60449a4.836,4.836,0,0,1,3.874,1.92432V287.999h3.32813V305.3418h-3.32812Zm0-6.89014a3.59285,3.59285,0,0,0-2.86035-1.43018c-1.87207,0-3.17187,1.48242-3.17187,3.6665,0,2.15771,1.2998,3.64014,3.17188,3.64014a3.59285,3.59285,0,0,0,2.86035-1.43018Z"
       transform="translate(-68 -57)"
       id="path236" />
    <path
       d="M822.06152,294.34326c.80615-.57178,1.5083-1.06592,1.5083-1.84619,0-.80566-.59814-1.48193-2.02832-1.48193a4.15456,4.15456,0,0,0-3.19775,1.6123l-2.10645-2.36621a7.43821,7.43821,0,0,1,5.69434-2.522c3.354,0,5.4082,1.68994,5.4082,4.10791,0,2.1582-1.37793,3.19824-2.626,4.05615-.91016.67627-1.71631,1.248-1.71631,2.21a1.56992,1.56992,0,0,0,.46826,1.09229l-2.834.832a3.31847,3.31847,0,0,1-.8584-2.28809C819.77344,295.95557,821.02148,295.09766,822.06152,294.34326Zm-.18164,7.07227a2.1062,2.1062,0,1,1-2.10645,2.106A2.13148,2.13148,0,0,1,821.87988,301.41553Z"
       transform="translate(-68 -57)"
       id="path238" />
    <path
       d="M178.25146,180.74463l-.84033-3.67529h-4.79541l-.94531,3.67529h-5.98535l6.12549-22.40234h6.58057l5.8457,22.40234ZM174.99609,164.293l-1.47021,7.84082h2.94043Z"
       transform="translate(-68 -57)"
       id="path240" />
    <path
       d="M191.37549,181.09473c-4.62061,0-7.35059-1.71533-7.35059-6.16064h5.49561c0,2.17041.83984,2.38037,1.71484,2.38037a1.42512,1.42512,0,0,0,1.43506-1.47021,2.11985,2.11985,0,0,0-1.46973-1.89014c-3.01074-1.08545-6.93115-1.71533-6.93115-5.8457,0-2.62549,1.47021-5.56543,6.75586-5.56543,4.76074,0,6.75586,1.67969,6.75586,5.88037h-5.3208c0-1.855-.83984-2.13525-1.3999-2.13525a1.36789,1.36789,0,0,0-1.36523,1.47021,1.91347,1.91347,0,0,0,1.40039,1.75c3.01025,1.15527,7.00049,1.43506,7.00049,6.126C198.09619,177.8042,196.45117,181.09473,191.37549,181.09473Z"
       transform="translate(-68 -57)"
       id="path242" />
    <path
       d="M207.54541,180.74463,205.165,173.499v7.24561h-5.60059V155.99707H205.165v13.37158l2.10059-6.47607h6.93066l-4.16553,8.50586,4.37549,9.34619Z"
       transform="translate(-68 -57)"
       id="path244" />
    <path
       d="M227.04,162.89258V172.729c0,2.58984.49023,2.87012,1.33057,2.87012.875,0,1.43506-.28027,1.43506-2.87012l.03467-9.83643h5.60059v18.44727c0,3.08008-.80469,6.75537-7.07031,6.75537-5.39062,0-7.03613-1.78516-7.03613-5.67041h5.356c0,1.36523.56006,1.82031,1.60986,1.82031,1.12012,0,1.54-.59521,1.54-2.83545v-1.89014a3.83552,3.83552,0,0,1-3.18506,1.3999c-4.79541,0-5.21582-3.8501-5.21582-8.08545v-9.94141Z"
       transform="translate(-68 -57)"
       id="path246" />
    <path
       d="M244.33008,181.09473c-6.12549,0-7.17578-5.21582-7.17578-9.27588,0-4.02539,1.12012-9.27588,7.24561-9.27588,6.021,0,7.106,5.25049,7.106,9.27588C251.50586,175.94922,250.4209,181.09473,244.33008,181.09473Zm.06982-13.30127c-1.15479,0-2.02979.875-2.02979,4.02539,0,3.18506.90967,4.06006,1.96,4.06006,1.15527,0,2.03027-.80469,2.03027-4.06006C246.36035,168.70313,245.52,167.79346,244.3999,167.79346Z"
       transform="translate(-68 -57)"
       id="path248" />
    <path
       d="M258.78418,162.89258v10.22119c0,2.34521.49023,2.80029,1.29492,2.80029.84033,0,1.47021-.45508,1.47021-2.80029V162.89258h5.60059v17.85205h-3.3252l-.7002-1.99512a4.95535,4.95535,0,0,1-4.16553,2.34521c-5.35547,0-5.77539-3.71045-5.77539-7.80566V162.89258Z"
       transform="translate(-68 -57)"
       id="path250" />
    <path
       d="M277.019,168.14355c-1.645,0-1.99512.62988-1.99512,2.66016v9.94092H269.353V162.89258h3.39551l.7002,1.71533c.94482-1.18994,2.1001-2.06494,4.93555-2.06494v5.67041C277.85938,168.17822,277.4043,168.14355,277.019,168.14355Z"
       transform="translate(-68 -57)"
       id="path252" />
    <path
       d="M286.46924,181.09473c-4.62061,0-7.35059-1.71533-7.35059-6.16064h5.49561c0,2.17041.83984,2.38037,1.71484,2.38037a1.42512,1.42512,0,0,0,1.43506-1.47021,2.11985,2.11985,0,0,0-1.46973-1.89014c-3.01074-1.08545-6.93115-1.71533-6.93115-5.8457,0-2.62549,1.47021-5.56543,6.75586-5.56543,4.76074,0,6.75586,1.67969,6.75586,5.88037h-5.3208c0-1.855-.83984-2.13525-1.3999-2.13525a1.36789,1.36789,0,0,0-1.36523,1.47021,1.91347,1.91347,0,0,0,1.40039,1.75c3.01025,1.15527,7.00049,1.43506,7.00049,6.126C293.18994,177.8042,291.54492,181.09473,286.46924,181.09473Z"
       transform="translate(-68 -57)"
       id="path254" />
    <path
       d="M299.52393,173.18359c.03516,2.41553.5249,3.81543,2.03027,3.81543.80518,0,1.60986-.62988,1.78516-2.20508H308.73c-.41992,3.95557-2.4502,6.30078-6.96582,6.30078-6.61572,0-7.561-5.25049-7.561-9.311s.98047-9.24072,7.45605-9.24072c6.93066,0,7.0708,6.12549,7.0708,10.64063Zm1.89014-6.58057c-.73486,0-1.75.42041-1.89014,3.25537h3.71045C303.16406,167.65332,302.81445,166.603,301.41406,166.603Z"
       transform="translate(-68 -57)"
       id="path256" />
    <path
       d="M310.478,180.74463V155.99707h5.60059v24.74756Z"
       transform="translate(-68 -57)"
       id="path258" />
    <path
       d="M324.89844,168.17822v12.56641h-5.60059V168.17822h-2.24023v-3.81543l2.24023-1.3999v-1.33008c0-4.41064,2.48535-6.09082,8.856-5.63574v5.00537c-2.76514-.21-3.15039.17529-3.15039,1.29541v.59473h3.15039v5.28564Z"
       transform="translate(-68 -57)"
       id="path260" />
    <path
       d="M330.32324,181.09473c-2.24023,0-3.43018-1.15527-3.43018-3.25537,0-2.13525,1.18994-3.22021,3.43018-3.22021s3.36035,1.12012,3.36035,3.22021C333.68359,179.9043,332.56348,181.09473,330.32324,181.09473Z"
       transform="translate(-68 -57)"
       id="path262" />
    <path
       d="M337.88379,181.09473c-2.24023,0-3.43018-1.15527-3.43018-3.25537,0-2.13525,1.18994-3.22021,3.43018-3.22021s3.36035,1.12012,3.36035,3.22021C341.24414,179.9043,340.124,181.09473,337.88379,181.09473Z"
       transform="translate(-68 -57)"
       id="path264" />
    <path
       d="M345.44385,181.09473c-2.24023,0-3.43018-1.15527-3.43018-3.25537,0-2.13525,1.18994-3.22021,3.43018-3.22021s3.36035,1.12012,3.36035,3.22021C348.8042,179.9043,347.68408,181.09473,345.44385,181.09473Z"
       transform="translate(-68 -57)"
       id="path266" />
    <path
       d="M954.56055,492.68359a8.77858,8.77858,0,0,1,9.09961-8.9707,8.00284,8.00284,0,0,1,7.38477,4.23828l-3.17187,1.56006a4.75093,4.75093,0,0,0-4.21289-2.522,5.70872,5.70872,0,0,0,0,11.38867,4.70213,4.70213,0,0,0,4.21289-2.52246l3.17188,1.53418a8.049,8.049,0,0,1-7.38477,4.26416A8.77818,8.77818,0,0,1,954.56055,492.68359Z"
       transform="translate(-68 -57)"
       id="path268" />
    <path
       d="M972.37012,495.0498A6.64318,6.64318,0,1,1,979,501.65381,6.36057,6.36057,0,0,1,972.37012,495.0498Zm9.85449,0c0-1.9502-1.16992-3.64062-3.22461-3.64062-2.05371,0-3.19727,1.69043-3.19727,3.64063,0,1.97559,1.14355,3.666,3.19727,3.666C981.05469,498.71582,982.22461,497.02539,982.22461,495.0498Z"
       transform="translate(-68 -57)"
       id="path270" />
    <path
       d="M996.57617,493.74951a2.03788,2.03788,0,0,0-2.31445-2.34033,3.57584,3.57584,0,0,0-2.85937,1.48242v8.4502h-3.30273V488.7832h3.30273v1.63818a5.7501,5.7501,0,0,1,4.39453-1.9502c2.75586,0,4.082,1.56006,4.082,4.00439v8.86621h-3.30273Z"
       transform="translate(-68 -57)"
       id="path272" />
    <path
       d="M1009.00391,488.47119a5.84512,5.84512,0,0,1,4.9668,2.26221l-2.1582,2.02832a3.047,3.047,0,0,0-2.65234-1.35254,3.66228,3.66228,0,0,0,0,7.30664,3.17138,3.17138,0,0,0,2.65234-1.35205l2.1582,2.002a5.78944,5.78944,0,0,1-4.9668,2.28809,6.59163,6.59163,0,1,1,0-13.18262Z"
       transform="translate(-68 -57)"
       id="path274" />
    <path
       d="M1021.82129,488.47119c3.74414,0,6.292,2.80811,6.292,6.9165v.728h-9.334a3.38438,3.38438,0,0,0,3.61426,2.91211,5.1394,5.1394,0,0,0,3.35449-1.248l1.45508,2.13184a7.8267,7.8267,0,0,1-5.17383,1.74219,6.59214,6.59214,0,1,1-.208-13.18262Zm-3.09375,5.4082h6.18848a2.90923,2.90923,0,0,0-3.09473-2.78174A3.01711,3.01711,0,0,0,1018.72754,493.87939Z"
       transform="translate(-68 -57)"
       id="path276" />
    <path
       d="M1030.50586,488.7832h3.30176v1.71631a5.37224,5.37224,0,0,1,4.00391-2.00244v3.22461a4.15583,4.15583,0,0,0-.91016-.10449,4.2059,4.2059,0,0,0-3.09375,1.43018v8.29443h-3.30176Z"
       transform="translate(-68 -57)"
       id="path278" />
    <path
       d="M1048.34082,493.74951a2.03758,2.03758,0,0,0-2.31348-2.34033,3.57629,3.57629,0,0,0-2.86035,1.48242v8.4502h-3.30176V488.7832h3.30176v1.63818a5.74948,5.74948,0,0,1,4.39356-1.9502c2.75586,0,4.082,1.56006,4.082,4.00439v8.86621h-3.30176Z"
       transform="translate(-68 -57)"
       id="path280" />
    <path
       d="M1060.61231,488.47119c3.74414,0,6.292,2.80811,6.292,6.9165v.728h-9.334a3.38438,3.38438,0,0,0,3.61426,2.91211,5.1394,5.1394,0,0,0,3.35449-1.248l1.45508,2.13184a7.8267,7.8267,0,0,1-5.17383,1.74219,6.59214,6.59214,0,1,1-.208-13.18262Zm-3.09375,5.4082h6.18848a2.90923,2.90923,0,0,0-3.09473-2.78174A3.01711,3.01711,0,0,0,1057.51856,493.87939Z"
       transform="translate(-68 -57)"
       id="path282" />
    <path
       d="M1077.92871,499.72949a4.87579,4.87579,0,0,1-3.874,1.92432c-3.17188,0-5.56445-2.39209-5.56445-6.57812,0-4.1084,2.36621-6.60449,5.56445-6.60449a4.83536,4.83536,0,0,1,3.874,1.92432V483.999h3.32813V501.3418h-3.32812Zm0-6.89014a3.59285,3.59285,0,0,0-2.86035-1.43018c-1.87207,0-3.17187,1.48242-3.17187,3.6665,0,2.15771,1.2998,3.64014,3.17188,3.64014a3.59285,3.59285,0,0,0,2.86035-1.43018Z"
       transform="translate(-68 -57)"
       id="path284" />
    <path
       d="M1091.83789,498.22168v-6.55225h-2.08008V488.7832h2.08008v-3.43213h3.32813v3.43213h2.54785v2.88623H1095.166v5.66846c0,.77979.416,1.37793,1.14453,1.37793a1.8027,1.8027,0,0,0,1.14355-.36426l.70215,2.49609a4.07431,4.07431,0,0,1-2.75586.80615C1093.08594,501.65381,1091.83789,500.458,1091.83789,498.22168Z"
       transform="translate(-68 -57)"
       id="path286" />
    <path
       d="M1108.47852,493.69727c0-1.7417-.91016-2.28809-2.33984-2.28809a3.65763,3.65763,0,0,0-2.86035,1.48242v8.4502h-3.30176V483.999h3.30176v6.42236a5.8111,5.8111,0,0,1,4.41992-1.9502c2.75586,0,4.082,1.5083,4.082,3.95215v8.91846h-3.30176Z"
       transform="translate(-68 -57)"
       id="path288" />
    <path
       d="M1122.5957,500.042a5.19692,5.19692,0,0,1-3.97852,1.61182,4.183,4.183,0,0,1-4.36719-4.16016c0-2.938,2.36523-4.00439,4.36719-4.00439a5.07781,5.07781,0,0,1,3.97852,1.53418v-1.74219c0-1.27393-1.0918-2.106-2.75586-2.106a5.28625,5.28625,0,0,0-3.666,1.48193l-1.248-2.21a8.23591,8.23591,0,0,1,5.48633-1.97607c2.85938,0,5.48633,1.144,5.48633,4.7583v8.1123h-3.30273Zm0-3.27637a3.30249,3.30249,0,0,0-2.65234-1.0918c-1.2998,0-2.36523.67578-2.36523,1.89795,0,1.16992,1.06543,1.84619,2.36523,1.84619a3.3028,3.3028,0,0,0,2.65234-1.09229Z"
       transform="translate(-68 -57)"
       id="path290" />
    <path
       d="M1129.82422,498.22168v-6.55225h-2.08008V488.7832h2.08008v-3.43213h3.32813v3.43213h2.54785v2.88623h-2.54785v5.66846c0,.77979.416,1.37793,1.14355,1.37793a1.80053,1.80053,0,0,0,1.14355-.36426l.70313,2.49609a4.07733,4.07733,0,0,1-2.75684.80615C1131.07227,501.65381,1129.82422,500.458,1129.82422,498.22168Z"
       transform="translate(-68 -57)"
       id="path292" />
    <path
       d="M980.23535,518.0498a6.64318,6.64318,0,1,1,6.62988,6.604A6.36057,6.36057,0,0,1,980.23535,518.0498Zm9.85449,0c0-1.9502-1.16992-3.64062-3.22461-3.64062-2.05371,0-3.19727,1.69043-3.19727,3.64063,0,1.97559,1.14355,3.666,3.19727,3.666C988.91992,521.71582,990.08984,520.02539,990.08984,518.0498Z"
       transform="translate(-68 -57)"
       id="path294" />
    <path
       d="M996.61523,521.22168v-6.55225h-2.08008V511.7832h2.08008v-3.43213h3.32813v3.43213h2.54785v2.88623h-2.54785v5.66846c0,.77979.416,1.37793,1.14453,1.37793a1.8027,1.8027,0,0,0,1.14355-.36426l.70215,2.49609a4.07431,4.07431,0,0,1-2.75586.80615C997.86328,524.65381,996.61523,523.458,996.61523,521.22168Z"
       transform="translate(-68 -57)"
       id="path296" />
    <path
       d="M1013.25586,516.69727c0-1.7417-.91016-2.28809-2.33984-2.28809a3.65763,3.65763,0,0,0-2.86035,1.48242v8.4502h-3.30176V506.999h3.30176v6.42236a5.8111,5.8111,0,0,1,4.41992-1.9502c2.75586,0,4.082,1.5083,4.082,3.95215v8.91846h-3.30176Z"
       transform="translate(-68 -57)"
       id="path298" />
    <path
       d="M1025.52734,511.47119c3.74414,0,6.292,2.80811,6.292,6.9165v.728h-9.335a3.38539,3.38539,0,0,0,3.61523,2.91211,5.13489,5.13489,0,0,0,3.35352-1.248l1.45606,2.13184a7.8267,7.8267,0,0,1-5.17383,1.74219,6.59214,6.59214,0,1,1-.208-13.18262Zm-3.09375,5.4082h6.1875a2.90892,2.90892,0,0,0-3.09375-2.78174A3.01641,3.01641,0,0,0,1022.43359,516.87939Z"
       transform="translate(-68 -57)"
       id="path300" />
    <path
       d="M1034.21094,511.7832h3.30176v1.71631a5.37262,5.37262,0,0,1,4.00488-2.00244v3.22461a4.054,4.054,0,0,0-4.00488,1.32568v8.29443h-3.30176Z"
       transform="translate(-68 -57)"
       id="path302" />
    <path
       d="M1043.9082,520.38965a7.1919,7.1919,0,0,0,4.34277,1.71582c1.42969,0,2.10645-.49365,2.10645-1.27393,0-.88379-1.09277-1.1958-2.52246-1.48193-2.1582-.416-4.94043-.936-4.94043-3.92627,0-2.106,1.8457-3.95215,5.14844-3.95215a8.02169,8.02169,0,0,1,5.07031,1.71631l-1.32617,2.26172a5.29888,5.29888,0,0,0-3.71875-1.45605c-1.19531,0-1.97559.44238-1.97559,1.17041,0,.77979.98828,1.06592,2.3916,1.35205,2.1582.416,5.04492.98779,5.04492,4.10791,0,2.28809-1.9502,4.03027-5.43457,4.03027a8.45255,8.45255,0,0,1-5.61621-1.9502Z"
       transform="translate(-68 -57)"
       id="path304" />
    <path
       d="M1078.20313,516.41162c0-1.17041-.52051-2.00244-1.87207-2.00244a3.33531,3.33531,0,0,0-2.60059,1.45605v8.47656h-3.32812v-7.93018c0-1.17041-.51953-2.00244-1.87207-2.00244a3.36882,3.36882,0,0,0-2.59961,1.48242v8.4502h-3.30176V511.7832h3.30176v1.63818a5.49192,5.49192,0,0,1,4.1084-1.9502,3.32221,3.32221,0,0,1,3.4834,2.28809,5.33093,5.33093,0,0,1,4.31641-2.28809c2.31348,0,3.69238,1.22217,3.69238,3.79639v9.07422h-3.32812Z"
       transform="translate(-68 -57)"
       id="path306" />
    <path
       d="M1092.32031,523.042a5.19692,5.19692,0,0,1-3.97852,1.61182,4.183,4.183,0,0,1-4.36719-4.16016c0-2.938,2.36523-4.00439,4.36719-4.00439a5.07781,5.07781,0,0,1,3.97852,1.53418v-1.74219c0-1.27393-1.0918-2.106-2.75586-2.106a5.28625,5.28625,0,0,0-3.666,1.48193l-1.248-2.21a8.2359,8.2359,0,0,1,5.48633-1.97607c2.85938,0,5.48633,1.144,5.48633,4.7583v8.1123h-3.30273Zm0-3.27637a3.30249,3.30249,0,0,0-2.65234-1.0918c-1.29981,0-2.36523.67578-2.36523,1.89795,0,1.16992,1.06543,1.84619,2.36523,1.84619a3.3028,3.3028,0,0,0,2.65234-1.09229Z"
       transform="translate(-68 -57)"
       id="path308" />
    <path
       d="M1099.99023,526.5a1.66654,1.66654,0,0,0,1.74219-.91016l.46777-1.06592-5.0957-12.74072h3.53613l3.27539,8.73633,3.27637-8.73633h3.5625l-5.90234,14.61279c-.93652,2.36572-2.60059,2.98975-4.75879,3.042a9.02616,9.02616,0,0,1-1.63769-.18213l.49414-2.96387A2.85423,2.85423,0,0,0,1099.99023,526.5Z"
       transform="translate(-68 -57)"
       id="path310" />
    <path
       d="M960.76172,552.126V534.7832h3.30176v1.58594a4.85322,4.85322,0,0,1,3.874-1.89795c3.22461,0,5.56445,2.39209,5.56445,6.57861s-2.33984,6.60449-5.56445,6.60449a4.80129,4.80129,0,0,1-3.874-1.9248V552.126Zm6.13672-14.7168a3.69922,3.69922,0,0,0-2.835,1.43018v4.4458a3.78223,3.78223,0,0,0,2.835,1.43066c1.89746,0,3.17188-1.48242,3.17188-3.666C970.07031,538.8916,968.7959,537.40918,966.89844,537.40918Z"
       transform="translate(-68 -57)"
       id="path312" />
    <path
       d="M984.44727,545.75586a5.87559,5.87559,0,0,1-4.41992,1.89844c-2.75586,0-4.05566-1.50879-4.05566-3.95312v-8.918h3.30176v7.61816a2.01942,2.01942,0,0,0,2.31445,2.31445,3.69375,3.69375,0,0,0,2.85938-1.43066v-8.502H987.75V547.3418h-3.30273Z"
       transform="translate(-68 -57)"
       id="path314" />
    <path
       d="M991.02539,529.999h3.30176v6.39648a4.83671,4.83671,0,0,1,3.874-1.92432c3.19824,0,5.56445,2.49609,5.56445,6.605,0,4.18555-2.39258,6.57813-5.56445,6.57813a4.87628,4.87628,0,0,1-3.874-1.9248v1.6123h-3.30176Zm6.13672,14.7168c1.92383,0,3.19727-1.45605,3.19727-3.63965,0-2.18457-1.27344-3.667-3.19727-3.667a3.64431,3.64431,0,0,0-2.835,1.45605v4.44629A3.67752,3.67752,0,0,0,997.16211,544.71582Z"
       transform="translate(-68 -57)"
       id="path316" />
    <path
       d="M1006.26172,529.999h3.30176V547.3418h-3.30176Z"
       transform="translate(-68 -57)"
       id="path318" />
    <path
       d="M1012.501,531.19531a1.97607,1.97607,0,1,1,1.97558,1.97607A1.99121,1.99121,0,0,1,1012.501,531.19531Zm.33789,3.58789h3.30176V547.3418h-3.30176Z"
       transform="translate(-68 -57)"
       id="path320" />
    <path
       d="M1019.75391,543.38965a7.18894,7.18894,0,0,0,4.34277,1.71582c1.42969,0,2.10644-.49414,2.10644-1.27344,0-.88477-1.09277-1.19629-2.52246-1.48242-2.1582-.416-4.94043-.93555-4.94043-3.92627,0-2.106,1.8457-3.95215,5.14844-3.95215a8.02169,8.02169,0,0,1,5.07031,1.71631l-1.32617,2.26172a5.29888,5.29888,0,0,0-3.71875-1.45605c-1.19531,0-1.97558.44238-1.97558,1.17041,0,.77979.98828,1.06592,2.3916,1.35205,2.1582.416,5.04492.98779,5.04492,4.10742,0,2.28906-1.95019,4.03125-5.43457,4.03125a8.45058,8.45058,0,0,1-5.61621-1.95117Z"
       transform="translate(-68 -57)"
       id="path322" />
    <path
       d="M1040.32031,539.69727c0-1.7417-.91016-2.28809-2.33984-2.28809a3.66076,3.66076,0,0,0-2.86035,1.48242v8.4502h-3.30176V529.999h3.30176v6.42236a5.81172,5.81172,0,0,1,4.4209-1.9502c2.75586,0,4.082,1.5083,4.082,3.95215v8.91846h-3.30273Z"
       transform="translate(-68 -57)"
       id="path324" />
    <path
       d="M1053.55371,534.7832h3.30176v1.71631a5.3739,5.3739,0,0,1,4.00391-2.00244v3.22461a4.14829,4.14829,0,0,0-.91016-.10449,4.20759,4.20759,0,0,0-3.09375,1.43018v8.29443h-3.30176Z"
       transform="translate(-68 -57)"
       id="path326" />
    <path
       d="M1068.60742,534.47119c3.74414,0,6.293,2.80811,6.293,6.9165v.72754h-9.335a3.38438,3.38438,0,0,0,3.61426,2.91211,5.13232,5.13232,0,0,0,3.35352-1.248l1.457,2.13281a7.832,7.832,0,0,1-5.1748,1.74219,6.59238,6.59238,0,1,1-.208-13.18311Zm-3.09375,5.4082h6.1875a2.90764,2.90764,0,0,0-3.09375-2.78174A3.01781,3.01781,0,0,0,1065.51367,539.87939Z"
       transform="translate(-68 -57)"
       id="path328" />
    <path
       d="M1077.62891,543.38965a7.18894,7.18894,0,0,0,4.34277,1.71582c1.42969,0,2.10644-.49414,2.10644-1.27344,0-.88477-1.09277-1.19629-2.52246-1.48242-2.1582-.416-4.94043-.93555-4.94043-3.92627,0-2.106,1.8457-3.95215,5.14844-3.95215a8.02169,8.02169,0,0,1,5.07031,1.71631l-1.32617,2.26172a5.29888,5.29888,0,0,0-3.71875-1.45605c-1.19531,0-1.97559.44238-1.97559,1.17041,0,.77979.98828,1.06592,2.3916,1.35205,2.1582.416,5.04492.98779,5.04492,4.10742,0,2.28906-1.95019,4.03125-5.43457,4.03125a8.45058,8.45058,0,0,1-5.61621-1.95117Z"
       transform="translate(-68 -57)"
       id="path330" />
    <path
       d="M1098.16992,545.75586a5.879,5.879,0,0,1-4.41992,1.89844c-2.75684,0-4.05664-1.50879-4.05664-3.95312v-8.918h3.30176v7.61816a2.01942,2.01942,0,0,0,2.31445,2.31445,3.69581,3.69581,0,0,0,2.86035-1.43066v-8.502h3.30176V547.3418h-3.30176Z"
       transform="translate(-68 -57)"
       id="path332" />
    <path
       d="M1104.74707,529.999h3.30176V547.3418h-3.30176Z"
       transform="translate(-68 -57)"
       id="path334" />
    <path
       d="M1111.97461,544.22168v-6.55225h-2.08008V534.7832h2.08008v-3.43213h3.32813v3.43213h2.54785v2.88623h-2.54785v5.66846c0,.7793.416,1.37793,1.14453,1.37793a1.8056,1.8056,0,0,0,1.14355-.36426l.70215,2.49609a4.07407,4.07407,0,0,1-2.75586.80664C1113.22266,547.6543,1111.97461,546.458,1111.97461,544.22168Z"
       transform="translate(-68 -57)"
       id="path336" />
    <path
       d="M1120.45117,543.38965a7.18363,7.18363,0,0,0,4.3418,1.71582c1.42969,0,2.10547-.49414,2.10547-1.27344,0-.88477-1.0918-1.19629-2.52148-1.48242-2.1582-.416-4.94043-.93555-4.94043-3.92627,0-2.106,1.84668-3.95215,5.14844-3.95215a8.02169,8.02169,0,0,1,5.07031,1.71631l-1.32617,2.26172a5.3,5.3,0,0,0-3.71777-1.45605c-1.19629,0-1.97656.44238-1.97656,1.17041,0,.77979.98828,1.06592,2.39258,1.35205,2.1582.416,5.04394.98779,5.04394,4.10742,0,2.28906-1.95019,4.03125-5.43457,4.03125a8.45244,8.45244,0,0,1-5.61621-1.95117Z"
       transform="translate(-68 -57)"
       id="path338" />
    <path
       d="M962.9707,552.999h3.30273v6.39648a4.83585,4.83585,0,0,1,3.874-1.9248c3.19824,0,5.56348,2.49609,5.56348,6.60547,0,4.18555-2.3916,6.57813-5.56348,6.57813a4.87489,4.87489,0,0,1-3.874-1.9248v1.6123H962.9707Zm6.13672,14.7168c1.92383,0,3.19824-1.45605,3.19824-3.63965,0-2.18457-1.27441-3.667-3.19824-3.667a3.64238,3.64238,0,0,0-2.834,1.45605v4.44629A3.67554,3.67554,0,0,0,969.10742,567.71582Z"
       transform="translate(-68 -57)"
       id="path340" />
    <path
       d="M985.74707,569.042a5.198,5.198,0,0,1-3.97754,1.6123,4.1849,4.1849,0,0,1-4.36914-4.16016c0-2.93848,2.36719-4.00488,4.36914-4.00488a5.07562,5.07562,0,0,1,3.97754,1.53418v-1.74219c0-1.27344-1.0918-2.10547-2.75586-2.10547a5.28446,5.28446,0,0,0-3.666,1.48145l-1.248-2.21a8.23994,8.23994,0,0,1,5.48535-1.97656c2.86133,0,5.48633,1.14453,5.48633,4.75879v8.1123h-3.30176Zm0-3.27637a3.30024,3.30024,0,0,0-2.65137-1.0918c-1.30078,0-2.36719.67578-2.36719,1.89844,0,1.16992,1.06641,1.8457,2.36719,1.8457a3.3033,3.3033,0,0,0,2.65137-1.0918Z"
       transform="translate(-68 -57)"
       id="path342" />
    <path
       d="M992.66309,566.38965a7.18649,7.18649,0,0,0,4.34277,1.71582c1.42969,0,2.10547-.49414,2.10547-1.27344,0-.88477-1.0918-1.19629-2.52148-1.48242-2.1582-.416-4.94141-.93555-4.94141-3.92578,0-2.10645,1.84668-3.95312,5.14844-3.95312a8.01981,8.01981,0,0,1,5.07031,1.7168l-1.32617,2.26172a5.29819,5.29819,0,0,0-3.71777-1.45605c-1.19629,0-1.97559.44238-1.97559,1.1709,0,.7793.9873,1.06543,2.3916,1.35156,2.1582.416,5.04395.98828,5.04395,4.10742,0,2.28906-1.94922,4.03125-5.43359,4.03125a8.45324,8.45324,0,0,1-5.61719-1.95117Z"
       transform="translate(-68 -57)"
       id="path344" />
    <path
       d="M1010.4209,557.4707c3.74414,0,6.292,2.80859,6.292,6.917v.72754h-9.334a3.38438,3.38438,0,0,0,3.61426,2.91211,5.13684,5.13684,0,0,0,3.35449-1.248l1.45508,2.13281a7.82928,7.82928,0,0,1-5.17383,1.74219,6.59263,6.59263,0,1,1-.208-13.18359Zm-3.09375,5.4082h6.18848a2.90917,2.90917,0,0,0-3.09473-2.78125A3.01673,3.01673,0,0,0,1007.32715,562.87891Z"
       transform="translate(-68 -57)"
       id="path346" />
    <path
       d="M1027.73731,568.72949a4.87628,4.87628,0,0,1-3.874,1.9248c-3.17187,0-5.56445-2.39258-5.56445-6.57812,0-4.10937,2.36621-6.60547,5.56445-6.60547a4.83585,4.83585,0,0,1,3.874,1.9248V552.999h3.32813V570.3418h-3.32812Zm0-6.88965a3.59326,3.59326,0,0,0-2.86035-1.43066c-1.87207,0-3.17187,1.48242-3.17187,3.667,0,2.15723,1.2998,3.63965,3.17188,3.63965a3.59326,3.59326,0,0,0,2.86035-1.43066Z"
       transform="translate(-68 -57)"
       id="path348" />
    <path
       d="M1040.19043,564.0498a6.64318,6.64318,0,1,1,6.62988,6.60449A6.361,6.361,0,0,1,1040.19043,564.0498Zm9.85449,0c0-1.9502-1.16992-3.64062-3.22461-3.64062-2.05371,0-3.19727,1.69043-3.19727,3.64063,0,1.97559,1.14355,3.666,3.19727,3.666C1048.875,567.71582,1050.04492,566.02539,1050.04492,564.0498Z"
       transform="translate(-68 -57)"
       id="path350" />
    <path
       d="M1064.39648,562.75a2.03823,2.03823,0,0,0-2.31445-2.34082,3.57584,3.57584,0,0,0-2.85937,1.48242v8.4502h-3.30273V557.7832h3.30273v1.63867a5.74725,5.74725,0,0,1,4.39453-1.95117c2.75586,0,4.082,1.56055,4.082,4.00488v8.86621h-3.30273Z"
       transform="translate(-68 -57)"
       id="path352" />
    <path
       d="M1078.72168,572.5a1.66577,1.66577,0,0,0,1.74219-.91016l.46777-1.06641-5.0957-12.74023h3.53613l3.27637,8.73633,3.27539-8.73633h3.5625l-5.90234,14.61328c-.93555,2.36523-2.59961,2.98926-4.75781,3.041a9.06908,9.06908,0,0,1-1.63867-.18164l.49414-2.96387A2.85829,2.85829,0,0,0,1078.72168,572.5Z"
       transform="translate(-68 -57)"
       id="path354" />
    <path
       d="M1090.16113,564.0498a6.64318,6.64318,0,1,1,6.62988,6.60449A6.361,6.361,0,0,1,1090.16113,564.0498Zm9.85449,0c0-1.9502-1.16992-3.64062-3.22461-3.64062-2.05371,0-3.19727,1.69043-3.19727,3.64063,0,1.97559,1.14356,3.666,3.19727,3.666C1098.8457,567.71582,1100.01563,566.02539,1100.01563,564.0498Z"
       transform="translate(-68 -57)"
       id="path356" />
    <path
       d="M1114.36719,568.75586a5.87727,5.87727,0,0,1-4.41992,1.89844c-2.75586,0-4.05664-1.50879-4.05664-3.95312v-8.918h3.30273v7.61816a2.01942,2.01942,0,0,0,2.31445,2.31445,3.69535,3.69535,0,0,0,2.85938-1.43066v-8.502h3.30273V570.3418h-3.30273Z"
       transform="translate(-68 -57)"
       id="path358" />
    <path
       d="M1120.94531,557.7832h3.30176V559.5a5.36945,5.36945,0,0,1,4.00391-2.00293v3.22461a4.053,4.053,0,0,0-4.00391,1.3252v8.29492h-3.30176Z"
       transform="translate(-68 -57)"
       id="path360" />
    <path
       d="M995.74414,589.38965a7.18363,7.18363,0,0,0,4.3418,1.71582c1.42969,0,2.10547-.49414,2.10547-1.27344,0-.88477-1.0918-1.19629-2.52148-1.48242-2.1582-.416-4.94043-.93555-4.94043-3.92578,0-2.10645,1.84668-3.95312,5.14844-3.95312a8.02188,8.02188,0,0,1,5.07031,1.7168l-1.32617,2.26172a5.3,5.3,0,0,0-3.71777-1.45605c-1.19629,0-1.97656.44238-1.97656,1.1709,0,.7793.98828,1.06543,2.39258,1.35156,2.1582.416,5.04395.98828,5.04395,4.10742,0,2.28906-1.9502,4.03125-5.43457,4.03125a8.45244,8.45244,0,0,1-5.61621-1.95117Z"
       transform="translate(-68 -57)"
       id="path362" />
    <path
       d="M1007.002,587.0498a6.64318,6.64318,0,1,1,6.62988,6.60449A6.361,6.361,0,0,1,1007.002,587.0498Zm9.85352,0c0-1.9502-1.16992-3.64062-3.22363-3.64062s-3.19824,1.69043-3.19824,3.64063c0,1.97559,1.14453,3.666,3.19824,3.666S1016.85547,589.02539,1016.85547,587.0498Z"
       transform="translate(-68 -57)"
       id="path364" />
    <path
       d="M1023.459,583.66992h-2.08008V580.7832h2.08008v-.67578a4.04792,4.04792,0,0,1,4.23828-4.36816,5.33229,5.33229,0,0,1,2.39258.52051l-.67578,2.33984a2.02591,2.02591,0,0,0-1.06641-.25977c-.93555,0-1.56055.623-1.56055,1.81934v.624h2.54883v2.88672h-2.54883v9.67188H1023.459Z"
       transform="translate(-68 -57)"
       id="path366" />
    <path
       d="M1031.88281,590.22168v-6.55176h-2.08008V580.7832h2.08008v-3.43164h3.32813v3.43164h2.54883v2.88672h-2.54883v5.668c0,.7793.416,1.37793,1.14453,1.37793a1.80874,1.80874,0,0,0,1.14453-.36426l.70117,2.49609a4.07407,4.07407,0,0,1-2.75586.80664C1033.13086,593.6543,1031.88281,592.458,1031.88281,590.22168Z"
       transform="translate(-68 -57)"
       id="path368" />
    <path
       d="M1048.39356,584.78711l-2.65137,8.55469h-3.53711l-3.82227-12.55859h3.43262l2.33984,8.4502,2.75684-8.4502h2.9375l2.75586,8.4502,2.33984-8.4502h3.43262l-3.82227,12.55859h-3.50977Z"
       transform="translate(-68 -57)"
       id="path370" />
    <path
       d="M1067.55566,592.042a5.198,5.198,0,0,1-3.97754,1.6123,4.1849,4.1849,0,0,1-4.36914-4.16016c0-2.93848,2.36719-4.00488,4.36914-4.00488a5.07561,5.07561,0,0,1,3.97754,1.53418v-1.74219c0-1.27344-1.0918-2.10547-2.75586-2.10547a5.28446,5.28446,0,0,0-3.666,1.48145l-1.248-2.21a8.23994,8.23994,0,0,1,5.48535-1.97656c2.86133,0,5.48633,1.14453,5.48633,4.75879v8.1123h-3.30176Zm0-3.27637a3.30024,3.30024,0,0,0-2.65137-1.0918c-1.30078,0-2.36719.67578-2.36719,1.89844,0,1.16992,1.06641,1.8457,2.36719,1.8457a3.3033,3.3033,0,0,0,2.65137-1.0918Z"
       transform="translate(-68 -57)"
       id="path372" />
    <path
       d="M1074.13379,580.7832h3.30176V582.5a5.37111,5.37111,0,0,1,4.00391-2.00293v3.22461a4.053,4.053,0,0,0-4.00391,1.3252v8.29492h-3.30176Z"
       transform="translate(-68 -57)"
       id="path374" />
    <path
       d="M1089.1875,580.4707c3.74414,0,6.293,2.80859,6.293,6.917v.72754h-9.335a3.38438,3.38438,0,0,0,3.61426,2.91211,5.13232,5.13232,0,0,0,3.35352-1.248l1.457,2.13281a7.832,7.832,0,0,1-5.1748,1.74219,6.59263,6.59263,0,1,1-.208-13.18359Zm-3.09375,5.4082h6.1875a2.90758,2.90758,0,0,0-3.09375-2.78125A3.01743,3.01743,0,0,0,1086.09375,585.87891Z"
       transform="translate(-68 -57)"
       id="path376" />
    <path
       d="M959.61768,598.999h3.30225v6.39648a4.83585,4.83585,0,0,1,3.874-1.9248c3.19824,0,5.56348,2.49609,5.56348,6.60547,0,4.18555-2.3916,6.57813-5.56348,6.57813a4.87489,4.87489,0,0,1-3.874-1.9248v1.6123h-3.30225Zm6.13623,14.7168c1.92383,0,3.19824-1.45605,3.19824-3.63965,0-2.18457-1.27441-3.667-3.19824-3.667a3.64238,3.64238,0,0,0-2.834,1.45605v4.44629A3.67554,3.67554,0,0,0,965.75391,613.71582Z"
       transform="translate(-68 -57)"
       id="path378" />
    <path
       d="M980.54785,603.4707c3.74414,0,6.292,2.80859,6.292,6.917v.72754h-9.334a3.38271,3.38271,0,0,0,3.61328,2.91211,5.1349,5.1349,0,0,0,3.35449-1.248l1.45605,2.13281a7.83111,7.83111,0,0,1-5.17383,1.74219,6.59263,6.59263,0,1,1-.208-13.18359Zm-3.09473,5.4082h6.18848a2.90886,2.90886,0,0,0-3.09375-2.78125A3.01841,3.01841,0,0,0,977.45313,608.87891Z"
       transform="translate(-68 -57)"
       id="path380" />
    <path
       d="M989.959,606.66992h-2.08008V603.7832H989.959v-.67578a4.04792,4.04792,0,0,1,4.23828-4.36816,5.33229,5.33229,0,0,1,2.39258.52051l-.67578,2.33984a2.02591,2.02591,0,0,0-1.06641-.25977c-.93555,0-1.56055.623-1.56055,1.81934v.624h2.54883v2.88672h-2.54883v9.67188H989.959Z"
       transform="translate(-68 -57)"
       id="path382" />
    <path
       d="M996.92773,610.0498a6.64318,6.64318,0,1,1,6.62988,6.60449A6.361,6.361,0,0,1,996.92773,610.0498Zm9.85352,0c0-1.9502-1.16992-3.64062-3.22363-3.64062s-3.19824,1.69043-3.19824,3.64063c0,1.97559,1.14453,3.666,3.19824,3.666S1006.78125,612.02539,1006.78125,610.0498Z"
       transform="translate(-68 -57)"
       id="path384" />
    <path
       d="M1012.65723,603.7832h3.30176V605.5a5.37111,5.37111,0,0,1,4.00391-2.00293v3.22461a4.053,4.053,0,0,0-4.00391,1.3252v8.29492h-3.30176Z"
       transform="translate(-68 -57)"
       id="path386" />
    <path
       d="M1027.71094,603.4707c3.74414,0,6.293,2.80859,6.293,6.917v.72754h-9.335a3.38438,3.38438,0,0,0,3.61426,2.91211,5.13232,5.13232,0,0,0,3.35352-1.248l1.457,2.13281a7.832,7.832,0,0,1-5.17481,1.74219,6.59263,6.59263,0,1,1-.208-13.18359Zm-3.09375,5.4082h6.1875a2.90758,2.90758,0,0,0-3.09375-2.78125A3.01743,3.01743,0,0,0,1024.61719,608.87891Z"
       transform="translate(-68 -57)"
       id="path388" />
    <path
       d="M1044.14258,618.5a1.66654,1.66654,0,0,0,1.74219-.91016l.46777-1.06641-5.0957-12.74023h3.53613l3.27539,8.73633,3.27637-8.73633h3.5625l-5.90234,14.61328c-.93652,2.36523-2.60059,2.98926-4.75879,3.041a9.06822,9.06822,0,0,1-1.6377-.18164l.49414-2.96387A2.85423,2.85423,0,0,0,1044.14258,618.5Z"
       transform="translate(-68 -57)"
       id="path390" />
    <path
       d="M1055.582,610.0498a6.64367,6.64367,0,1,1,6.63086,6.60449A6.36121,6.36121,0,0,1,1055.582,610.0498Zm9.85449,0c0-1.9502-1.16992-3.64062-3.22363-3.64062-2.05469,0-3.19922,1.69043-3.19922,3.64063,0,1.97559,1.14453,3.666,3.19922,3.666C1064.2666,613.71582,1065.43652,612.02539,1065.43652,610.0498Z"
       transform="translate(-68 -57)"
       id="path392" />
    <path
       d="M1079.78809,614.75586a5.879,5.879,0,0,1-4.41992,1.89844c-2.75684,0-4.05566-1.50879-4.05566-3.95312v-8.918h3.30176v7.61816a2.01876,2.01876,0,0,0,2.31348,2.31445,3.69421,3.69421,0,0,0,2.86035-1.43066v-8.502h3.30176V616.3418h-3.30176Z"
       transform="translate(-68 -57)"
       id="path394" />
    <path
       d="M1101.6543,614.72949a4.87813,4.87813,0,0,1-3.875,1.9248c-3.17187,0-5.56445-2.39258-5.56445-6.57812,0-4.10937,2.36719-6.60547,5.56445-6.60547a4.83767,4.83767,0,0,1,3.875,1.9248V598.999h3.32813V616.3418h-3.32812Zm0-6.88965a3.59518,3.59518,0,0,0-2.86133-1.43066c-1.87109,0-3.17187,1.48242-3.17187,3.667,0,2.15723,1.30078,3.63965,3.17188,3.63965a3.59518,3.59518,0,0,0,2.86133-1.43066Z"
       transform="translate(-68 -57)"
       id="path396" />
    <path
       d="M1107.45117,610.0498a6.64367,6.64367,0,1,1,6.63086,6.60449A6.36121,6.36121,0,0,1,1107.45117,610.0498Zm9.85449,0c0-1.9502-1.16992-3.64062-3.22363-3.64062-2.05469,0-3.19922,1.69043-3.19922,3.64063,0,1.97559,1.14453,3.666,3.19922,3.666C1116.13574,613.71582,1117.30566,612.02539,1117.30566,610.0498Z"
       transform="translate(-68 -57)"
       id="path398" />
    <path
       d="M1126.22266,605.34375c.80664-.57227,1.50879-1.06641,1.50879-1.84668,0-.80566-.59863-1.48145-2.02832-1.48145a4.15607,4.15607,0,0,0-3.19824,1.61133l-2.10645-2.36523a7.44053,7.44053,0,0,1,5.69531-2.52246c3.35352,0,5.4082,1.69043,5.4082,4.1084,0,2.1582-1.37891,3.19727-2.627,4.05566-.91016.67676-1.71582,1.248-1.71582,2.21a1.5695,1.5695,0,0,0,.46777,1.0918l-2.834.832a3.31667,3.31667,0,0,1-.85742-2.28711C1123.93555,606.95508,1125.18359,606.09766,1126.22266,605.34375Zm-.18164,7.07227a2.106,2.106,0,1,1-2.10547,2.10547A2.13083,2.13083,0,0,1,1126.041,612.416Z"
       transform="translate(-68 -57)"
       id="path400" />
    <path
       d="M1372.293,534.35156h-7.748l-1.0918,2.99023h-4.05664l6.709-17.34277h4.62793l6.68262,17.34277h-4.03125Zm-6.75977-3.19824h5.74609l-2.86035-7.95605Z"
       transform="translate(-68 -57)"
       id="path402" />
    <path
       d="M1378.94922,542.126V524.7832h3.30176v1.58594a4.85184,4.85184,0,0,1,3.874-1.89795c3.22461,0,5.56445,2.39209,5.56445,6.57861,0,4.186-2.33984,6.604-5.56445,6.604a4.79677,4.79677,0,0,1-3.874-1.92432V542.126Zm6.13574-14.7168a3.69724,3.69724,0,0,0-2.834,1.43018v4.44629a3.78134,3.78134,0,0,0,2.834,1.43018c1.89746,0,3.17188-1.48242,3.17188-3.666C1388.25684,528.8916,1386.98242,527.40918,1385.085,527.40918Z"
       transform="translate(-68 -57)"
       id="path404" />
    <path
       d="M1394.1582,542.126V524.7832h3.30273v1.58594a4.85184,4.85184,0,0,1,3.874-1.89795c3.22363,0,5.56348,2.39209,5.56348,6.57861,0,4.186-2.33984,6.604-5.56348,6.604a4.79677,4.79677,0,0,1-3.874-1.92432V542.126Zm6.13672-14.7168a3.69724,3.69724,0,0,0-2.834,1.43018v4.44629a3.78134,3.78134,0,0,0,2.834,1.43018c1.89844,0,3.17188-1.48242,3.17188-3.666C1403.4668,528.8916,1402.19336,527.40918,1400.29492,527.40918Z"
       transform="translate(-68 -57)"
       id="path406" />
    <path
       d="M1409.36914,519.999h3.30176V537.3418h-3.30176Z"
       transform="translate(-68 -57)"
       id="path408" />
    <path
       d="M1417.03809,539.5a1.66577,1.66577,0,0,0,1.74219-.91016l.46777-1.06592-5.0957-12.74072h3.53613l3.27637,8.73633,3.27539-8.73633h3.5625l-5.90234,14.61279c-.93555,2.36572-2.59961,2.98975-4.75781,3.0415a9.06908,9.06908,0,0,1-1.63867-.18164l.49414-2.96387A2.85829,2.85829,0,0,0,1417.03809,539.5Z"
       transform="translate(-68 -57)"
       id="path410" />
    <path
       d="M1443.47949,536.042a5.1977,5.1977,0,0,1-3.97754,1.61182,4.18459,4.18459,0,0,1-4.36914-4.16016c0-2.938,2.36719-4.00439,4.36914-4.00439a5.07561,5.07561,0,0,1,3.97754,1.53418v-1.74219c0-1.27393-1.0918-2.106-2.75586-2.106a5.28281,5.28281,0,0,0-3.666,1.48193l-1.248-2.21a8.237,8.237,0,0,1,5.48535-1.97607c2.86133,0,5.48633,1.144,5.48633,4.7583v8.1123h-3.30176Zm0-3.27637a3.30177,3.30177,0,0,0-2.65137-1.0918c-1.30078,0-2.36719.67578-2.36719,1.89795,0,1.16992,1.06641,1.84619,2.36719,1.84619a3.30208,3.30208,0,0,0,2.65137-1.09229Z"
       transform="translate(-68 -57)"
       id="path412" />
    <path
       d="M1458.5332,529.74951a2.03722,2.03722,0,0,0-2.31348-2.34033,3.5793,3.5793,0,0,0-2.86035,1.48242v8.4502h-3.30176V524.7832h3.30176v1.63818a5.75175,5.75175,0,0,1,4.39453-1.9502c2.75586,0,4.082,1.56006,4.082,4.00439v8.86621h-3.30273Z"
       transform="translate(-68 -57)"
       id="path414" />
    <path
       d="M1350.96,547.4707c3.74414,0,6.292,2.80859,6.292,6.917v.72754h-9.334a3.38438,3.38438,0,0,0,3.61426,2.91211,5.13684,5.13684,0,0,0,3.35449-1.248l1.45508,2.13281a7.82929,7.82929,0,0,1-5.17383,1.74219,6.59263,6.59263,0,1,1-.208-13.18359Zm-3.09375,5.4082h6.18848a2.90917,2.90917,0,0,0-3.09473-2.78125A3.01673,3.01673,0,0,0,1347.86621,552.87891Z"
       transform="translate(-68 -57)"
       id="path416" />
    <path
       d="M1375.21875,552.41211c0-1.1709-.52051-2.00293-1.87207-2.00293a3.33531,3.33531,0,0,0-2.60059,1.45605v8.47656H1367.418v-7.92969c0-1.1709-.51953-2.00293-1.87207-2.00293a3.36882,3.36882,0,0,0-2.59961,1.48242v8.4502h-3.30176V547.7832h3.30176v1.63867a5.49225,5.49225,0,0,1,4.1084-1.95117,3.32238,3.32238,0,0,1,3.4834,2.28906,5.33036,5.33036,0,0,1,4.31641-2.28906c2.31348,0,3.69238,1.22266,3.69238,3.79688v9.07422h-3.32812Z"
       transform="translate(-68 -57)"
       id="path418" />
    <path
       d="M1381.7959,542.999h3.30176v6.39648a4.83767,4.83767,0,0,1,3.875-1.9248c3.19727,0,5.56348,2.49609,5.56348,6.60547,0,4.18555-2.3916,6.57813-5.56348,6.57813a4.87674,4.87674,0,0,1-3.875-1.9248v1.6123h-3.30176Zm6.13574,14.7168c1.92383,0,3.19824-1.45605,3.19824-3.63965,0-2.18457-1.27441-3.667-3.19824-3.667a3.64543,3.64543,0,0,0-2.834,1.45605v4.44629A3.67863,3.67863,0,0,0,1387.93164,557.71582Z"
       transform="translate(-68 -57)"
       id="path420" />
    <path
       d="M1404.57227,559.042a5.19871,5.19871,0,0,1-3.97852,1.6123,4.1841,4.1841,0,0,1-4.36816-4.16016c0-2.93848,2.36621-4.00488,4.36816-4.00488a5.07781,5.07781,0,0,1,3.97852,1.53418v-1.74219c0-1.27344-1.0918-2.10547-2.75586-2.10547a5.28847,5.28847,0,0,0-3.667,1.48145l-1.248-2.21a8.24244,8.24244,0,0,1,5.48633-1.97656c2.86035,0,5.48633,1.14453,5.48633,4.75879v8.1123h-3.30176Zm0-3.27637a3.30231,3.30231,0,0,0-2.65234-1.0918c-1.30078,0-2.36621.67578-2.36621,1.89844,0,1.16992,1.06543,1.8457,2.36621,1.8457a3.30536,3.30536,0,0,0,2.65234-1.0918Z"
       transform="translate(-68 -57)"
       id="path422" />
    <path
       d="M1411.15039,547.7832h3.30176V549.5a5.36945,5.36945,0,0,1,4.00391-2.00293v3.22461a4.053,4.053,0,0,0-4.00391,1.3252v8.29492h-3.30176Z"
       transform="translate(-68 -57)"
       id="path424" />
    <path
       d="M1421.73145,561.17383a4.99,4.99,0,0,0,3.92578,1.56055c1.58594,0,3.458-.70312,3.458-3.17285v-1.27441a4.89081,4.89081,0,0,1-3.874,1.97656c-3.14551,0-5.53809-2.21-5.53809-6.39648,0-4.10742,2.36621-6.39648,5.53809-6.39648a4.8345,4.8345,0,0,1,3.874,1.9248v-1.6123h3.32813v11.70117c0,4.7832-3.69141,5.95313-6.78613,5.95313a7.61263,7.61263,0,0,1-5.4082-1.87109Zm7.38379-9.334a3.58084,3.58084,0,0,0-2.834-1.43066c-1.87207,0-3.17187,1.2998-3.17187,3.458s1.29981,3.459,3.17188,3.459a3.65873,3.65873,0,0,0,2.834-1.43066Z"
       transform="translate(-68 -57)"
       id="path426" />
    <path
       d="M1434.91309,554.0498a6.64318,6.64318,0,1,1,6.62988,6.60449A6.361,6.361,0,0,1,1434.91309,554.0498Zm9.85449,0c0-1.9502-1.16992-3.64062-3.22461-3.64062-2.05371,0-3.19727,1.69043-3.19727,3.64063,0,1.97559,1.14356,3.666,3.19727,3.666C1443.59766,557.71582,1444.76758,556.02539,1444.76758,554.0498Z"
       transform="translate(-68 -57)"
       id="path428" />
    <path
       d="M1457.94922,557.22168v-6.55176h-2.08008V547.7832h2.08008v-3.43164h3.32813v3.43164h2.54785v2.88672h-2.54785v5.668c0,.7793.416,1.37793,1.14355,1.37793a1.80342,1.80342,0,0,0,1.14355-.36426l.70313,2.49609a4.07709,4.07709,0,0,1-2.75684.80664C1459.19727,560.6543,1457.94922,559.458,1457.94922,557.22168Z"
       transform="translate(-68 -57)"
       id="path430" />
    <path
       d="M1465.28125,554.0498a6.64318,6.64318,0,1,1,6.62988,6.60449A6.361,6.361,0,0,1,1465.28125,554.0498Zm9.85352,0c0-1.9502-1.16992-3.64062-3.22363-3.64062s-3.19824,1.69043-3.19824,3.64063c0,1.97559,1.14453,3.666,3.19824,3.666S1475.13477,556.02539,1475.13477,554.0498Z"
       transform="translate(-68 -57)"
       id="path432" />
    <path
       d="M1340.13086,588.126V570.7832h3.30273v1.58594a4.85231,4.85231,0,0,1,3.874-1.89844c3.22363,0,5.56348,2.39258,5.56348,6.5791s-2.33984,6.60449-5.56348,6.60449a4.79864,4.79864,0,0,1-3.874-1.9248V588.126Zm6.13672-14.7168a3.69617,3.69617,0,0,0-2.834,1.43066v4.44531a3.78019,3.78019,0,0,0,2.834,1.43066c1.89844,0,3.17188-1.48242,3.17188-3.666C1349.43945,574.8916,1348.166,573.40918,1346.26758,573.40918Z"
       transform="translate(-68 -57)"
       id="path434" />
    <path
       d="M1363.81738,581.75586a5.879,5.879,0,0,1-4.41992,1.89844c-2.75684,0-4.05566-1.50879-4.05566-3.95312v-8.918h3.30176v7.61816a2.01876,2.01876,0,0,0,2.31348,2.31445,3.69421,3.69421,0,0,0,2.86035-1.43066v-8.502h3.30176V583.3418h-3.30176Z"
       transform="translate(-68 -57)"
       id="path436" />
    <path
       d="M1370.39453,565.999h3.30273v6.39648a4.83585,4.83585,0,0,1,3.874-1.9248c3.19824,0,5.56348,2.49609,5.56348,6.60547,0,4.18555-2.3916,6.57813-5.56348,6.57813a4.87489,4.87489,0,0,1-3.874-1.9248v1.6123h-3.30273Zm6.13672,14.7168c1.92383,0,3.19824-1.45605,3.19824-3.63965,0-2.18457-1.27441-3.667-3.19824-3.667a3.64238,3.64238,0,0,0-2.834,1.45605v4.44629A3.67554,3.67554,0,0,0,1376.53125,580.71582Z"
       transform="translate(-68 -57)"
       id="path438" />
    <path
       d="M1385.63086,565.999h3.30176V583.3418h-3.30176Z"
       transform="translate(-68 -57)"
       id="path440" />
    <path
       d="M1391.87012,567.19531a1.97607,1.97607,0,1,1,1.97656,1.97656A1.99279,1.99279,0,0,1,1391.87012,567.19531Zm.33887,3.58789h3.30176V583.3418H1392.209Z"
       transform="translate(-68 -57)"
       id="path442" />
    <path
       d="M1399.124,579.38965a7.1865,7.1865,0,0,0,4.34277,1.71582c1.42969,0,2.10547-.49414,2.10547-1.27344,0-.88477-1.0918-1.19629-2.52148-1.48242-2.1582-.416-4.94141-.93555-4.94141-3.92578,0-2.10645,1.84668-3.95312,5.14844-3.95312a8.0198,8.0198,0,0,1,5.07031,1.7168l-1.32617,2.26172a5.29819,5.29819,0,0,0-3.71777-1.45605c-1.19629,0-1.97559.44238-1.97559,1.1709,0,.7793.9873,1.06543,2.3916,1.35156,2.1582.416,5.04395.98828,5.04395,4.10742,0,2.28906-1.94922,4.03125-5.43359,4.03125a8.45324,8.45324,0,0,1-5.61719-1.95117Z"
       transform="translate(-68 -57)"
       id="path444" />
    <path
       d="M1419.69043,575.69727c0-1.74219-.91016-2.28809-2.34082-2.28809a3.65877,3.65877,0,0,0-2.85937,1.48242v8.4502h-3.30273V565.999h3.30273v6.42285a5.80653,5.80653,0,0,1,4.41992-1.95117c2.75586,0,4.082,1.50879,4.082,3.95313v8.918h-3.30176Z"
       transform="translate(-68 -57)"
       id="path446" />
    <path
       d="M1432.92383,565.999h3.30176V583.3418h-3.30176Z"
       transform="translate(-68 -57)"
       id="path448" />
    <path
       d="M1447.041,582.042a5.19722,5.19722,0,0,1-3.97852,1.6123,4.1833,4.1833,0,0,1-4.36719-4.16016c0-2.93848,2.36523-4.00488,4.36719-4.00488a5.07781,5.07781,0,0,1,3.97852,1.53418v-1.74219c0-1.27344-1.0918-2.10547-2.75586-2.10547a5.2879,5.2879,0,0,0-3.666,1.48145l-1.248-2.21a8.23886,8.23886,0,0,1,5.48633-1.97656c2.85938,0,5.48633,1.14453,5.48633,4.75879v8.1123H1447.041Zm0-3.27637a3.301,3.301,0,0,0-2.65234-1.0918c-1.29981,0-2.36523.67578-2.36523,1.89844,0,1.16992,1.06543,1.8457,2.36523,1.8457a3.304,3.304,0,0,0,2.65234-1.0918Z"
       transform="translate(-68 -57)"
       id="path450" />
    <path
       d="M1454.26953,580.22168v-6.55176h-2.08008V570.7832h2.08008v-3.43164h3.32813v3.43164h2.54785v2.88672h-2.54785v5.668c0,.7793.416,1.37793,1.14356,1.37793a1.80342,1.80342,0,0,0,1.14355-.36426l.70313,2.49609a4.0771,4.0771,0,0,1-2.75684.80664C1455.51758,583.6543,1454.26953,582.458,1454.26953,580.22168Z"
       transform="translate(-68 -57)"
       id="path452" />
    <path
       d="M1468.10156,570.4707c3.74414,0,6.292,2.80859,6.292,6.917v.72754h-9.335a3.38539,3.38539,0,0,0,3.61523,2.91211,5.13232,5.13232,0,0,0,3.35352-1.248l1.45605,2.13281a7.82928,7.82928,0,0,1-5.17383,1.74219,6.59263,6.59263,0,1,1-.208-13.18359Zm-3.09375,5.4082h6.1875a2.90886,2.90886,0,0,0-3.09375-2.78125A3.016,3.016,0,0,0,1465.00781,575.87891Z"
       transform="translate(-68 -57)"
       id="path454" />
    <path
       d="M1476.78516,570.7832h3.30176V572.5a5.36982,5.36982,0,0,1,4.00488-2.00293v3.22461a4.0547,4.0547,0,0,0-4.00488,1.3252v8.29492h-3.30176Z"
       transform="translate(-68 -57)"
       id="path456" />
    <path
       d="M1427.34961,270.34717h10.45117c8.55078,0,12.05078,6.75049,12.05078,16.001,0,9.15039-3.75,16.001-12.45117,16.001h-10.05078Zm9.15039,7.55029h-.94922v16.90137h.79981c2.95019,0,5.251-.7002,5.251-8.50049C1441.60156,278.59766,1439.501,277.89746,1436.5,277.89746Z"
       transform="translate(-68 -57)"
       id="path458" />
    <path
       d="M1459.54981,291.54834c.0498,3.4502.751,5.45068,2.90039,5.45068,1.14941,0,2.29981-.90039,2.54981-3.15039h7.70117c-.60059,5.65039-3.5,9.00049-9.95117,9.00049-9.45019,0-10.80078-7.50049-10.80078-13.30078s1.40039-13.20068,10.65039-13.20068c9.90137,0,10.10156,8.75049,10.10156,15.20068Zm2.70019-9.40039c-1.04981,0-2.5.6001-2.70019,4.65039h5.30078C1464.75,283.64795,1464.25,282.14795,1462.25,282.14795Z"
       transform="translate(-68 -57)"
       id="path460" />
    <path
       d="M1475.14941,276.84766H1480l1.04981,2.5a7.56885,7.56885,0,0,1,5.95019-3c7.55078,0,9.05078,7.65039,9.05078,13.20068,0,6.80029-2.15039,13.30078-7.70117,13.30078a8.2653,8.2653,0,0,1-5.19922-1.75v11.25049h-8.001Zm10.40137,7.00049c-2.45117,0-2.751,2.6499-2.751,5.7002,0,3.25.2998,5.9502,2.7998,5.9502,2.30078,0,2.65039-2.7002,2.65039-5.9502C1488.25,286.39795,1487.90039,283.84814,1485.55078,283.84814Z"
       transform="translate(-68 -57)"
       id="path462" />
    <path
       d="M1508,302.84912c-8.751,0-10.251-7.4502-10.251-13.251,0-5.75,1.60059-13.25049,10.35059-13.25049,8.60059,0,10.15039,7.50049,10.15039,13.25049C1518.25,295.49854,1516.7002,302.84912,1508,302.84912Zm.09961-19.001c-1.65039,0-2.90039,1.25-2.90039,5.75,0,4.55029,1.30078,5.80078,2.80078,5.80078,1.65039,0,2.90039-1.15039,2.90039-5.80078C1510.90039,285.14795,1509.69922,283.84814,1508.09961,283.84814Z"
       transform="translate(-68 -57)"
       id="path464" />
    <path
       d="M1530.09961,302.84912c-6.60156,0-10.501-2.4502-10.501-8.80029h7.85059c0,3.1001,1.19922,3.3999,2.44922,3.3999a2.03567,2.03567,0,0,0,2.05078-2.1001,3.03031,3.03031,0,0,0-2.09961-2.7002c-4.30078-1.5498-9.90039-2.4502-9.90039-8.35059,0-3.75,2.09961-7.9502,9.65039-7.9502,6.7998,0,9.65039,2.3999,9.65039,8.40039h-7.60059c0-2.65039-1.20019-3.05029-2.001-3.05029a1.9539,1.9539,0,0,0-1.94922,2.1001,2.73468,2.73468,0,0,0,2,2.50049c4.30078,1.6499,10,2.0498,10,8.75049C1539.69922,298.14893,1537.34961,302.84912,1530.09961,302.84912Z"
       transform="translate(-68 -57)"
       id="path466" />
    <path
       d="M1545.69922,274.29736c-3.20117,0-4.90039-.9502-4.90039-4.75049,0-3.8999,1.69922-4.7002,4.90039-4.7002,3.19922,0,4.84961.80029,4.84961,4.7002C1550.54883,273.29736,1548.89844,274.29736,1545.69922,274.29736Zm-4.001,28.05176V276.84766h8.001v25.50146Z"
       transform="translate(-68 -57)"
       id="path468" />
    <path
       d="M1564.19922,302.59912c-8.10156,0-10.05078-2.9502-10.05078-8.10059V284.29785h-3.25v-5.40039l3.25-2v-6.55029h8v6.50049h4.5v7.4502h-4.2998v8.35059c0,2.05029.45019,2.55029,2.35059,2.55029.54883,0,1.19922-.05029,1.94922-.1001V302.499C1565.79883,302.54932,1564.94922,302.59912,1564.19922,302.59912Z"
       transform="translate(-68 -57)"
       id="path470" />
    <path
       d="M1590.39844,302.34912v-14.501c0-3.30029-.5-3.9502-1.90039-3.9502s-2,.7002-2,3.9502v14.501h-8.10059V276.84766h4.85059l1,2.80029a7.41273,7.41273,0,0,1,6-3.30029c7.60059,0,8.15039,5.4502,8.15039,11.40039v14.60107Z"
       transform="translate(-68 -57)"
       id="path472" />
    <path
       d="M1610.89746,302.84912c-8.751,0-10.251-7.4502-10.251-13.251,0-5.75,1.60059-13.25049,10.35156-13.25049,8.59961,0,10.15039,7.50049,10.15039,13.25049C1621.14844,295.49854,1619.59766,302.84912,1610.89746,302.84912Zm.10059-19.001c-1.65039,0-2.90039,1.25-2.90039,5.75,0,4.55029,1.29981,5.80078,2.79981,5.80078,1.65039,0,2.90039-1.15039,2.90039-5.80078C1613.79785,285.14795,1612.59766,283.84814,1610.998,283.84814Z"
       transform="translate(-68 -57)"
       id="path474" />
    <path
       d="M1647.59863,302.34912h-8.4502l-2.20117-15.501-2.19922,15.501h-8.05078l-5.34961-25.50146h8.54981l1.35059,15.55078,1.89941-15.55078h7.55078l2.25,15.70068,1.54981-15.70068h8.501Z"
       transform="translate(-68 -57)"
       id="path476" />
  </g>
  <g
     id="Arrows">
    <line
       class="cls-5"
       x1="1095"
       y1="231"
       x2="1245"
       y2="231"
       id="line523" />
    <line
       class="cls-6"
       x1="1095"
       y1="231"
       x2="1194.08374"
       y2="231"
       id="line525" />
    <path
       class="cls-7"
       d="M1313,288c-23.95825,8.88974-53.68457,24.05753-72.11084,40.12335L1255.402,288l-14.51282-40.1151C1259.31543,263.95068,1289.04175,279.11853,1313,288Z"
       transform="translate(-68 -57)"
       id="path527" />
    <line
       class="cls-5"
       x1="1091"
       y1="495"
       x2="1241"
       y2="495"
       id="line529" />
    <line
       class="cls-6"
       x1="1091"
       y1="495"
       x2="1190.08374"
       y2="495"
       id="line531" />
    <path
       class="cls-7"
       d="M1309,552c-23.95825,8.88977-53.68457,24.0575-72.11084,40.12335L1251.402,552l-14.51282-40.11511C1255.31543,527.95068,1285.04175,543.11853,1309,552Z"
       transform="translate(-68 -57)"
       id="path533" />
  </g>
</svg>
